<svg width="14" height="14" viewBox="0 0 14 14" fill="none" xmlns="http://www.w3.org/2000/svg">
<g clip-path="url(#clip0_1618_1062)">
<path d="M7.00008 0C5.97321 0 5.1377 0.835516 5.1377 1.86238V2.4243H6.10099V1.86238C6.10099 1.36661 6.50445 0.963293 7.00008 0.963293C7.49585 0.963293 7.89933 1.36659 7.89933 1.86238V2.4243H8.86262V1.86238C8.86262 0.835516 8.02697 0 7.00008 0Z" fill="#1C274C"/>
<path d="M8.31606 11.7361C8.31606 12.4533 7.73263 13.0367 7.01559 13.0367H6.98349C6.26648 13.0367 5.68302 12.4533 5.68302 11.7361H4.71973C4.71973 12.9845 5.73522 14 6.98349 14H7.01559C8.26386 14 9.27935 12.9845 9.27935 11.7361H8.31606Z" fill="#1C274C"/>
<path d="M13.4176 11.524L12.0493 9.39526V6.66285C12.0493 3.95388 9.86692 1.75 7.18461 1.75C4.50213 1.75 2.31994 3.95388 2.31994 6.66285V9.39526L0.951572 11.5238C0.856197 11.672 0.84947 11.8605 0.933908 12.0151C1.01835 12.1697 1.18036 12.2661 1.35664 12.2661H13.0126C13.1889 12.2661 13.3509 12.1697 13.4352 12.0153C13.5197 11.8607 13.513 11.6722 13.4176 11.524Z" fill="#1C274C"/>
</g>
<defs>
<clipPath id="clip0_1618_1062">
<rect width="14" height="14" fill="white"/>
</clipPath>
</defs>
</svg>
