<svg width="14" height="14" viewBox="0 0 14 14" fill="none" xmlns="http://www.w3.org/2000/svg">
<g clip-path="url(#clip0_1681_8)">
<path d="M7 1.12C8.16296 1.12 9.29979 1.46486 10.2668 2.11096C11.2337 2.75706 11.9874 3.67539 12.4324 4.74982C12.8775 5.82425 12.9939 7.00652 12.767 8.14713C12.5401 9.28774 11.9801 10.3355 11.1578 11.1578C10.3355 11.9801 9.28774 12.5401 8.14713 12.767C7.00652 12.9939 5.82425 12.8775 4.74982 12.4324C3.67539 11.9874 2.75706 11.2337 2.11096 10.2668C1.46486 9.29979 1.12 8.16295 1.12 7C1.12 5.44053 1.7395 3.94493 2.84221 2.84221C3.94493 1.7395 5.44053 1.12 7 1.12ZM7 0C5.61553 0 4.26215 0.410543 3.11101 1.17971C1.95987 1.94888 1.06266 3.04213 0.532846 4.32121C0.00303298 5.6003 -0.13559 7.00776 0.134506 8.36563C0.404603 9.7235 1.07129 10.9708 2.05026 11.9497C3.02922 12.9287 4.2765 13.5954 5.63437 13.8655C6.99224 14.1356 8.3997 13.997 9.67879 13.4672C10.9579 12.9373 12.0511 12.0401 12.8203 10.889C13.5895 9.73785 14 8.38447 14 7C14 5.14348 13.2625 3.36301 11.9497 2.05025C10.637 0.737498 8.85652 0 7 0Z" fill="black"/>
<path d="M7.70018 11.0012H6.32258C5.95108 11.0015 5.59251 10.8649 5.31539 10.6174C5.03827 10.37 4.86204 10.0292 4.82038 9.66L4.28418 4.8468H9.73718L9.19818 9.66C9.1569 10.0286 8.98135 10.369 8.70505 10.6164C8.42875 10.8638 8.07104 11.0008 7.70018 11.0012ZM5.53998 5.9612L5.93618 9.527C5.94655 9.62291 5.99205 9.71159 6.06391 9.77596C6.13577 9.84032 6.22891 9.87582 6.32538 9.8756H7.70018C7.79619 9.87551 7.88881 9.84005 7.96034 9.77601C8.03187 9.71197 8.07731 9.62382 8.08798 9.5284L8.48418 5.9668L5.53998 5.9612Z" fill="black"/>
<path d="M9.95123 4.8468H4.07123C3.76195 4.8468 3.51123 5.09752 3.51123 5.4068C3.51123 5.71608 3.76195 5.9668 4.07123 5.9668H9.95123C10.2605 5.9668 10.5112 5.71608 10.5112 5.4068C10.5112 5.09752 10.2605 4.8468 9.95123 4.8468Z" fill="black"/>
<path d="M7.85133 3.30682H6.17133C5.86205 3.30682 5.61133 3.55754 5.61133 3.86682C5.61133 4.1761 5.86205 4.42682 6.17133 4.42682H7.85133C8.16061 4.42682 8.41133 4.1761 8.41133 3.86682C8.41133 3.55754 8.16061 3.30682 7.85133 3.30682Z" fill="black"/>
</g>
<defs>
<clipPath id="clip0_1681_8">
<rect width="14" height="14" fill="white"/>
</clipPath>
</defs>
</svg>
