<svg width="14" height="14" viewBox="0 0 14 14" fill="none" xmlns="http://www.w3.org/2000/svg">
<g clip-path="url(#clip0_1681_5)">
<path fill-rule="evenodd" clip-rule="evenodd" d="M7.00935 0C3.14237 0 0 3.14237 0 7.00935C0 10.8762 3.14237 14.0221 7.00935 14.0221C10.8762 14.0221 14.0221 10.8762 14.0221 7.00935C14.0221 3.14237 10.8762 0 7.00935 0ZM7.00935 0.876372C10.4027 0.876372 13.1457 3.61586 13.1457 7.00935C13.1457 10.4027 10.4027 13.1457 7.00935 13.1457C3.61586 13.1457 0.876372 10.4027 0.876372 7.00935C0.876372 3.61586 3.61586 0.876372 7.00935 0.876372ZM8.24861 2.19006C8.08954 2.18623 7.94044 2.26936 7.85998 2.40663L4.00448 8.99571C3.95544 9.07837 3.93503 9.17495 3.94628 9.27048L4.20818 11.4443C4.23334 11.6645 4.42186 11.8326 4.64341 11.8326C4.703 11.8326 4.7619 11.8204 4.81662 11.7969L6.83127 10.9367C6.9173 10.8986 6.98871 10.8338 7.03497 10.7519L10.894 4.16621C10.9336 4.09885 10.9546 4.0221 10.9546 3.94385C10.9546 3.78768 10.871 3.64276 10.7356 3.56461L8.45822 2.25174C8.39469 2.21383 8.32257 2.19261 8.24861 2.19006ZM8.39747 3.2248L9.91405 4.10117L9.57342 4.68318L8.05603 3.80762L8.39747 3.2248ZM7.61269 4.56504L9.13008 5.4406L6.94257 9.17796L5.42599 8.30252L7.61269 4.56504ZM4.98357 9.05901L6.49922 9.93538L6.35291 10.1862L5.01012 10.7613L4.83552 9.31233L4.98357 9.05901Z" fill="black"/>
</g>
<defs>
<clipPath id="clip0_1681_5">
<rect width="14" height="14" fill="white"/>
</clipPath>
</defs>
</svg>
