<svg width="16" height="16" viewBox="0 0 16 16" fill="none" xmlns="http://www.w3.org/2000/svg">
<g clip-path="url(#clip0_1466_54)">
<path d="M5.53862 7.60367V15.3842C5.53862 15.4892 5.56546 15.5924 5.61658 15.684C5.66771 15.7756 5.74141 15.8527 5.8307 15.9078C5.91999 15.9629 6.0219 15.9943 6.12673 15.999C6.23156 16.0036 6.33584 15.9814 6.42966 15.9344L10.1218 14.0883C10.2239 14.0371 10.3097 13.9586 10.3697 13.8614C10.4297 13.7643 10.4615 13.6524 10.4615 13.5382V7.60367L15.8606 1.00581C15.9118 0.943264 15.9503 0.871238 15.9737 0.793846C15.9971 0.716454 16.005 0.635212 15.997 0.554757C15.989 0.474302 15.9652 0.396211 15.927 0.324942C15.8889 0.253673 15.837 0.190621 15.7745 0.139388C15.7119 0.0881546 15.6399 0.0497425 15.5625 0.0263446C15.4851 0.00294673 15.4039 -0.00497862 15.3234 0.00302114C15.243 0.0110209 15.1649 0.0347891 15.0936 0.0729687C15.0223 0.111148 14.9593 0.162991 14.908 0.225538L9.36983 6.99446C9.27979 7.10453 9.23064 7.24239 9.23076 7.3846V13.1579L6.76933 14.3886V7.3846C6.76945 7.24239 6.72031 7.10453 6.63026 6.99446L1.91417 1.23103H11.6922C11.8554 1.23103 12.0119 1.1662 12.1273 1.0508C12.2427 0.935395 12.3075 0.778877 12.3075 0.615674C12.3075 0.452471 12.2427 0.295953 12.1273 0.180551C12.0119 0.0651497 11.8554 0.000317521 11.6922 0.000317521H0.615767C0.499194 0.000239751 0.384996 0.0332765 0.286469 0.0955815C0.187942 0.157886 0.10914 0.246896 0.059236 0.352248C0.00933233 0.4576 -0.00961954 0.574961 0.00458693 0.690666C0.0187934 0.806371 0.0655737 0.91566 0.139482 1.00581L5.53862 7.60367Z" fill="black" fill-opacity="0.8"/>
</g>
<defs>
<clipPath id="clip0_1466_54">
<rect width="16" height="16" fill="white"/>
</clipPath>
</defs>
</svg>
