<svg width="14" height="14" viewBox="0 0 14 14" fill="none" xmlns="http://www.w3.org/2000/svg">
<g clip-path="url(#clip0_1422_223)">
<path d="M13.2475 6.63799C13.3544 6.4619 13.4127 6.26061 13.4166 6.05466V5.99633C13.4176 5.21856 12.808 4.5769 12.0312 4.538L8.79373 4.37467L8.98039 3.35092C9.09983 2.69467 8.99071 2.01731 8.67123 1.43176L8.49623 1.11092C8.29326 0.737519 7.93751 0.471264 7.52206 0.381759H7.4754C7.00293 0.28026 6.53765 0.581004 6.43616 1.0535C6.42347 1.11264 6.41691 1.17294 6.41665 1.23342V2.10842C6.41687 2.53174 6.30192 2.94711 6.08415 3.31009L5.04874 5.03675C4.89317 5.30384 4.60825 5.46903 4.29916 5.47133H3.20832H3.17624C2.88458 5.08341 2.41791 4.888 1.75 4.888H0.291666C0.130593 4.888 0 5.01859 0 5.17966C0 5.34074 0.130593 5.47133 0.291666 5.47133H1.16666V10.4297C1.16666 10.5907 1.29726 10.7213 1.45833 10.7213C1.6194 10.7213 1.75 10.5907 1.75 10.4297V5.47133C2.57833 5.47133 2.91666 5.80966 2.91666 6.63799V11.888C2.91666 12.7396 2.60166 13.0546 1.75 13.0546H0.291666C0.130593 13.0546 0 13.1852 0 13.3463C0 13.5074 0.130593 13.638 0.291666 13.638H1.75C2.69499 13.638 3.25207 13.2413 3.43291 12.4713H4.59957C4.81391 12.4716 5.02745 12.4981 5.2354 12.5501L6.23582 12.8009C6.92174 12.9727 7.63231 13.024 8.33581 12.9526L11.2816 12.6171C12.1699 12.5158 12.8391 11.7612 12.8333 10.8671V10.7213C12.8327 10.6864 12.8258 10.6518 12.8129 10.6192C13.1878 10.3481 13.4119 9.91522 13.4166 9.45257V9.26299C13.4168 9.13283 13.3879 9.00432 13.332 8.88674C13.7465 8.61943 13.9978 8.16074 14 7.66757V7.51299C14.0043 7.07378 13.6823 6.69946 13.2475 6.63799ZM13.4166 7.66757C13.421 8.10675 13.099 8.4811 12.6641 8.54257L11.6258 8.67965C11.4647 8.69092 11.3433 8.83066 11.3546 8.99174C11.3658 9.15281 11.5056 9.27425 11.6666 9.26299H11.7075L12.7487 9.11424H12.7808C12.8116 9.15806 12.8298 9.20954 12.8333 9.26299V9.4409C12.8391 9.87344 12.528 10.2453 12.1012 10.3159L11.3254 10.4297C11.1643 10.4434 11.0448 10.585 11.0585 10.7461C11.0722 10.9072 11.2139 11.0267 11.375 11.013H11.4246L12.2004 10.8846H12.2529C12.2567 11.481 11.8101 11.9842 11.2175 12.0513L8.27165 12.3721C7.63654 12.4366 6.99506 12.3902 6.37582 12.2351L5.3754 11.9842C5.12169 11.9206 4.86112 11.8883 4.59957 11.888H3.49999V6.63799C3.50021 6.44163 3.47768 6.24588 3.43291 6.05466H4.30791C4.81431 6.04868 5.28138 5.78035 5.54165 5.34591L6.57707 3.61925C6.85134 3.1671 6.99754 2.64892 6.99998 2.12009V1.24509C6.99969 1.15683 7.03936 1.07319 7.1079 1.01759C7.17651 0.962065 7.2666 0.940628 7.3529 0.959258H7.39956C7.64839 1.01325 7.86138 1.17298 7.9829 1.39676L8.1579 1.71759C8.41339 2.18564 8.50089 2.72705 8.40581 3.25175L8.20748 4.34842L7.87498 4.33383C7.71391 4.32578 7.57679 4.44984 7.56873 4.61092C7.56067 4.77199 7.68474 4.90911 7.84581 4.91716L11.9875 5.12425C12.4536 5.14758 12.8193 5.53258 12.8187 5.99924V6.05466C12.8187 6.37684 12.5576 6.63799 12.2354 6.63799H11.375C11.2139 6.63799 11.0833 6.76859 11.0833 6.92966C11.0833 7.09073 11.2139 7.22132 11.375 7.22132H13.125C13.286 7.22132 13.4166 7.35192 13.4166 7.51299V7.66757Z" fill="black" fill-opacity="0.8"/>
<path d="M1.45817 11.3046C1.2971 11.3046 1.1665 11.4352 1.1665 11.5963V12.1796C1.1665 12.3407 1.2971 12.4713 1.45817 12.4713C1.61924 12.4713 1.74984 12.3407 1.74984 12.1796V11.5963C1.74984 11.4352 1.61924 11.3046 1.45817 11.3046Z" fill="black" fill-opacity="0.8"/>
</g>
<defs>
<clipPath id="clip0_1422_223">
<rect width="14" height="14" fill="white"/>
</clipPath>
</defs>
</svg>
