<svg width="30" height="30" viewBox="0 0 30 30" fill="none" xmlns="http://www.w3.org/2000/svg">
<g clip-path="url(#clip0_1579_42)">
<path d="M29.9998 28.0435V30H14.9998L14.3477 29.0217L14.9998 28.0435H29.9998Z" fill="#BCC7D4"/>
<path d="M15 28.0435H0V30H15V28.0435Z" fill="#DAE0E7"/>
<path d="M30.0002 0V26.087H26.9839L25.0273 13.0435L26.9839 0H30.0002Z" fill="#3897FF"/>
<path d="M26.9836 0H23.9673V26.087H26.9836V0Z" fill="#8BC0FF"/>
<path d="M22.0109 5.21739V26.087H18.9946L17.0381 15.6522L18.9946 5.21739H22.0109Z" fill="#FFB739"/>
<path d="M18.9943 5.21739H15.978V26.087H18.9943V5.21739Z" fill="#FFD488"/>
<path d="M14.0218 10.4348V26.087H11.0055L9.70117 18.2609L11.0055 10.4348H14.0218Z" fill="#3897FF"/>
<path d="M11.0056 10.4348H7.98926V26.087H11.0056V10.4348Z" fill="#8BC0FF"/>
<path d="M6.03257 15.6522V26.087H3.01626L1.71191 20.8696L3.01626 15.6522H6.03257Z" fill="#FFB739"/>
<path d="M3.0163 15.6522H0V26.087H3.0163V15.6522Z" fill="#FFD488"/>
</g>
<defs>
<clipPath id="clip0_1579_42">
<rect width="30" height="30" fill="white"/>
</clipPath>
</defs>
</svg>
