<svg width="20" height="20" viewBox="0 0 20 20" fill="none" xmlns="http://www.w3.org/2000/svg">
<g clip-path="url(#clip0_1422_256)">
<path d="M18.1138 6.35371L17.2853 0.553281C17.2172 0.0777344 16.6327 -0.119883 16.2908 0.221992L15.084 1.42879C13.5322 0.492656 11.7704 0 9.95876 0C4.51079 0 0.136845 4.26406 0.000673625 9.70746C-0.00674825 10.005 0.209541 10.2602 0.503642 10.3025L2.84509 10.6373C3.19415 10.6882 3.51888 10.4141 3.51403 10.0491C3.46548 6.45648 6.36712 3.51562 9.95876 3.51562C10.8285 3.51562 11.6879 3.69242 12.4822 4.03059L11.3189 5.19387C10.9792 5.53359 11.172 6.11988 11.6502 6.18836L17.4506 7.01691C17.8328 7.07453 18.1686 6.74215 18.1138 6.35371Z" fill="#EBEBEB"/>
<path d="M19.4966 9.7427L17.1569 9.40852C16.8546 9.37024 16.488 9.62926 16.488 10.0391C16.488 13.5931 13.5966 16.4844 10.0427 16.4844C9.17752 16.4844 8.32205 16.3093 7.53072 15.9746L8.65682 14.8485C8.99654 14.5088 8.80373 13.9225 8.32553 13.854L2.5251 13.0249C2.14412 12.9704 1.80674 13.2972 1.8619 13.6881L2.69041 19.4885C2.75862 19.9646 3.3426 20.1609 3.6849 19.8198L4.92088 18.5844C6.46526 19.512 8.22592 20 10.0427 20C15.4643 20 19.8377 15.7572 19.9996 10.3407C20.0082 10.0425 19.7919 9.78505 19.4966 9.7427Z" fill="#EBEBEB"/>
</g>
<defs>
<clipPath id="clip0_1422_256">
<rect width="20" height="20" fill="white"/>
</clipPath>
</defs>
</svg>
