<svg width="30" height="30" viewBox="0 0 30 30" fill="none" xmlns="http://www.w3.org/2000/svg">
<g clip-path="url(#clip0_1574_5)">
<path d="M22.5146 12.182C22.5146 8.03178 19.1502 4.66734 15 4.66734C10.8498 4.66734 7.48535 8.03178 7.48535 12.182C7.48535 15.1531 9.34072 17.3095 10.773 19.6966C12.182 22.0449 12.182 25.8023 12.182 25.8023H17.818C17.818 25.8023 17.818 22.045 19.227 19.6966C20.6593 17.3095 22.5146 15.1531 22.5146 12.182Z" fill="#FDE180"/>
<path d="M9.83367 12.182C9.83367 8.43122 12.5817 5.32253 16.1741 4.75886C15.7915 4.6988 15.3994 4.66734 15 4.66734C10.8498 4.66734 7.48535 8.03178 7.48535 12.182C7.48535 15.1531 9.34072 17.3095 10.773 19.6966C12.182 22.0449 12.182 25.8023 12.182 25.8023H14.5304C14.5304 25.8023 14.5304 22.045 13.1214 19.6966C11.689 17.3095 9.83367 15.1531 9.83367 12.182Z" fill="#FCDA60"/>
<path d="M17.3483 29.5596H12.6516C11.6141 29.5596 10.7729 28.7185 10.7729 27.6809V22.5146H19.227V27.6809C19.227 28.7185 18.3858 29.5596 17.3483 29.5596Z" fill="#6B7B8B"/>
<path d="M12.6516 27.681V22.5146H10.7729V27.6809C10.7729 28.7185 11.6141 29.5596 12.6516 29.5596H14.5303C13.4927 29.5596 12.6516 28.7185 12.6516 27.681Z" fill="#55697A"/>
<path d="M14.9999 4.22701C10.6135 4.22701 7.04492 7.79559 7.04492 12.182C7.04492 14.7075 8.31318 16.6695 9.53972 18.5668C9.82589 19.0094 10.1217 19.4671 10.3954 19.9232C10.7411 20.4993 11.0278 21.2218 11.2499 22.0744H10.7729C10.5297 22.0744 10.3326 22.2716 10.3326 22.5147V27.681C10.3326 28.9597 11.3729 30 12.6515 30H17.3482C18.6269 30 19.6672 28.9597 19.6672 27.681V22.5147C19.6672 22.2716 19.47 22.0744 19.2268 22.0744H18.7505C18.9343 21.3696 19.1624 20.7508 19.4316 20.2328C19.5438 20.0171 19.4597 19.7512 19.244 19.6391C19.0283 19.5269 18.7624 19.6109 18.6503 19.8267C18.3222 20.4579 18.0507 21.2134 17.8419 22.0744H12.1576C11.9079 21.0444 11.5695 20.1686 11.1504 19.4701C10.8692 19.0014 10.5693 18.5374 10.2792 18.0888C9.0688 16.2163 7.92553 14.4477 7.92553 12.182C7.92553 8.28116 11.0991 5.10761 14.9999 5.10761C18.9007 5.10761 22.0742 8.28116 22.0742 12.182C22.0742 14.265 21.0984 15.9499 19.9195 17.7805C19.7879 17.985 19.8469 18.2575 20.0513 18.3891C20.2557 18.5207 20.5282 18.4618 20.6599 18.2573C21.9155 16.3075 22.9548 14.5047 22.9548 12.182C22.9549 7.79559 19.3863 4.22701 14.9999 4.22701ZM18.7866 26.771H11.2132V25.3033H18.7866V26.771H18.7866ZM17.3483 29.1193H12.6516C11.8585 29.1193 11.2132 28.474 11.2132 27.681V27.6516H18.7866V27.681C18.7866 28.474 18.1413 29.1193 17.3483 29.1193ZM18.7866 24.4227H11.2132V22.9549H18.7866V24.4227H18.7866Z" fill="black"/>
<path d="M16.8789 12.1526C17.122 12.1526 17.3192 11.9554 17.3192 11.7123V11.2426C17.3192 10.2229 16.4896 9.39326 15.4699 9.39326H15.4405V8.42459C15.4405 8.18143 15.2433 7.98426 15.0002 7.98426C14.757 7.98426 14.5598 8.18143 14.5598 8.42459V9.40352C13.5067 9.50705 12.6812 10.3976 12.6812 11.4774C12.6812 12.6266 13.6161 13.5616 14.7653 13.5616H15.235C15.8986 13.5616 16.4385 14.1014 16.4385 14.7651C16.4385 15.4287 15.8986 15.9686 15.235 15.9686H14.5305C13.9963 15.9686 13.5618 15.534 13.5618 14.9999C13.5618 14.7567 13.3646 14.5596 13.1215 14.5596C12.8783 14.5596 12.6812 14.7567 12.6812 14.9999C12.6812 16.0196 13.5108 16.8492 14.5305 16.8492H14.5598V17.8179C14.5598 18.0611 14.757 18.2582 15.0002 18.2582C15.2433 18.2582 15.4405 18.0611 15.4405 17.8179V16.839C16.4936 16.7355 17.3192 15.8449 17.3192 14.7651C17.3192 13.6159 16.3843 12.681 15.2351 12.681H14.7654C14.1018 12.681 13.5619 12.1411 13.5619 11.4774C13.5619 10.8138 14.1018 10.2739 14.7654 10.2739H15.4699C16.004 10.2739 16.4385 10.7085 16.4385 11.2426V11.7123C16.4385 11.9555 16.6357 12.1526 16.8789 12.1526Z" fill="black"/>
<path d="M14.9999 1.81998C15.2431 1.81998 15.4402 1.62281 15.4402 1.37965V0.440331C15.4402 0.197168 15.2431 0 14.9999 0C14.7567 0 14.5596 0.197168 14.5596 0.440331V1.37965C14.5596 1.62281 14.7567 1.81998 14.9999 1.81998Z" fill="black"/>
<path d="M8.74793 3.1729C8.87731 3.39702 9.18164 3.46083 9.39053 3.3072C9.56889 3.17607 9.62115 2.92411 9.51059 2.73257L9.0409 1.91912C8.91932 1.70853 8.65002 1.63634 8.43944 1.75798C8.22885 1.87957 8.15672 2.14886 8.2783 2.35945L8.74793 3.1729Z" fill="black"/>
<path d="M5.05162 6.86917L4.23817 6.39948C4.02758 6.27778 3.75829 6.35003 3.6367 6.56061C3.51512 6.7712 3.58725 7.0405 3.79784 7.16208L4.61129 7.63176C4.83588 7.76149 5.13108 7.6637 5.23496 7.42674C5.32385 7.22407 5.24317 6.97973 5.05162 6.86917Z" fill="black"/>
<path d="M3.25855 12.681H2.31924C2.07607 12.681 1.87891 12.8782 1.87891 13.1213C1.87891 13.3645 2.07607 13.5617 2.31924 13.5617H3.25855C3.50172 13.5617 3.69888 13.3645 3.69888 13.1213C3.69888 12.8782 3.50172 12.681 3.25855 12.681Z" fill="black"/>
<path d="M4.61149 18.6108L3.79803 19.0805C3.60649 19.1911 3.52581 19.4354 3.61469 19.6382C3.71852 19.8751 4.01372 19.9729 4.23837 19.8432L5.05182 19.3735C5.26241 19.2519 5.33453 18.9826 5.21295 18.7721C5.09137 18.5614 4.82202 18.4892 4.61149 18.6108Z" fill="black"/>
<path d="M20.6509 3.33404C20.8589 3.45416 21.1325 3.38056 21.2524 3.17291L21.722 2.35945C21.8436 2.14886 21.7715 1.87957 21.5609 1.75799C21.3503 1.63629 21.081 1.70853 20.9594 1.91912L20.4898 2.73257C20.3681 2.94316 20.4403 3.21246 20.6509 3.33404Z" fill="black"/>
<path d="M25.1691 7.69082C25.2437 7.69082 25.3195 7.67178 25.3888 7.63176L26.2023 7.16207C26.4129 7.04049 26.485 6.7712 26.3634 6.56061C26.2418 6.35003 25.9725 6.27784 25.7619 6.39948L24.9485 6.86916C24.7847 6.96373 24.6982 7.15862 24.7382 7.34348C24.7817 7.54387 24.9641 7.69082 25.1691 7.69082Z" fill="black"/>
<path d="M27.6809 12.681H26.7416C26.4984 12.681 26.3013 12.8782 26.3013 13.1213C26.3013 13.3645 26.4984 13.5617 26.7416 13.5617H27.6809C27.9241 13.5617 28.1212 13.3645 28.1212 13.1213C28.1212 12.8782 27.9241 12.681 27.6809 12.681Z" fill="black"/>
<path d="M26.202 19.0805L25.3886 18.6108C25.1779 18.4892 24.9087 18.5614 24.7871 18.7719C24.6655 18.9825 24.7376 19.2518 24.9482 19.3734L25.7617 19.8431C25.9863 19.9728 26.2815 19.875 26.3854 19.6381C26.4742 19.4354 26.3935 19.1911 26.202 19.0805Z" fill="black"/>
</g>
<defs>
<clipPath id="clip0_1574_5">
<rect width="30" height="30" fill="white"/>
</clipPath>
</defs>
</svg>
