<svg width="16" height="16" viewBox="0 0 16 16" fill="none" xmlns="http://www.w3.org/2000/svg">
<g clip-path="url(#clip0_1466_50)">
<path d="M12.3462 9.97692L11.5803 10.7428L11.0064 10.1688C11.8427 9.14769 12.3462 7.84343 12.3462 6.42308C12.3462 3.15709 9.68906 0.5 6.42308 0.5C3.15709 0.5 0.5 3.15709 0.5 6.42308C0.5 9.68906 3.15709 12.3462 6.42308 12.3462C7.84343 12.3462 9.14769 11.8427 10.1688 11.0064L10.7428 11.5803L9.97692 12.3462L13.5308 15.9L15.9 13.5308L12.3462 9.97692ZM6.42308 11.1615C3.80626 11.1615 1.68462 9.03989 1.68462 6.42308C1.68462 3.80626 3.80626 1.68462 6.42308 1.68462C9.03989 1.68462 11.1615 3.80626 11.1615 6.42308C11.1615 9.03989 9.03989 11.1615 6.42308 11.1615ZM11.652 12.3462L12.3462 11.652L14.225 13.5308L13.5308 14.225L11.652 12.3462Z" fill="#111918" fill-opacity="0.8"/>
</g>
<defs>
<clipPath id="clip0_1466_50">
<rect width="16" height="16" fill="white"/>
</clipPath>
</defs>
</svg>
