<svg width="16" height="16" viewBox="0 0 16 16" fill="none" xmlns="http://www.w3.org/2000/svg">
<g clip-path="url(#clip0_1610_479)">
<path d="M6.23188 11.5976L6.0236 11.6373C5.0828 11.8176 4.3999 12.6429 4.3999 13.5999C4.3999 14.7028 5.29695 15.5999 6.39987 15.5999C7.35667 15.5999 8.18226 14.917 8.36225 13.9762L8.40197 13.7679L6.23188 11.5976Z" fill="#BFA779"/>
<path d="M13.306 2.08381C12.5977 1.5121 11.7231 1.2001 10.7999 1.2001C9.73137 1.2001 8.7271 1.61638 7.97164 2.37181C7.94311 2.39981 5.09356 5.20005 0.800023 5.20005L0.450684 5.81632L10.1175 15.4831L10.7999 15.1999C10.7999 10.9072 13.5129 8.14401 13.6281 8.02829C15.0846 6.57178 15.1798 4.263 13.9161 2.69371L13.306 2.08381Z" fill="#FFE98C"/>
<path d="M14.4 0.000152588C13.6134 0.000152588 12.9627 0.568957 12.8286 1.31695C12.2072 0.991358 11.5214 0.800142 10.8001 0.800142C9.62489 0.800142 8.51981 1.25773 7.68891 2.08866C7.66173 2.11584 4.93002 4.80009 0.800196 4.80009C0.476732 4.80009 0.185017 4.99502 0.061019 5.29396C-0.0629793 5.59289 0.00555098 5.93688 0.23436 6.16594L5.46335 11.3949C4.60471 11.76 4.00018 12.6075 4.00018 13.6C4.00018 14.9255 5.07458 15.9999 6.40015 15.9999C7.39373 15.9999 8.23559 15.3914 8.59906 14.5304L9.83451 15.7658C9.98757 15.9186 10.1921 15.9999 10.4004 15.9999C10.5033 15.9999 10.6073 15.9799 10.7062 15.9389C11.0052 15.8152 11.2001 15.5234 11.2001 15.1999C11.2001 11.0701 13.8006 8.42191 13.9113 8.31151C15.3022 6.92059 15.5451 4.83049 14.6809 3.17186C15.4302 3.03852 16 2.38759 16 1.60016C16 0.716393 15.2837 0.000152588 14.4 0.000152588ZM6.40012 15.1999C5.51801 15.1999 4.80014 14.4821 4.80014 13.6C4.80014 12.8208 5.36067 12.172 6.09906 12.0304L7.96969 13.9008C7.82838 14.6394 7.1793 15.1999 6.40012 15.1999ZM13.3456 7.74564C12.6766 8.41469 10.4001 11.2 10.4001 15.1999C6.40012 11.2 4.00015 8.80003 0.800196 5.60008C4.80014 5.60008 7.67798 3.23105 8.2545 2.65452C8.95743 1.95159 9.87876 1.60013 10.8001 1.60013C11.7214 1.60013 12.6427 1.95159 13.3456 2.65452C14.7515 4.06035 14.7515 6.33979 13.3456 7.74564ZM14.4 2.40012C14.3003 2.40012 14.2069 2.37665 14.119 2.34306C14.0472 2.25959 13.9904 2.16787 13.9112 2.08866C13.8323 2.00972 13.7401 1.95131 13.6566 1.87931C13.6235 1.79185 13.6001 1.69904 13.6001 1.60013C13.6001 1.15907 13.959 0.800142 14.4 0.800142C14.8411 0.800142 15.2 1.15907 15.2 1.60013C15.2 2.04119 14.8411 2.40012 14.4 2.40012Z" fill="#573A32"/>
</g>
<defs>
<clipPath id="clip0_1610_479">
<rect width="16" height="16" fill="white"/>
</clipPath>
</defs>
</svg>
