<svg width="20" height="20" viewBox="0 0 20 20" fill="none" xmlns="http://www.w3.org/2000/svg">
<g clip-path="url(#clip0_1412_214)">
<path fill-rule="evenodd" clip-rule="evenodd" d="M2.99999 4.28572C2.44799 4.28572 2.00001 3.85905 2.00001 3.33334C2.00001 2.80763 2.44799 2.38096 2.99999 2.38096C3.55199 2.38096 4.00001 2.80763 4.00001 3.33334C4.00001 3.85905 3.55199 4.28572 2.99999 4.28572ZM4.00001 0.476196H2.00001C0.895006 0.476196 0 1.32858 0 2.38096V4.28572C0 5.3381 0.895006 6.19048 2.00001 6.19048H4.00001C5.10501 6.19048 5.99999 5.3381 5.99999 4.28572V2.38096C5.99999 1.32858 5.10501 0.476196 4.00001 0.476196ZM2.99999 10.9524C2.44799 10.9524 2.00001 10.5257 2.00001 10C2.00001 9.47429 2.44799 9.04763 2.99999 9.04763C3.55199 9.04763 4.00001 9.47429 4.00001 10C4.00001 10.5257 3.55199 10.9524 2.99999 10.9524ZM4.00001 7.14286H2.00001C0.895006 7.14286 0 7.99524 0 9.04763V10.9524C0 12.0048 0.895006 12.8571 2.00001 12.8571H4.00001C5.10501 12.8571 5.99999 12.0048 5.99999 10.9524V9.04763C5.99999 7.99524 5.10501 7.14286 4.00001 7.14286ZM2.99999 17.6191C2.44799 17.6191 2.00001 17.1924 2.00001 16.6667C2.00001 16.141 2.44799 15.7143 2.99999 15.7143C3.55199 15.7143 4.00001 16.141 4.00001 16.6667C4.00001 17.1924 3.55199 17.6191 2.99999 17.6191ZM4.00001 13.8095H2.00001C0.895006 13.8095 0 14.6619 0 15.7143V17.6191C0 18.6714 0.895006 19.5238 2.00001 19.5238H4.00001C5.10501 19.5238 5.99999 18.6714 5.99999 17.6191V15.7143C5.99999 14.6619 5.10501 13.8095 4.00001 13.8095ZM17 10.9524H11C10.448 10.9524 10 10.5257 10 10C10 9.47429 10.448 9.04763 11 9.04763H17C17.552 9.04763 18 9.47429 18 10C18 10.5257 17.552 10.9524 17 10.9524ZM18 7.14286H10C8.895 7.14286 7.99999 7.99524 7.99999 9.04763V10.9524C7.99999 12.0048 8.895 12.8571 10 12.8571H18C19.105 12.8571 20 12.0048 20 10.9524V9.04763C20 7.99524 19.105 7.14286 18 7.14286ZM17 4.28572H11C10.448 4.28572 10 3.85905 10 3.33334C10 2.80763 10.448 2.38096 11 2.38096H17C17.552 2.38096 18 2.80763 18 3.33334C18 3.85905 17.552 4.28572 17 4.28572ZM18 0.476196H10C8.895 0.476196 7.99999 1.32858 7.99999 2.38096V4.28572C7.99999 5.3381 8.895 6.19048 10 6.19048H18C19.105 6.19048 20 5.3381 20 4.28572V2.38096C20 1.32858 19.105 0.476196 18 0.476196ZM17 17.6191H11C10.448 17.6191 10 17.1924 10 16.6667C10 16.141 10.448 15.7143 11 15.7143H17C17.552 15.7143 18 16.141 18 16.6667C18 17.1924 17.552 17.6191 17 17.6191ZM18 13.8095H10C8.895 13.8095 7.99999 14.6619 7.99999 15.7143V17.6191C7.99999 18.6714 8.895 19.5238 10 19.5238H18C19.105 19.5238 20 18.6714 20 17.6191V15.7143C20 14.6619 19.105 13.8095 18 13.8095Z" fill="black"/>
</g>
<defs>
<clipPath id="clip0_1412_214">
<rect width="20" height="20" fill="white"/>
</clipPath>
</defs>
</svg>
