<svg width="82" height="33" viewBox="0 0 82 33" fill="none" xmlns="http://www.w3.org/2000/svg">
<g clip-path="url(#clip0_1652_5)">
<path fill-rule="evenodd" clip-rule="evenodd" d="M5.6498 3.84196C5.56005 3.83256 5.4757 3.84982 5.39675 3.89375C5.49753 3.92562 5.58448 3.97908 5.6576 4.05413C5.48786 4.06037 5.31812 4.06661 5.14839 4.07285C5.36037 4.15549 5.56255 4.26137 5.75494 4.39048C5.62252 4.48593 5.54233 4.61635 5.51438 4.78175C5.55497 5.02527 5.56433 5.27988 5.54245 5.54557C5.39774 5.53727 5.25681 5.55662 5.11967 5.6036C5.37289 5.68985 5.62854 5.70877 5.8866 5.66039C5.7831 5.60859 5.78154 5.56616 5.88193 5.53309C5.98953 5.57504 6.09063 5.62798 6.1852 5.69191C6.24233 5.64517 6.28268 5.58703 6.30627 5.51749C6.17752 5.46774 6.08953 5.38599 6.0423 5.27224C5.84025 5.0426 5.8623 4.87183 6.10845 4.75991C6.24757 4.81038 6.39058 4.84761 6.53748 4.87162C6.66768 5.24672 6.73788 5.22998 6.74809 4.82139C6.64435 4.7068 6.51445 4.64076 6.35838 4.62325C6.57656 4.54988 6.78925 4.55623 6.99645 4.64229C7.02266 4.58467 7.04888 4.52706 7.07508 4.46943C7.12907 4.69582 7.09444 4.90955 6.97118 5.11063C7.07818 5.14545 7.14735 5.10042 7.17867 4.97553C7.23794 5.03729 7.30971 5.06298 7.39396 5.05259C7.33695 5.2318 7.34319 5.40154 7.41268 5.5618C7.30191 5.69576 7.2081 5.84085 7.13123 5.99707C6.8505 5.94398 6.56552 5.8978 6.27631 5.85852C6.07038 5.91845 5.85717 5.89796 5.63668 5.79705C5.39155 5.82362 5.13747 5.84713 4.87442 5.86756C4.78587 5.95206 4.68945 6.02643 4.58518 6.09065C4.44909 6.7966 4.34779 7.50852 4.28126 8.2264C4.29166 8.50929 4.30206 8.79219 4.31246 9.07508C4.23586 9.30502 4.15931 9.53445 4.08281 9.76339C3.81893 9.46935 3.59261 9.47767 3.40386 9.78834C3.13383 9.89197 2.99966 10.0952 3.00136 10.398C2.86251 10.4213 2.73417 10.3977 2.61633 10.3272C2.61146 10.6868 2.55425 11.0572 2.44471 11.4383C2.39029 11.6415 2.27922 11.7022 2.11148 11.6205C2.08948 11.3546 2.13617 11.0838 2.25158 10.808C2.07467 10.5401 2.00769 10.2593 2.05065 9.96556C2.08806 9.78767 2.13841 9.61586 2.20167 9.45011C2.16156 9.4164 2.13171 9.37501 2.11212 9.32593C2.16604 9.07384 2.19911 8.81768 2.21135 8.55743C2.24506 8.51732 2.28645 8.48748 2.33553 8.46788C2.47453 8.72308 2.65258 8.94316 2.8697 9.12811C2.94474 9.055 2.99821 8.96805 3.03007 8.86727C2.80951 8.25919 2.58809 7.62996 2.36581 6.97957C2.30353 6.57976 2.46443 6.33306 2.8485 6.23947C2.95003 6.10819 3.0297 5.96363 3.08751 5.80577C2.89018 5.55438 2.71057 5.29187 2.54866 5.01824C2.62187 4.57476 2.85037 4.24059 3.23417 4.01574C3.2635 4.04298 3.29283 4.07023 3.32216 4.09748C3.70386 3.9162 4.123 3.75915 4.57958 3.62635C4.94523 3.70097 5.30197 3.77284 5.6498 3.84196Z" fill="#A22331"/>
<path fill-rule="evenodd" clip-rule="evenodd" d="M15.1107 4.59898C15.1943 4.58132 15.2519 4.60754 15.2835 4.67761C15.1549 4.81844 15.1046 4.99026 15.1325 5.19305C15.062 5.10144 15.0154 4.98984 14.9927 4.85826C14.9786 4.98098 14.9404 5.0957 14.8779 5.20241C14.777 5.07232 14.7576 4.93139 14.8199 4.77963C14.9006 4.66336 14.9854 4.66024 15.0745 4.77027C15.112 4.71838 15.1241 4.66128 15.1107 4.59898Z" fill="#DDA7AA"/>
<path fill-rule="evenodd" clip-rule="evenodd" d="M15.2842 4.67763C15.4549 4.69968 15.6257 4.72174 15.7965 4.74378C15.8211 4.8756 15.8819 4.98668 15.9787 5.07702C15.9818 5.16189 15.9849 5.24675 15.9881 5.33162C15.8231 5.36306 15.713 5.45209 15.6579 5.59871C15.5731 5.60183 15.4882 5.60495 15.4033 5.60806C15.3778 5.42513 15.2878 5.2868 15.1331 5.19308C15.1052 4.99029 15.1556 4.81847 15.2842 4.67763Z" fill="#F8F4F4"/>
<path opacity="0.306" fill-rule="evenodd" clip-rule="evenodd" d="M17.5845 4.84802C17.6432 4.90252 17.7018 4.95702 17.7605 5.01152C17.7828 5.11056 17.7576 5.19646 17.685 5.26924C17.5994 5.14107 17.5659 5.00065 17.5845 4.84802Z" fill="#D98183"/>
<path fill-rule="evenodd" clip-rule="evenodd" d="M14.3689 5.22115C14.3622 5.37117 14.3958 5.51158 14.4693 5.64237C14.2622 5.83192 14.2685 6.00166 14.4881 6.15158C14.5601 5.95636 14.6671 5.78246 14.8088 5.62989C14.7483 5.49486 14.7006 5.35497 14.6659 5.21023C14.5775 5.14238 14.4774 5.11773 14.3658 5.13628C14.3557 4.66512 14.604 4.48603 15.1109 4.59899C15.1243 4.66129 15.1122 4.7184 15.0747 4.77029C14.9856 4.66026 14.9008 4.66337 14.8201 4.77965C14.7578 4.93141 14.7772 5.07233 14.8781 5.20243C14.9405 5.09572 14.9788 4.981 14.9929 4.85828C15.0156 4.98986 15.0622 5.10146 15.1327 5.19307C15.2873 5.28679 15.3774 5.42512 15.4029 5.60806C15.4878 5.60494 15.5726 5.60182 15.6575 5.5987C15.4884 5.72944 15.3317 5.70687 15.1876 5.53099C15.1417 5.72423 15.0337 5.86983 14.8637 5.96781C14.8414 6.07621 14.8027 6.17678 14.7473 6.26953C14.7766 6.29677 14.806 6.32403 14.8353 6.35127C14.6911 6.37317 14.5496 6.37837 14.411 6.36687C14.488 6.42424 14.5471 6.49288 14.5885 6.5728C14.3246 6.57646 14.0559 6.58634 13.7823 6.60244C13.452 6.46658 13.1241 6.40782 12.7985 6.42614C12.7236 6.37033 12.6645 6.30169 12.621 6.22021C12.7782 6.13741 12.9307 6.04682 13.0784 5.94845C13.3795 5.9098 13.6781 5.94131 13.9742 6.043C13.8734 5.96904 13.885 5.8978 14.0088 5.82927C14.0602 5.68573 14.055 5.54429 13.9932 5.40492C13.8525 5.57443 13.6828 5.58067 13.484 5.42364C13.033 5.6849 12.5652 5.67376 12.0805 5.39024C12.0564 4.73121 11.7835 4.62794 11.2618 5.08041C11.2325 5.05316 11.2031 5.02591 11.1738 4.99866C10.5247 5.47276 9.84409 5.83771 9.13199 6.09351C8.82575 6.04517 8.51301 6.01417 8.19376 6.00052C7.83678 5.75488 7.57022 5.43891 7.39407 5.05261C7.30982 5.063 7.23806 5.0373 7.17878 4.97554C7.14746 5.10043 7.07829 5.14547 6.97129 5.11064C7.09455 4.90956 7.12918 4.69583 7.07519 4.46945C7.04899 4.52707 7.02277 4.58468 6.99656 4.64231C6.78936 4.55624 6.57667 4.5499 6.35849 4.62327C6.51456 4.64077 6.64446 4.70682 6.7482 4.8214C6.73799 5.22999 6.66779 5.24674 6.53759 4.87163C6.39069 4.84763 6.24768 4.81039 6.10856 4.75993C5.86241 4.87184 5.84036 5.04262 6.04241 5.27226C6.08964 5.38601 6.17763 5.46776 6.30638 5.51751C6.28279 5.58705 6.24244 5.64518 6.18531 5.69192C6.09074 5.628 5.98964 5.57506 5.88204 5.5331C5.78165 5.56617 5.78321 5.60861 5.88671 5.66041C5.62865 5.70879 5.373 5.68986 5.11978 5.60361C5.25692 5.55663 5.39785 5.53729 5.54256 5.54558C5.56444 5.27989 5.55508 5.02529 5.51449 4.78177C5.54244 4.61636 5.62263 4.48594 5.75505 4.3905C5.56266 4.26139 5.36048 4.15551 5.1485 4.07286C5.31823 4.06662 5.48797 4.06038 5.65771 4.05415C5.58459 3.9791 5.49764 3.92564 5.39686 3.89377C5.47581 3.84984 5.56016 3.83257 5.64991 3.84197C6.45043 3.82919 7.2598 3.88443 8.07802 4.00767C8.29626 3.95365 8.52362 3.97362 8.76008 4.06758C8.82515 4.05289 8.88069 4.02252 8.9267 3.97648C9.28659 4.08946 9.65753 4.16081 10.0393 4.19053C10.2576 4.1365 10.4849 4.15647 10.7214 4.25044C10.9273 4.19051 11.1405 4.211 11.361 4.31191C11.4166 4.28154 11.4721 4.25117 11.5277 4.2208C11.861 4.34299 12.1234 4.54581 12.3149 4.82924C12.6582 4.88135 12.9992 4.9113 13.338 4.91911C13.351 4.77893 13.318 4.65267 13.2391 4.54032C13.4938 4.38948 13.7358 4.42307 13.9651 4.64111C14.1643 4.52346 14.266 4.59054 14.27 4.84236C14.1581 5.02387 14.191 5.15013 14.3689 5.22115Z" fill="#AA2230"/>
<path fill-rule="evenodd" clip-rule="evenodd" d="M13.4264 5.00083C13.5946 5.03275 13.626 5.11658 13.5207 5.25232C13.4429 5.18507 13.4115 5.10124 13.4264 5.00083Z" fill="#EFD9D5"/>
<path fill-rule="evenodd" clip-rule="evenodd" d="M6.04288 5.27223C6.02238 4.98317 6.15966 4.86482 6.45474 4.91716C6.48583 5.25905 6.34854 5.37741 6.04288 5.27223Z" fill="#F3E1E3"/>
<path fill-rule="evenodd" clip-rule="evenodd" d="M14.3656 5.13626C14.4773 5.1177 14.5774 5.14236 14.6658 5.21021C14.7005 5.35495 14.7482 5.49484 14.8087 5.62987C14.6669 5.78244 14.56 5.95634 14.4879 6.15156C14.2684 6.00164 14.2621 5.8319 14.4692 5.64235C14.3957 5.51155 14.3621 5.37114 14.3688 5.22112C14.3677 5.19284 14.3667 5.16454 14.3656 5.13626Z" fill="#F6EDED"/>
<path fill-rule="evenodd" clip-rule="evenodd" d="M15.9785 5.07703C16.0804 5.16773 16.1967 5.24844 16.3273 5.31915C16.2199 5.41876 16.1066 5.42292 15.9879 5.33163C15.9848 5.24676 15.9816 5.16189 15.9785 5.07703Z" fill="#DF9999"/>
<path fill-rule="evenodd" clip-rule="evenodd" d="M15.7956 4.74381C16.1316 4.68604 16.3909 4.80399 16.5735 5.09764C16.7893 5.18885 17.0051 5.28006 17.2209 5.37128C17.472 5.2961 17.5375 5.15205 17.4175 4.93914C17.4578 4.79787 17.5134 4.7675 17.5841 4.84803C17.5655 5.00067 17.599 5.14108 17.6846 5.26925C17.7572 5.19647 17.7823 5.11057 17.7601 5.01153C17.9789 4.98922 18.2053 4.9809 18.439 4.98657C18.4707 5.05664 18.5282 5.08286 18.6119 5.0652C18.7 5.16098 18.8153 5.2134 18.9576 5.22246C19.2524 5.05692 19.3828 5.1371 19.3489 5.46303C19.3174 5.57092 19.2488 5.6301 19.1429 5.64056C19.482 5.76 19.5459 5.95595 19.3345 6.2284C19.6476 6.30365 19.6812 6.44405 19.435 6.64963C19.3685 6.57762 19.3229 6.49432 19.2983 6.3997C19.2471 6.49897 19.1796 6.58644 19.0955 6.6621C19.2618 6.75053 19.4075 6.85849 19.5323 6.98598C19.2768 6.96707 19.0363 6.9759 18.8109 7.0125C18.3522 6.97409 17.9106 6.90534 17.4861 6.80624C17.5003 6.63855 17.4663 6.484 17.3841 6.34259C17.5587 6.26884 17.7108 6.16412 17.8399 6.02839C17.8611 5.74221 17.7893 5.71652 17.6247 5.95132C17.5954 5.92407 17.566 5.89682 17.5367 5.86957C17.6163 5.725 17.7253 5.60769 17.8637 5.51762C17.7869 5.42843 17.7015 5.4174 17.6075 5.48455C17.506 5.6942 17.3562 5.85551 17.1579 5.96848C17.0057 5.91174 16.8491 5.88917 16.688 5.90077C16.6911 5.98564 16.6942 6.0705 16.6973 6.15537C16.8101 6.16568 16.9081 6.13374 16.9913 6.05959C17.0394 6.22546 17.0598 6.39468 17.0524 6.56724C17.1373 6.56412 17.2222 6.561 17.307 6.55788C17.3101 6.64275 17.3133 6.72761 17.3164 6.81248C17.1184 6.81976 16.9203 6.82704 16.7223 6.83432C16.7054 6.69695 16.7583 6.59586 16.8811 6.53104C16.6752 6.48505 16.5222 6.5615 16.4221 6.76037C15.83 6.72063 15.2187 6.65811 14.5881 6.57283C14.5467 6.49291 14.4876 6.42427 14.4106 6.3669C14.5492 6.37841 14.6907 6.37321 14.8349 6.35131C14.8056 6.32406 14.7762 6.2968 14.7469 6.26956C14.8022 6.17681 14.841 6.07624 14.8633 5.96784C15.0333 5.86986 15.1413 5.72426 15.1872 5.53102C15.3313 5.7069 15.488 5.72947 15.6571 5.59873C15.7121 5.45212 15.8222 5.36309 15.9872 5.33165C16.106 5.42294 16.2192 5.41878 16.3267 5.31917C16.196 5.24845 16.0798 5.16774 15.9778 5.07704C15.881 4.9867 15.8203 4.87563 15.7956 4.74381Z" fill="#B2232F"/>
<path fill-rule="evenodd" clip-rule="evenodd" d="M19.1431 5.64054C19.0582 5.64366 18.9733 5.64678 18.8885 5.6499C18.8843 5.53674 18.8801 5.42358 18.876 5.31042C18.9891 5.30627 19.1023 5.3021 19.2155 5.29795C19.2257 5.42154 19.2016 5.53574 19.1431 5.64054Z" fill="#F1DFE0"/>
<path opacity="0.663" fill-rule="evenodd" clip-rule="evenodd" d="M20.0678 5.35161C20.1612 5.41197 20.1785 5.49631 20.1196 5.60466C20.0113 5.76514 19.8892 5.91127 19.7533 6.04304C19.6512 5.76564 19.5549 5.45757 19.4643 5.11884C19.185 5.05116 18.9011 5.03326 18.6125 5.06517C18.5289 5.08283 18.4713 5.05661 18.4397 4.98654C18.6816 4.91355 18.921 4.87642 19.1579 4.87516C19.3117 4.9324 19.4694 4.98325 19.631 5.02774C19.6837 5.18839 19.7041 5.3576 19.6921 5.53539C19.9205 5.75042 20.0458 5.68916 20.0678 5.35161Z" fill="#BF4954"/>
<path opacity="0.792" fill-rule="evenodd" clip-rule="evenodd" d="M10.8261 5.94627C11.0949 5.90887 11.1981 6.01839 11.1356 6.27482C10.9575 6.26054 10.7878 6.26678 10.6264 6.29354C10.5677 6.23904 10.5656 6.18246 10.6201 6.1238C10.7028 6.07267 10.7714 6.01349 10.8261 5.94627Z" fill="#AF3F47"/>
<path fill-rule="evenodd" clip-rule="evenodd" d="M18.6126 5.0652C18.9011 5.03329 19.185 5.05119 19.4644 5.11887C19.5549 5.4576 19.6512 5.76567 19.7533 6.04307C19.8892 5.9113 20.0113 5.76517 20.1196 5.60469C20.1785 5.49634 20.1612 5.412 20.0678 5.35164C20.0643 5.16096 20.133 5.10178 20.2737 5.1741C20.4884 5.0082 20.7289 4.99936 20.9951 5.14759C21.2088 5.07602 21.422 5.09651 21.6347 5.20906C21.6807 5.16302 21.7363 5.13265 21.8014 5.11795C22.4492 5.21956 23.1181 5.30828 23.8082 5.38412C23.8008 5.55668 23.8212 5.72589 23.8694 5.89177C23.9699 5.83953 24.0668 5.77931 24.1602 5.71111C24.0691 5.59958 23.98 5.48955 23.8931 5.381C24.3628 5.34239 24.8327 5.4101 25.3028 5.58413C25.4257 5.47362 25.553 5.46894 25.6847 5.57009C25.6423 5.63049 25.5873 5.67501 25.5197 5.70363C25.5402 5.73677 25.5691 5.74987 25.6061 5.74295C25.3139 5.90844 25.2101 6.1672 25.2947 6.51924C25.1524 6.38672 25.0471 6.22063 24.9789 6.02095C24.8014 6.21426 24.6389 6.41852 24.4916 6.63375C24.4042 6.48736 24.3041 6.46271 24.1914 6.5598C24.1643 6.73329 24.1433 6.93235 24.1284 7.15699C23.951 7.16873 23.8268 7.25828 23.7558 7.42564C23.6576 7.32633 23.5585 7.32997 23.4588 7.43656C23.2284 7.33049 23.0011 7.31052 22.7767 7.37664C22.5463 7.27058 22.319 7.25061 22.0946 7.31673C21.2379 7.21208 20.384 7.10183 19.533 6.98598C19.4081 6.85848 19.2625 6.75053 19.0962 6.6621C19.1802 6.58643 19.2478 6.49897 19.299 6.3997C19.3236 6.49431 19.3692 6.57762 19.4356 6.64962C19.6818 6.44405 19.6483 6.30365 19.3352 6.2284C19.5465 5.95594 19.4827 5.76 19.1436 5.64056C19.2494 5.63009 19.3181 5.57092 19.3495 5.46302C19.3834 5.1371 19.253 5.05691 18.9583 5.22246C18.8159 5.2134 18.7007 5.16097 18.6126 5.0652Z" fill="#B91F2B"/>
<path fill-rule="evenodd" clip-rule="evenodd" d="M23.8929 5.381C23.9798 5.48955 24.0688 5.59958 24.16 5.71111C24.0666 5.77931 23.9696 5.83953 23.8692 5.89177C23.821 5.72589 23.8006 5.55668 23.808 5.38412C23.8321 5.26992 23.8605 5.26888 23.8929 5.381Z" fill="#F0D1D1"/>
<path opacity="0.02" fill-rule="evenodd" clip-rule="evenodd" d="M27.0487 5.68989C26.7639 5.68634 26.4815 5.71088 26.2016 5.76352C26.2805 5.87587 26.3135 6.00213 26.3005 6.14231C26.0233 6.16489 25.8211 6.05901 25.6939 5.82467C25.8597 5.88166 26.0184 5.96081 26.1701 6.06212C26.1935 5.92981 26.1469 5.81821 26.0303 5.72733C26.0539 5.65778 26.0943 5.59965 26.1513 5.55291C26.4465 5.55606 26.7456 5.60172 27.0487 5.68989Z" fill="#C34551"/>
<path fill-rule="evenodd" clip-rule="evenodd" d="M16.2799 6.34066C16.7065 6.31073 16.7238 6.39508 16.3317 6.59371C16.2878 6.51476 16.2706 6.43041 16.2799 6.34066Z" fill="#F3DEDE"/>
<path fill-rule="evenodd" clip-rule="evenodd" d="M18.0648 6.36006C18.4108 6.3234 18.4553 6.37843 18.1983 6.52511C18.1098 6.4998 18.0653 6.44478 18.0648 6.36006Z" fill="#EECDCA"/>
<path fill-rule="evenodd" clip-rule="evenodd" d="M17.4865 6.8062C17.4298 6.80828 17.3733 6.81036 17.3167 6.81244C17.3136 6.72757 17.3105 6.6427 17.3074 6.55784C17.2225 6.56096 17.1376 6.56408 17.0528 6.56719C17.0602 6.39464 17.0398 6.22542 16.9916 6.05954C16.9084 6.1337 16.8104 6.16563 16.6977 6.15533C16.6946 6.07046 16.6914 5.98559 16.6883 5.90073C16.8495 5.88913 17.0061 5.9117 17.1582 5.96844C17.3565 5.85546 17.5063 5.69416 17.6078 5.4845C17.7018 5.41736 17.7872 5.42839 17.864 5.51758C17.7256 5.60765 17.6167 5.72496 17.537 5.86953C17.5663 5.89678 17.5957 5.92403 17.625 5.95128C17.7896 5.71648 17.8615 5.74216 17.8403 6.02835C17.7111 6.16407 17.5591 6.2688 17.3844 6.34255C17.4666 6.48395 17.5006 6.6385 17.4865 6.8062Z" fill="#F0D9D8"/>
<path fill-rule="evenodd" clip-rule="evenodd" d="M31.5654 6.03374C32.02 6.09614 32.4474 6.16541 32.8478 6.24155C33.059 6.18249 33.2701 6.14641 33.4812 6.13329C33.6841 6.24065 33.8832 6.26166 34.0784 6.19632C34.3148 6.29029 34.5421 6.31026 34.7604 6.25623C35.272 6.32935 35.7843 6.3955 36.2974 6.45468C36.5157 6.40066 36.743 6.42063 36.9795 6.5146C37.1978 6.46057 37.4251 6.48054 37.6616 6.57451C37.7266 6.55981 37.7822 6.52944 37.8282 6.4834C38.5449 6.66593 39.2422 6.7536 39.9199 6.74644C39.6255 6.84208 39.3144 6.85352 38.9864 6.78076C38.9845 7.08975 38.8866 7.12168 38.6925 6.87655C38.542 6.97633 38.4693 6.92235 38.474 6.71461C38.2174 6.71005 37.9633 6.73355 37.7118 6.78512C37.8147 6.94904 37.9335 7.10047 38.0684 7.23942C37.9759 7.33663 37.9041 7.31094 37.8531 7.16235C37.754 7.24848 37.7147 7.3349 37.7352 7.42163C37.5853 7.20779 37.5439 7.23765 37.611 7.51118C37.7583 7.57442 37.8332 7.68498 37.8356 7.84285C37.7459 7.83345 37.6616 7.85071 37.5826 7.89465C37.7217 7.95075 37.8484 7.93192 37.963 7.83817C38.1707 8.13485 38.3273 8.15742 38.4328 7.90589C38.5504 8.05199 38.6787 8.0756 38.8179 7.97672C38.8331 8.00448 38.8482 8.03226 38.8634 8.06002C38.2611 8.13867 38.2364 8.23872 38.7895 8.36018C38.5519 8.38912 38.3246 8.36915 38.1074 8.30027C38.2226 8.35269 38.2247 8.40927 38.1137 8.47001C38.4929 8.62141 38.8606 8.60789 39.2169 8.42945C39.1017 8.37703 38.9864 8.32462 38.8712 8.2722C39.4792 8.32256 40.0779 8.42803 40.6675 8.58859C40.7683 8.62046 40.8552 8.67392 40.9283 8.74897C40.9909 8.58322 41.0271 8.41193 41.0369 8.23508C41.0739 8.49053 41.2075 8.65559 41.4376 8.73025C41.2282 8.77764 40.9898 8.84306 40.7224 8.92651C40.5096 8.81396 40.2964 8.79347 40.0828 8.86503C39.7029 8.81603 39.3179 8.7452 38.9277 8.65254C37.9489 8.66613 36.9683 8.5747 35.9857 8.37826C35.2854 8.38769 34.5897 8.34245 33.8986 8.24252C33.6927 8.30244 33.4795 8.28196 33.259 8.18105C33.2034 8.21141 33.1479 8.24179 33.0924 8.27215C32.8858 8.24459 32.7129 8.16596 32.5738 8.03627C32.5047 7.69887 32.4482 7.70095 32.4041 8.0425C32.4175 8.10481 32.4054 8.16191 32.3679 8.2138C32.0578 8.11028 31.7303 8.06567 31.3857 8.07994C31.1885 7.95955 30.9722 7.85419 30.7367 7.76386C30.6978 7.38213 30.7551 7.01176 30.9083 6.65277C30.8405 6.45886 30.7488 6.27811 30.6334 6.11049C30.8291 6.07421 31.0145 6.10988 31.1897 6.21751C31.3255 6.16163 31.4507 6.10037 31.5654 6.03374Z" fill="#C61925"/>
<path fill-rule="evenodd" clip-rule="evenodd" d="M33.5356 6.47124C33.9468 6.51878 34.0682 6.74095 33.9001 7.13771C33.6629 7.4373 33.3952 7.47546 33.0969 7.25221C32.9552 6.89444 33.0752 6.69173 33.457 6.64409C33.4857 6.58495 33.5119 6.52734 33.5356 6.47124Z" fill="#F8EFEF"/>
<path fill-rule="evenodd" clip-rule="evenodd" d="M25.6056 5.7429C25.6622 5.74082 25.6915 5.76806 25.6936 5.82465C25.8207 6.05899 26.023 6.16486 26.3001 6.14228C26.3131 6.0021 26.2801 5.87584 26.2012 5.7635C26.4812 5.71086 26.7635 5.68631 27.0483 5.68987C27.0766 5.68883 27.1049 5.68778 27.1332 5.68675C27.1415 5.91306 27.1498 6.13937 27.1582 6.36569C27.2947 6.38343 27.4068 6.35099 27.4945 6.26835C27.5183 6.21224 27.5445 6.15463 27.5731 6.09549C27.4764 6.03402 27.4167 5.95123 27.394 5.84712C27.4768 5.78742 27.5596 5.72773 27.6424 5.66803C28.9911 5.80742 30.2987 5.92932 31.5651 6.03374C31.4504 6.10037 31.3252 6.16163 31.1894 6.21751C31.0142 6.10988 30.8287 6.07421 30.6331 6.11049C30.7485 6.27811 30.8402 6.45886 30.908 6.65278C30.7548 7.01176 30.6975 7.38213 30.7363 7.76386C30.9718 7.85419 31.1882 7.95955 31.3853 8.07994C30.7854 8.07058 30.1741 8.00806 29.5513 7.8924C29.5078 7.86568 29.4644 7.83894 29.4209 7.81222C29.5412 7.63156 29.6476 7.44353 29.7401 7.24809C29.6908 7.17133 29.6317 7.10269 29.5625 7.04216C29.3685 7.08056 29.1846 7.08732 29.0109 7.06244C28.9899 7.2615 28.9689 7.46057 28.9479 7.65964C28.8651 7.71934 28.7823 7.77903 28.6995 7.83873C28.4818 7.8154 28.2554 7.82372 28.0206 7.86369C27.6536 7.77558 27.2958 7.67542 26.9472 7.56321C26.7787 7.58398 26.6352 7.5326 26.5166 7.40907C26.299 7.50729 26.0732 7.52976 25.8393 7.47646C25.7011 7.46152 25.6137 7.39391 25.5769 7.27365C25.623 7.16436 25.6613 7.04965 25.6917 6.9295C25.9358 6.95521 25.9473 6.88397 25.7263 6.71576C25.7535 6.68644 25.7808 6.6571 25.8081 6.62778C25.6352 6.59125 25.4639 6.55505 25.2942 6.51919C25.2096 6.16715 25.3134 5.90838 25.6056 5.7429Z" fill="#BF1B28"/>
<path fill-rule="evenodd" clip-rule="evenodd" d="M26.8373 6.88743C26.9937 6.89353 27.024 6.94907 26.9284 7.05404C26.8593 7.01776 26.8289 6.96221 26.8373 6.88743Z" fill="#E1B6AB"/>
<path fill-rule="evenodd" clip-rule="evenodd" d="M27.7467 6.17417C27.9149 6.20609 27.9463 6.28992 27.841 6.42566C27.7632 6.35841 27.7318 6.27458 27.7467 6.17417Z" fill="#EDB7AB"/>
<path fill-rule="evenodd" clip-rule="evenodd" d="M29.1859 6.03622C29.2991 6.03206 29.4123 6.0279 29.5254 6.02374C29.5945 6.36113 29.4582 6.50778 29.1167 6.46368C29.0997 6.31206 29.1228 6.16957 29.1859 6.03622Z" fill="#F0D1D1"/>
<path fill-rule="evenodd" clip-rule="evenodd" d="M27.1338 5.68677C27.3035 5.68053 27.4733 5.67429 27.643 5.66805C27.5602 5.72775 27.4774 5.78744 27.3946 5.84715C27.2489 5.94191 27.1975 6.08544 27.2405 6.27773C27.3254 6.27461 27.4102 6.27149 27.4951 6.26837C27.4074 6.35101 27.2953 6.38345 27.1587 6.36571C27.1504 6.1394 27.1421 5.91309 27.1338 5.68677Z" fill="#CC555F"/>
<path fill-rule="evenodd" clip-rule="evenodd" d="M26.6372 6.04499C26.9165 6.02017 26.9469 6.07571 26.7283 6.21161C26.6592 6.17532 26.6288 6.11978 26.6372 6.04499Z" fill="#EEC5C3"/>
<path fill-rule="evenodd" clip-rule="evenodd" d="M27.3941 5.84714C27.4167 5.95124 27.4764 6.03403 27.5731 6.0955C27.5445 6.15464 27.5183 6.21225 27.4945 6.26836C27.4097 6.27148 27.3248 6.2746 27.2399 6.27772C27.1969 6.08544 27.2483 5.9419 27.3941 5.84714Z" fill="#F8EEED"/>
<path opacity="0.608" fill-rule="evenodd" clip-rule="evenodd" d="M25.5767 7.27369C25.6135 7.39396 25.701 7.46157 25.8391 7.47651C26.0731 7.52981 26.2989 7.50734 26.5165 7.40911C26.6351 7.53265 26.7785 7.58402 26.9471 7.56325C26.8127 7.78661 26.6572 7.79233 26.4803 7.58041C26.1717 7.70097 25.8449 7.6705 25.4996 7.48898C25.3777 7.36931 25.4034 7.29755 25.5767 7.27369Z" fill="#C64857"/>
<path fill-rule="evenodd" clip-rule="evenodd" d="M35.4376 7.33613C35.5638 7.22204 35.7052 7.21684 35.8619 7.32053C35.7241 7.42472 35.5826 7.42992 35.4376 7.33613Z" fill="#E4878B"/>
<path fill-rule="evenodd" clip-rule="evenodd" d="M36.6256 7.2925C36.8369 7.32275 36.8541 7.40709 36.6774 7.54554C36.6334 7.4666 36.6162 7.38225 36.6256 7.2925Z" fill="#F2C6BC"/>
<path fill-rule="evenodd" clip-rule="evenodd" d="M31.9645 7.63377C32.122 7.68241 32.1534 7.76624 32.0587 7.88525C31.981 7.818 31.9496 7.73417 31.9645 7.63377Z" fill="#ECB2B0"/>
<path opacity="0.776" fill-rule="evenodd" clip-rule="evenodd" d="M32.5736 8.03627C32.517 8.03835 32.4605 8.04043 32.4039 8.04251C32.448 7.70095 32.5045 7.69888 32.5736 8.03627Z" fill="#FAD9D8"/>
<path fill-rule="evenodd" clip-rule="evenodd" d="M39.9197 6.7465C40.264 6.68087 40.6055 6.72496 40.9443 6.8788C41.158 6.80724 41.3712 6.82773 41.584 6.94028C41.7806 6.87541 41.9797 6.89643 42.1812 7.00331C42.2271 6.95727 42.2827 6.9269 42.3478 6.9122C42.7525 6.99767 43.1527 7.09628 43.5484 7.208C44.3223 7.10366 45.1306 7.1306 45.9734 7.28883C46.3323 7.36991 46.6759 7.47059 47.0043 7.59087C47.078 7.87579 47.1922 7.89991 47.3469 7.66326C47.5201 7.89284 47.7344 7.94161 47.9896 7.8096C48.2242 7.95753 48.4657 7.97697 48.7141 7.86795C48.6707 7.84123 48.6272 7.81449 48.5837 7.78776C48.2497 7.75329 47.9218 7.69453 47.5999 7.61147C48.1115 7.58285 48.6223 7.60656 49.1322 7.68262C49.1354 7.76749 49.1385 7.85235 49.1416 7.93722C49.2304 7.92125 49.3158 7.93228 49.3978 7.9703C48.9025 8.05591 48.8784 8.17011 49.3254 8.31289C49.0399 8.84651 49.1938 9.18078 49.7872 9.31571C50.1582 9.34734 50.1855 9.31801 49.8689 9.22773C50.0722 9.17914 50.2712 9.20015 50.4661 9.29076C50.3823 9.32216 50.2984 9.35358 50.2146 9.38498C50.4381 9.47845 50.6675 9.555 50.9029 9.61463C50.4646 9.66459 50.0377 9.60946 49.6221 9.44926C49.2446 9.49635 48.8779 9.53816 48.5219 9.57468C48.1776 9.64031 47.8361 9.59622 47.4973 9.44238C47.4482 9.46197 47.4068 9.49181 47.3731 9.53192C47.146 9.41277 46.9186 9.3928 46.691 9.47201C46.4639 9.35286 46.2365 9.33288 46.0089 9.4121C45.7818 9.29295 45.5544 9.27297 45.3269 9.35219C45.0998 9.23304 44.8724 9.21306 44.6448 9.29228C44.2727 9.22324 43.9018 9.15189 43.5322 9.07822C43.3139 9.13225 43.0866 9.11228 42.8501 9.01831C42.785 9.03301 42.7295 9.06338 42.6835 9.10942C42.3105 8.79169 41.8951 8.66532 41.4373 8.73031C41.2072 8.65565 41.0737 8.49059 41.0367 8.23514C41.0269 8.41198 40.9907 8.58328 40.9281 8.74903C40.855 8.67398 40.768 8.62052 40.6672 8.58865C40.0777 8.42808 39.4789 8.32262 38.871 8.27225C38.9862 8.32468 39.1015 8.37709 39.2167 8.42951C38.8604 8.60795 38.4926 8.62147 38.1134 8.47007C38.2244 8.40933 38.2224 8.35275 38.1072 8.30033C38.3244 8.3692 38.5516 8.38917 38.7892 8.36024C38.2361 8.23878 38.2608 8.13873 38.8632 8.06008C38.848 8.03232 38.8328 8.00454 38.8176 7.97677C38.6785 8.07566 38.5501 8.05205 38.4326 7.90594C38.327 8.15748 38.1704 8.13491 37.9627 7.83823C37.8482 7.93198 37.7214 7.95081 37.5823 7.8947C37.6613 7.85077 37.7456 7.83351 37.8354 7.84291C37.8329 7.68504 37.758 7.57448 37.6107 7.51124C37.5437 7.2377 37.5851 7.20785 37.7349 7.42169C37.7144 7.33496 37.7537 7.24853 37.8529 7.1624C37.9038 7.311 37.9756 7.33669 38.0682 7.23947C37.9333 7.10053 37.8144 6.9491 37.7115 6.78518C37.9631 6.73361 38.2171 6.71011 38.4738 6.71467C38.469 6.9224 38.5418 6.97639 38.6922 6.8766C38.8863 7.12174 38.9842 7.08981 38.9861 6.78082C39.3141 6.85357 39.6252 6.84214 39.9197 6.7465Z" fill="#D11824"/>
<path fill-rule="evenodd" clip-rule="evenodd" d="M38.6621 7.21759C38.747 7.21447 38.8318 7.21135 38.9167 7.20823C38.9209 7.32139 38.925 7.43455 38.9292 7.54771C38.8443 7.55082 38.7595 7.55394 38.6746 7.55706C38.6704 7.44391 38.6663 7.33075 38.6621 7.21759Z" fill="#F3BCBF"/>
<path opacity="0.192" fill-rule="evenodd" clip-rule="evenodd" d="M45.9736 7.28882C46.5477 7.27018 47.1156 7.30597 47.6772 7.39616C47.5662 7.4569 47.4551 7.51764 47.344 7.57838C47.2267 7.46938 47.1135 7.47354 47.0045 7.59086C46.6762 7.47058 46.3325 7.3699 45.9736 7.28882Z" fill="#D84450"/>
<path fill-rule="evenodd" clip-rule="evenodd" d="M43.0065 7.48288C43.1331 7.47099 43.2201 7.52445 43.2673 7.64326C43.2028 7.78256 43.0916 7.84329 42.9341 7.82547C42.9239 7.70189 42.948 7.58768 43.0065 7.48288Z" fill="#F8E0DC"/>
<path fill-rule="evenodd" clip-rule="evenodd" d="M47.3436 7.57837C47.3446 7.60666 47.3456 7.63495 47.3467 7.66324C47.192 7.89989 47.0778 7.87576 47.0041 7.59085C47.1131 7.47353 47.2263 7.46937 47.3436 7.57837Z" fill="#F5C9CB"/>
<path fill-rule="evenodd" clip-rule="evenodd" d="M44.2885 7.69065C44.4448 7.69676 44.4752 7.75229 44.3796 7.85727C44.3104 7.82098 44.2801 7.76544 44.2885 7.69065Z" fill="#F2B6AC"/>
<path fill-rule="evenodd" clip-rule="evenodd" d="M3.40383 9.78836C3.37589 10.012 3.2983 10.2131 3.17107 10.3918C3.11448 10.3939 3.05791 10.396 3.00133 10.398C2.99963 10.0952 3.1338 9.89199 3.40383 9.78836Z" fill="#E1B6BA"/>
<path fill-rule="evenodd" clip-rule="evenodd" d="M42.8675 8.33776C42.9806 8.3336 43.0939 8.32944 43.207 8.32528C43.2363 8.48112 43.1839 8.59636 43.0497 8.67099C42.9104 8.60641 42.8497 8.49533 42.8675 8.33776Z" fill="#F4CECC"/>
<path fill-rule="evenodd" clip-rule="evenodd" d="M2.29762 9.74404C2.40612 9.81092 2.46687 9.92199 2.47983 10.0773C2.46984 10.1909 2.45986 10.3046 2.44988 10.4183C2.41617 10.4584 2.37477 10.4883 2.32569 10.5079C2.2308 10.2587 2.22144 10.0041 2.29762 9.74404Z" fill="#F0E0E0"/>
<path fill-rule="evenodd" clip-rule="evenodd" d="M3.40402 9.78837C3.73011 9.84698 4.0051 10.0068 4.22899 10.2679C4.30006 10.4873 4.22039 10.6319 3.98998 10.7016C3.89173 10.6023 3.79272 10.606 3.69294 10.7126C3.51658 10.6049 3.34269 10.4979 3.17125 10.3918C3.29849 10.2131 3.37608 10.012 3.40402 9.78837Z" fill="#A32634"/>
<path fill-rule="evenodd" clip-rule="evenodd" d="M47.6774 7.39615C51.5597 7.73039 55.3398 8.07301 59.0179 8.42402C59.2131 8.57024 59.4168 8.71855 59.6291 8.86896C59.4454 8.90502 59.2741 8.86882 59.1152 8.76037C58.9249 8.86199 58.73 8.95413 58.5305 9.03681C58.4244 9.26717 58.4045 9.49451 58.4706 9.71888C58.3159 9.81195 58.2073 9.94339 58.1452 10.1133C57.8787 10.2349 57.5973 10.2877 57.3012 10.2718C57.0588 10.3583 56.8173 10.3388 56.5767 10.2134C56.5307 10.2595 56.4751 10.2898 56.41 10.3045C55.7934 10.2495 55.1668 10.1593 54.5305 10.0337C54.4845 10.0797 54.4289 10.1101 54.3638 10.1248C53.3175 9.969 52.2949 9.89328 51.2961 9.89761C50.3564 9.76401 49.4317 9.65636 48.5223 9.57465C48.8783 9.53814 49.245 9.49633 49.6225 9.44923C50.038 9.60944 50.465 9.66457 50.9033 9.61461C50.6679 9.55498 50.4384 9.47843 50.215 9.38496C50.2988 9.35355 50.3826 9.32214 50.4665 9.29073C50.2716 9.20012 50.0725 9.17912 49.8693 9.2277C50.1858 9.31799 50.1586 9.34731 49.7875 9.31569C49.1941 9.18076 49.0403 8.84648 49.3257 8.31287C48.8787 8.17008 48.9028 8.05589 49.3981 7.97027C49.3162 7.93226 49.2308 7.92123 49.142 7.9372C49.1388 7.85233 49.1357 7.76746 49.1326 7.68259C48.6226 7.60654 48.1119 7.58282 47.6003 7.61144C47.9222 7.6945 48.2501 7.75327 48.5841 7.78774C48.6276 7.81447 48.671 7.8412 48.7145 7.86793C48.466 7.97695 48.2246 7.9575 47.99 7.80958C47.7347 7.94159 47.5205 7.89282 47.3472 7.66324C47.3462 7.63495 47.3452 7.60665 47.3441 7.57837C47.4552 7.51763 47.5663 7.45689 47.6774 7.39615Z" fill="#D0222B"/>
<path opacity="0.879" fill-rule="evenodd" clip-rule="evenodd" d="M12.1733 10.2308C13.0424 10.1656 13.857 10.3623 14.617 10.8209C15.5299 11.8781 15.3803 12.8184 14.1683 13.6418C15.4407 14.5486 15.5635 15.578 14.5368 16.7302C14.2218 16.9104 13.887 17.0502 13.5324 17.1495C13.0701 17.1596 12.6033 17.1768 12.1321 17.201C11.5258 17.0518 10.978 16.7887 10.4884 16.4116C10.2708 16.0562 10.1022 15.7083 9.98261 15.3679C10.0505 15.2065 10.1479 15.1605 10.275 15.2296C10.3578 15.1699 10.4405 15.1103 10.5233 15.0505C10.6931 15.0443 10.8628 15.0381 11.0325 15.0318C11.1153 14.9721 11.1981 14.9125 11.2809 14.8527C11.3884 15.1917 11.5842 15.5102 11.8684 15.8084C12.1413 15.8626 12.4127 15.9235 12.6825 15.991C13.5254 15.9443 13.821 15.5085 13.5692 14.6836C13.3628 14.5128 13.1314 14.3797 12.8747 14.2843C12.497 14.4102 12.2513 14.2776 12.1377 13.8864C12.2504 13.6418 12.2698 13.4002 12.1961 13.1619C12.4344 13.1837 12.6613 13.1894 12.8766 13.1794C13.702 12.952 13.9248 12.4622 13.5449 11.7101C13.1269 11.3478 12.6858 11.2932 12.2217 11.5463C12.0131 11.7559 11.8229 11.9753 11.651 12.2047C11.1869 12.0345 10.7563 11.8804 10.3592 11.7422C10.7043 10.8679 11.3089 10.3641 12.1733 10.2308Z" fill="#D11A25"/>
<path opacity="0.588" fill-rule="evenodd" clip-rule="evenodd" d="M3.11134 11.0739C3.49166 11.1065 3.5393 11.2464 3.25424 11.4935C3.16388 11.3672 3.11625 11.2274 3.11134 11.0739Z" fill="#9D3342"/>
<path fill-rule="evenodd" clip-rule="evenodd" d="M59.0176 8.42399C60.2751 8.5158 61.5826 8.6377 62.9403 8.7897C62.978 8.84964 63.0361 8.89 63.1147 8.91077C63.0591 8.94113 63.0036 8.97151 62.948 9.00187C63.2908 9.02883 63.606 9.13055 63.8941 9.30703C63.6769 9.24737 63.4496 9.2274 63.212 9.24712C63.2617 9.30688 63.2926 9.37657 63.3047 9.45617C63.2489 9.81209 63.1613 10.1269 63.042 10.4006C62.8718 10.3008 62.7393 10.164 62.6445 9.99034C62.6507 10.1601 62.6569 10.3298 62.6632 10.4995C62.5675 10.4041 62.4927 10.2935 62.4385 10.1679C62.3845 10.279 62.4023 10.3775 62.4919 10.4634C62.3833 10.4877 62.2969 10.4483 62.2326 10.3454C62.1615 10.2381 62.073 10.1421 61.9671 10.0577C61.5942 9.84716 61.2056 9.67734 60.8011 9.5482C60.5165 9.82542 60.2587 10.1323 60.0276 10.469C59.6795 10.5028 59.3406 10.5295 59.0107 10.5488C58.6115 10.4785 58.2124 10.4082 57.8132 10.3379C57.6292 10.424 57.4584 10.4019 57.3009 10.2717C57.597 10.2877 57.8784 10.2349 58.1449 10.1132C58.207 9.94337 58.3156 9.81193 58.4703 9.71885C58.4042 9.49449 58.4241 9.26714 58.5302 9.03679C58.7297 8.95411 58.9246 8.86196 59.1149 8.76035C59.2738 8.8688 59.4451 8.90499 59.6288 8.86893C59.4165 8.71853 59.2128 8.57022 59.0176 8.42399Z" fill="#CE2D33"/>
<path opacity="0.895" fill-rule="evenodd" clip-rule="evenodd" d="M18.5669 10.7607C18.8454 10.7328 19.1304 10.7789 19.4218 10.8993C19.6828 10.8174 19.9253 10.8652 20.1495 11.0425C20.8264 13.2578 21.5168 15.4704 22.2206 17.68C22.1969 17.7495 22.1566 17.8077 22.0995 17.8544C21.7373 17.7516 21.3664 17.6802 20.9869 17.6404C20.7797 17.7271 20.6352 17.6474 20.5532 17.4014C20.5258 17.2381 20.4777 17.0841 20.4087 16.9393C20.4864 16.8389 20.455 16.7551 20.3145 16.6878C20.3417 16.6585 20.369 16.6291 20.3962 16.5998C20.2745 16.439 20.1969 16.2577 20.1638 16.056C20.1178 16.102 20.0622 16.1323 19.9972 16.1471C19.2574 16.061 18.5178 15.9748 17.7781 15.8887C17.4942 16.3431 17.2426 16.8197 17.0233 17.3187C16.8466 17.3059 16.6774 17.3262 16.5157 17.3798C16.2853 17.2737 16.058 17.2538 15.8336 17.3199C15.7135 17.2933 15.626 17.2256 15.5712 17.1171C16.5923 14.9945 17.5908 12.8757 18.5669 10.7607ZM18.2861 14.6803C18.5607 13.9842 18.8611 13.2933 19.1872 12.6075C19.3727 13.3448 19.5836 14.0735 19.8199 14.7938C19.4688 14.8039 19.1152 14.8169 18.7591 14.8328C18.6027 14.7754 18.4451 14.7245 18.2861 14.6803Z" fill="#D11A25"/>
<path fill-rule="evenodd" clip-rule="evenodd" d="M62.9405 8.78973C63.2207 8.81587 63.4895 8.80599 63.7467 8.76009C64.5806 8.91377 65.4062 9.02506 66.2235 9.09397C66.414 9.02501 66.5989 9.04654 66.7783 9.15856C67.1 9.27328 67.4415 9.31738 67.8029 9.29086C67.7882 9.53683 67.906 9.65998 68.1564 9.66029C67.9708 9.83156 67.8937 10.0468 67.9252 10.3062C67.8121 10.3103 67.6989 10.3145 67.5858 10.3186C67.579 10.5166 67.5293 10.7025 67.4363 10.8765C67.5238 10.9441 67.6112 11.0118 67.6987 11.0793C67.6624 11.1485 67.6068 11.1788 67.5321 11.1704C67.4403 11.1771 67.3565 11.2086 67.2806 11.2647C66.9035 11.1749 66.5325 11.1035 66.168 11.0506C65.9436 11.1167 65.7163 11.0968 65.4859 10.9907C65.2722 11.0623 65.059 11.0418 64.8463 10.9292C64.6187 11.0085 64.3913 10.9884 64.1642 10.8693C64.1182 10.9154 64.0626 10.9457 63.9976 10.9604C63.6449 10.897 63.2891 10.8535 62.9305 10.8297C62.6196 10.773 62.3592 10.6267 62.1495 10.391C62.1676 10.3564 62.1954 10.3413 62.2328 10.3454C62.2971 10.4484 62.3835 10.4877 62.4921 10.4634C62.4025 10.3775 62.3847 10.279 62.4387 10.1679C62.4929 10.2936 62.5678 10.4041 62.6634 10.4996C62.6572 10.3298 62.6509 10.1601 62.6447 9.99036C62.7395 10.1641 62.872 10.3009 63.0422 10.4007C63.1616 10.1269 63.2492 9.81212 63.3049 9.4562C63.2928 9.3766 63.2619 9.30691 63.2122 9.24714C63.4498 9.22742 63.6771 9.24739 63.8943 9.30706C63.6063 9.13057 63.291 9.02885 62.9483 9.0019C63.0038 8.97153 63.0593 8.94116 63.1149 8.91079C63.0363 8.89002 62.9782 8.84966 62.9405 8.78973Z" fill="#CD3538"/>
<path opacity="0.137" fill-rule="evenodd" clip-rule="evenodd" d="M3.80927 11.5581C4.02761 11.7784 4.05112 12.0325 3.87978 12.3204C3.60846 12.0922 3.58495 11.8382 3.80927 11.5581Z" fill="#B23F49"/>
<path opacity="0.884" fill-rule="evenodd" clip-rule="evenodd" d="M23.4289 11.2618C23.8707 11.2583 24.3254 11.2983 24.793 11.3817C24.8356 11.9104 24.8549 12.4337 24.8507 12.9517C24.7411 13.3148 24.6692 13.6715 24.6351 14.0219C24.6665 14.1058 24.7252 14.1603 24.8111 14.1854C25.3348 13.8622 25.6718 13.3966 25.822 12.7886C26.0476 12.431 26.3043 12.0958 26.5924 11.7829C27.1423 11.5875 27.7066 11.5242 28.2851 11.5932C28.3055 11.9153 28.3174 12.2406 28.3209 12.5692C28.2288 12.6268 28.1314 12.6729 28.0286 12.7074C27.8449 12.6417 27.6741 12.6197 27.5163 12.6413C27.4287 12.8055 27.3177 12.8662 27.183 12.8235C26.9489 13.312 26.712 13.8023 26.4722 14.2943C26.3172 14.4614 26.1379 14.5955 25.9346 14.6965C26.2036 14.8098 26.4225 14.9859 26.5914 15.2248C27.0384 16.2434 27.4572 17.2337 27.8479 18.1955C27.8212 18.239 27.7944 18.2824 27.7677 18.3259C27.6787 18.2159 27.5938 18.219 27.5131 18.3353C27.083 18.2868 26.6555 18.2176 26.2307 18.1275C25.907 17.2911 25.5663 16.4963 25.2082 15.743C25.1867 15.4196 24.995 15.2142 24.6332 15.1268C24.509 15.2548 24.4995 15.3826 24.6048 15.5103C24.5187 16.25 24.4325 16.9896 24.3464 17.7293C24.3612 17.7944 24.3915 17.85 24.4376 17.8959C24.2528 17.9953 24.0563 18.045 23.8482 18.0451C23.5174 18.0203 23.2032 17.9468 22.9052 17.8248C22.984 17.3592 23.0517 16.8893 23.1084 16.4151C23.0928 15.9908 23.0772 15.5664 23.0616 15.1421C23.1716 14.795 23.2435 14.4383 23.2772 14.0719C23.2469 14.0163 23.2164 13.9608 23.1861 13.9052C23.2661 13.5171 23.337 13.132 23.3986 12.7502C23.3525 12.7042 23.3222 12.6486 23.3075 12.5835C23.3794 12.146 23.4198 11.7054 23.4289 11.2618Z" fill="#D11A25"/>
<path fill-rule="evenodd" clip-rule="evenodd" d="M65.8695 9.8718C66.0259 9.87787 66.0562 9.93344 65.9606 10.0384C65.8915 10.0021 65.8612 9.94655 65.8695 9.8718Z" fill="#E9BDAD"/>
<path fill-rule="evenodd" clip-rule="evenodd" d="M64.7571 9.65777C65.2347 9.57048 65.383 9.74916 65.2017 10.1938C64.7165 10.3085 64.5683 10.1297 64.7571 9.65777Z" fill="#F6ECEB"/>
<path fill-rule="evenodd" clip-rule="evenodd" d="M72.7599 10.0435C72.7033 10.0456 72.674 10.0183 72.6719 9.96173C72.7323 9.86832 72.8167 9.85103 72.925 9.90994C72.8481 9.93639 72.7931 9.9809 72.7599 10.0435Z" fill="#FCEEEB"/>
<path opacity="0.192" fill-rule="evenodd" clip-rule="evenodd" d="M3.08283 12.6046C3.08491 12.6612 3.08699 12.7177 3.08907 12.7743C2.99569 12.8925 2.93859 12.8805 2.91777 12.7381C2.94308 12.6497 2.9981 12.6052 3.08283 12.6046Z" fill="#A24656"/>
<path fill-rule="evenodd" clip-rule="evenodd" d="M3.0791 12.5198C3.19226 12.5156 3.30542 12.5115 3.41858 12.5073C3.42273 12.6204 3.42689 12.7336 3.43105 12.8468C3.3179 12.8509 3.20473 12.8551 3.09158 12.8592C3.09054 12.831 3.0895 12.8026 3.08846 12.7744C3.08638 12.7178 3.0843 12.6613 3.08222 12.6046C3.08118 12.5764 3.08014 12.548 3.0791 12.5198Z" fill="#F1DDDD"/>
<path opacity="0.895" fill-rule="evenodd" clip-rule="evenodd" d="M29.0528 11.65C29.7333 11.6692 30.4295 11.7286 31.1414 11.8282C31.3597 11.7742 31.587 11.7941 31.8235 11.8881C33.1187 11.8607 33.8928 12.4979 34.1458 13.7998C34.1112 14.2423 34 14.6855 33.8122 15.1293C33.1035 15.9797 32.2076 16.2676 31.1245 15.993C30.9331 16.0517 30.734 16.0307 30.5273 15.9299C30.4068 16.007 30.28 16.0259 30.147 15.9864C30.1763 16.0136 30.2056 16.0409 30.2349 16.0682C30.162 16.5764 30.0959 17.0887 30.0365 17.6052C30.0512 17.6702 30.0815 17.7258 30.1276 17.7718C30.0456 17.9772 29.9968 18.1915 29.9813 18.4145C29.5691 18.4105 29.1432 18.3836 28.7036 18.334C28.5167 18.0994 28.5074 17.8448 28.6755 17.5702C28.6294 17.5242 28.5991 17.4687 28.5844 17.4036C28.7923 15.4928 28.9484 13.575 29.0528 11.65ZM30.3788 13.046C30.508 13.0259 30.6484 12.9924 30.8 12.9455C31.2116 13.0043 31.6249 13.0741 32.04 13.1549C32.7791 13.6493 32.7989 14.1867 32.0993 14.7674C31.6784 14.7784 31.2541 14.794 30.8262 14.8142C30.2588 14.8186 30.1226 14.5828 30.4178 14.1068C30.3905 13.7379 30.3775 13.3843 30.3788 13.046Z" fill="#D11A25"/>
<path fill-rule="evenodd" clip-rule="evenodd" d="M72.6594 9.62224C72.5633 9.74993 72.5674 9.86314 72.6719 9.96171C72.6739 10.0183 72.7032 10.0455 72.7599 10.0435C72.9042 10.0962 72.965 10.2073 72.9421 10.3767C72.8289 10.3809 72.7157 10.385 72.6026 10.3892C72.6057 10.474 72.6088 10.5589 72.612 10.6438C72.4677 10.5147 72.2959 10.4644 72.0965 10.4928C72.1007 10.6059 72.1048 10.7191 72.109 10.8322C72.0011 10.9779 71.893 11.1234 71.7851 11.2691C71.5855 11.2463 71.4037 11.3097 71.2397 11.4591C71.0498 11.3936 70.8628 11.3155 70.6787 11.2247C70.0597 11.4394 69.4232 11.4628 68.7692 11.2949C68.5509 11.3489 68.3236 11.329 68.0871 11.235C67.8966 11.304 67.7117 11.2825 67.5323 11.1704C67.6071 11.1788 67.6626 11.1485 67.6989 11.0793C67.6115 11.0117 67.524 10.9441 67.4365 10.8765C67.5295 10.7025 67.5793 10.5166 67.586 10.3186C67.6991 10.3145 67.8123 10.3103 67.9255 10.3061C67.8939 10.0468 67.971 9.83154 68.1567 9.66027C67.9062 9.65996 67.7884 9.53681 67.8032 9.29084C67.4418 9.31736 67.1002 9.27326 66.7785 9.15854C66.8912 9.16884 66.9892 9.13691 67.0724 9.06275C67.9016 9.21862 68.7414 9.32939 69.5916 9.39507C69.8896 9.73917 70.2556 10.0657 70.6899 10.3745C70.7526 10.1777 70.8019 9.97759 70.8378 9.77418C70.8787 9.68633 70.9474 9.62721 71.0438 9.59664C71.2571 9.55013 71.4683 9.51407 71.6772 9.48837C72.005 9.63796 72.3325 9.68261 72.6594 9.62224Z" fill="#CC3B3E"/>
<path fill-rule="evenodd" clip-rule="evenodd" d="M69.1891 10.0047C69.274 10.0016 69.3588 9.99849 69.4437 9.99537C69.4479 10.1085 69.452 10.2217 69.4562 10.3348C69.3431 10.339 69.2298 10.3432 69.1167 10.3473C69.1065 10.2237 69.1306 10.1095 69.1891 10.0047Z" fill="#F2DDDB"/>
<path fill-rule="evenodd" clip-rule="evenodd" d="M61.1297 10.386C61.5853 10.4256 61.6319 10.5371 61.2695 10.7208C61.1654 10.6761 61.0643 10.6231 60.9662 10.5619C61.0271 10.5018 61.0816 10.4431 61.1297 10.386Z" fill="#CC3A3E"/>
<path fill-rule="evenodd" clip-rule="evenodd" d="M73.0869 9.69153C73.4389 9.66406 73.7804 9.70819 74.1115 9.82383C74.3359 9.75771 74.5632 9.77766 74.7936 9.88375C75.018 9.81763 75.2453 9.83757 75.4757 9.94366C75.6893 9.87207 75.9025 9.89262 76.1153 10.0051C76.3428 9.92589 76.5702 9.94592 76.7974 10.065C77.0073 10.0064 77.2205 10.027 77.437 10.1265C77.7484 10.2287 78.0643 10.3446 78.3846 10.4741C78.1511 10.4999 77.9101 10.4946 77.6616 10.4582C77.5029 10.8511 77.3619 11.2528 77.2385 11.6635C77.2852 11.7206 77.3434 11.7609 77.4129 11.7846C76.7544 11.9692 76.1416 11.8643 75.5742 11.4697C75.4209 11.5187 75.4093 11.59 75.5396 11.6835C75.7032 11.7601 75.875 11.8105 76.0551 11.8345C75.9508 11.858 75.8675 11.9036 75.8051 11.9711C75.2984 11.9984 74.8406 11.8735 74.4316 11.5967C74.2692 11.7262 74.0885 11.8178 73.8894 11.8716C73.6186 11.7898 73.3468 11.7149 73.0737 11.6466C73.1847 11.5448 73.1686 11.4887 73.0251 11.4784C72.9387 11.5102 72.8983 11.5683 72.904 11.6529C72.6494 11.5641 72.3917 11.4886 72.1308 11.4263C72.1518 11.2273 72.2609 11.1099 72.4578 11.0744C72.4355 10.8998 72.3868 10.7316 72.3118 10.5699C72.2428 10.6634 72.1753 10.7509 72.109 10.8323C72.1048 10.7191 72.1007 10.6059 72.0965 10.4928C72.2959 10.4645 72.4677 10.5147 72.612 10.6438C72.781 10.79 72.9821 10.8676 73.2154 10.8766C73.5002 10.7003 73.5213 10.5013 73.2784 10.2794C73.2471 10.1955 73.1884 10.141 73.1025 10.1159C72.9841 9.97856 72.9789 9.83717 73.0869 9.69153Z" fill="#CB4243"/>
<path fill-rule="evenodd" clip-rule="evenodd" d="M73.1017 10.1158C73.1876 10.141 73.2463 10.1955 73.2777 10.2793C73.0371 10.4967 72.9784 10.4422 73.1017 10.1158Z" fill="#F4DFDC"/>
<path fill-rule="evenodd" clip-rule="evenodd" d="M72.6591 9.62225C72.8113 9.66059 72.9538 9.68365 73.0865 9.69152C72.9786 9.83715 72.9838 9.97854 73.1021 10.1159C72.9788 10.4422 73.0375 10.4967 73.2781 10.2794C73.521 10.5012 73.4999 10.7003 73.2151 10.8766C73.0729 10.6845 72.8718 10.6069 72.6117 10.6438C72.6085 10.5589 72.6054 10.474 72.6023 10.3892C72.7154 10.385 72.8286 10.3809 72.9418 10.3767C72.9647 10.2073 72.9039 10.0962 72.7596 10.0435C72.7928 9.98089 72.8477 9.93638 72.9246 9.90993C72.8163 9.85102 72.732 9.86831 72.6716 9.96172C72.5672 9.86315 72.563 9.74994 72.6591 9.62225Z" fill="#D05C5B"/>
<path opacity="0.882" fill-rule="evenodd" clip-rule="evenodd" d="M35.3602 12.183C37.0063 12.2921 38.6533 12.4015 40.3013 12.5113C40.3012 12.9136 40.2592 13.3117 40.1752 13.7057C40.1093 13.7447 40.0395 13.7756 39.9662 13.7983C38.8699 13.6618 37.8038 13.5593 36.768 13.491C36.6342 13.6567 36.6121 13.8274 36.7019 14.0033C36.6033 14.2835 36.5567 14.5544 36.5618 14.8158C37.6548 14.9115 38.7627 14.9982 39.8857 15.076C39.8717 15.5136 39.8025 15.9411 39.6778 16.3584C38.5884 16.2781 37.5365 16.1751 36.5221 16.0495C36.4159 16.6165 36.366 17.1848 36.3723 17.7547C36.3996 17.7254 36.4269 17.696 36.4541 17.6667C36.6669 17.7792 36.8801 17.7997 37.0937 17.7281C37.3014 17.8228 37.5005 17.8439 37.6909 17.7912C38.2161 17.8602 38.7425 17.9259 39.2703 17.9881C39.4763 17.9281 39.6895 17.9486 39.91 18.0495C39.9516 18.2625 39.9878 18.4736 40.0182 18.6829C39.9723 18.8837 39.8942 19.0708 39.7839 19.2439C39.5041 19.2693 39.219 19.2231 38.929 19.1054C38.7153 19.177 38.5021 19.1564 38.2894 19.0439C38.2556 19.084 38.2143 19.1139 38.1652 19.1335C37.64 19.0644 37.1136 18.9988 36.5857 18.9366C36.3675 18.9906 36.1402 18.9706 35.9037 18.8767C35.8386 18.8914 35.783 18.9217 35.7371 18.9678C35.4377 18.8351 35.1381 18.7754 34.8381 18.7884C34.7787 18.581 34.7992 18.3678 34.8996 18.1487C34.8994 17.1638 34.9757 16.1553 35.1284 15.1234C35.0744 14.9051 35.0943 14.6778 35.1883 14.4413C35.123 14.2462 35.1439 14.0471 35.2513 13.8441C35.2052 13.7982 35.1749 13.7426 35.1602 13.6775C35.2305 13.1763 35.2972 12.6781 35.3602 12.183Z" fill="#D11A25"/>
<path fill-rule="evenodd" clip-rule="evenodd" d="M72.6115 10.6438C72.8716 10.607 73.0728 10.6846 73.2149 10.8766C72.9817 10.8676 72.7806 10.79 72.6115 10.6438Z" fill="#F3DFDD"/>
<path fill-rule="evenodd" clip-rule="evenodd" d="M72.4574 11.0743C72.2605 11.1099 72.1514 11.2273 72.1304 11.4263C71.9343 11.5736 71.819 11.5211 71.7847 11.269C71.8927 11.1234 72.0007 10.9778 72.1086 10.8322C72.1749 10.7508 72.2424 10.6634 72.3114 10.5698C72.3864 10.7316 72.4351 10.8998 72.4574 11.0743Z" fill="#F6E6E3"/>
<path fill-rule="evenodd" clip-rule="evenodd" d="M73.3847 10.8703C73.4735 10.8544 73.5589 10.8653 73.6408 10.9034C73.549 11.0978 73.4427 11.2858 73.3216 11.4675C73.245 11.3653 73.1844 11.2542 73.1394 11.1343C73.2013 11.0291 73.272 11.0265 73.3516 11.1265C73.3896 11.0445 73.4006 10.9591 73.3847 10.8703Z" fill="#E08E89"/>
<path fill-rule="evenodd" clip-rule="evenodd" d="M72.457 11.0744C72.5419 11.0713 72.6268 11.0682 72.7116 11.065C72.6602 11.3907 72.5753 11.3938 72.457 11.0744Z" fill="#E2A8A7"/>
<path fill-rule="evenodd" clip-rule="evenodd" d="M73.8217 11.1942C73.978 11.2003 74.0084 11.2558 73.9128 11.3608C73.8436 11.3245 73.8133 11.2689 73.8217 11.1942Z" fill="#F0D8C6"/>
<path opacity="0.884" fill-rule="evenodd" clip-rule="evenodd" d="M41.4962 12.6373C42.3303 12.6914 43.1972 12.7728 44.0972 12.8817C44.3155 12.8277 44.5428 12.8476 44.7793 12.9416C44.8443 12.9269 44.8999 12.8965 44.9459 12.8505C45.318 12.9195 45.6889 12.9908 46.0585 13.0645C46.3122 13.0309 46.5809 13.021 46.8648 13.0349C46.8493 13.2579 46.8005 13.4722 46.7184 13.6776C46.734 14.102 46.7496 14.5263 46.7652 14.9507C46.6556 15.3137 46.5837 15.6704 46.5496 16.0209C46.6157 16.2453 46.5958 16.4726 46.4897 16.7029C46.5613 16.9166 46.5408 17.1298 46.4282 17.3426C46.4743 17.3885 46.5046 17.4441 46.5193 17.5092C46.43 18.2036 46.3564 18.9002 46.2987 19.5994C46.2687 19.6793 46.2142 19.738 46.1352 19.7754C45.8219 19.7302 45.5087 19.6851 45.1954 19.6399C45.0547 19.7471 44.9263 19.7235 44.8104 19.5691C44.9113 19.3486 44.9318 19.1354 44.8719 18.9295C44.937 18.3889 45.0021 17.8482 45.0672 17.3076C45.0525 17.2425 45.0222 17.187 44.9761 17.141C45.101 16.5607 45.1933 15.9908 45.2532 15.4311C45.174 15.2036 45.194 14.9762 45.3131 14.7491C45.2513 14.5737 45.2303 14.3904 45.2504 14.199C44.9797 14.199 44.6948 14.1529 44.3955 14.0605C44.1896 14.1204 43.9763 14.0999 43.7558 13.999C43.5422 14.0706 43.329 14.05 43.1162 13.9375C43.033 14.0117 42.935 14.0436 42.8223 14.0333C42.6376 15.827 42.505 17.6165 42.4247 19.4018C41.9686 19.4167 41.5144 19.3909 41.0622 19.3245C41.0082 19.2362 40.9763 19.1383 40.9664 19.0305C41.1212 16.8913 41.2978 14.7603 41.4962 12.6373Z" fill="#D11A25"/>
<path opacity="0.463" fill-rule="evenodd" clip-rule="evenodd" d="M73.0735 11.6466C73.0006 11.7348 72.9441 11.7368 72.9038 11.6528C72.8982 11.5683 72.9385 11.5101 73.0249 11.4784C73.1684 11.4887 73.1845 11.5448 73.0735 11.6466Z" fill="#EAC9BB"/>
<path opacity="0.886" fill-rule="evenodd" clip-rule="evenodd" d="M48.7411 13.2209C50.015 13.2995 51.3367 13.4209 52.7062 13.585C52.7713 13.5703 52.8269 13.54 52.8728 13.4939C53.0922 13.5289 53.2797 13.6212 53.4354 13.7707C53.2573 15.8984 53.067 18.0441 52.8647 20.2079C52.6976 20.2265 52.5289 20.2611 52.3586 20.3115C52.0872 20.1914 51.8164 20.1447 51.5461 20.1713C51.4891 19.9438 51.4525 19.7185 51.4363 19.4955C51.5372 19.275 51.5577 19.0618 51.4977 18.8559C51.5917 18.6194 51.6117 18.3921 51.5577 18.1738C51.6563 17.004 51.7557 15.8531 51.8557 14.7211C51.4699 14.696 51.0859 14.6534 50.7037 14.5934C50.4978 14.6534 50.2846 14.6329 50.0641 14.532C50.0091 14.8302 49.9635 15.1293 49.9271 15.4293C49.9811 15.6476 49.9611 15.8749 49.8672 16.1114C49.8819 16.1765 49.9122 16.232 49.9583 16.278C49.9183 16.6293 49.8464 16.9861 49.7427 17.3482C49.8106 18.0307 49.7082 18.7143 49.4356 19.3991C49.2793 19.6263 49.0728 19.7897 48.8163 19.8893C48.2684 19.9574 47.7289 19.9207 47.1975 19.7788C47.1682 19.7516 47.1388 19.7243 47.1095 19.6971C47.2375 19.3736 47.2962 19.0457 47.2858 18.7133C47.3131 18.684 47.3404 18.6546 47.3676 18.6253C47.7808 18.838 48.103 18.7412 48.3342 18.3348C48.2626 18.1211 48.2832 17.9079 48.3957 17.6952C48.3165 17.4676 48.3365 17.2402 48.4556 17.0131C48.4155 16.9794 48.3856 16.938 48.3661 16.8889C48.4351 16.3637 48.5008 15.8373 48.563 15.3095C48.5482 15.2444 48.5179 15.1889 48.4718 15.1429C48.5818 14.506 48.6716 13.8653 48.7411 13.2209Z" fill="#D11A25"/>
<path opacity="0.881" fill-rule="evenodd" clip-rule="evenodd" d="M54.7104 13.7663C55.5909 13.8137 56.4862 13.8941 57.3962 14.0075C57.4613 13.9928 57.5168 13.9625 57.5628 13.9164C58.1653 14.0089 58.7635 14.1002 59.3575 14.1904C59.5667 14.0934 59.6971 14.1736 59.7488 14.4309C59.6427 14.6613 59.6228 14.8886 59.6889 15.113C59.6441 15.2423 59.5775 15.358 59.4892 15.4603C59.1293 15.3473 58.7584 15.276 58.3765 15.2462C58.1582 15.3002 57.9309 15.2803 57.6945 15.1863C57.4886 15.2462 57.2753 15.2258 57.0548 15.1248C56.9993 15.1552 56.9438 15.1856 56.8882 15.2159C56.6145 15.1727 56.3437 15.126 56.0757 15.0758C56.067 15.5159 56.0412 15.97 55.9983 16.4384C56.3841 16.4635 56.7681 16.5061 57.1503 16.566C57.3686 16.512 57.5959 16.532 57.8324 16.626C58.0383 16.566 58.2515 16.5865 58.472 16.6874C58.6857 16.6158 58.8989 16.6364 59.1116 16.7489C59.1389 16.7196 59.1662 16.6902 59.1934 16.6609C59.2142 17.028 59.1994 17.3969 59.1491 17.7673C59.1255 17.8369 59.0851 17.895 59.028 17.9417C57.9871 17.8011 56.9493 17.6976 55.9147 17.6313C55.9253 17.9557 55.8665 18.2836 55.7384 18.615C55.8037 18.8102 55.7827 19.0093 55.6754 19.2122C55.9085 19.3638 56.1505 19.3974 56.4014 19.313C56.6142 19.4255 56.8274 19.4461 57.0411 19.3745C57.7959 19.5388 58.5644 19.638 59.3466 19.6722C59.3759 19.6994 59.4053 19.7267 59.4346 19.7539C59.3831 19.8975 59.3318 20.041 59.2804 20.1845C59.3419 20.3857 59.3497 20.5979 59.3038 20.821C58.6038 20.8055 57.9076 20.7461 57.2152 20.6428C56.9969 20.6968 56.7696 20.6769 56.5331 20.5829C56.3272 20.6429 56.114 20.6224 55.8935 20.5215C55.6798 20.5931 55.4666 20.5725 55.2538 20.46C55.2079 20.506 55.1523 20.5364 55.0872 20.5511C54.8149 20.5083 54.5441 20.4616 54.2747 20.411C54.2447 19.9552 54.2281 19.5026 54.2248 19.0531C54.3049 18.6649 54.3757 18.2799 54.4373 17.898C54.3459 17.6957 54.3669 17.4967 54.5003 17.3008C54.4543 17.2548 54.424 17.1993 54.4092 17.1342C54.4744 16.5936 54.5395 16.0529 54.6046 15.5123C54.5447 15.3064 54.5651 15.0932 54.666 14.8727C54.5917 14.6745 54.6127 14.4753 54.7291 14.2755C54.6596 14.1152 54.6534 13.9455 54.7104 13.7663Z" fill="#D11A25"/>
<path fill-rule="evenodd" clip-rule="evenodd" d="M2.27578 20.7077C2.18252 20.6176 2.10764 20.507 2.05114 20.376C2.00579 20.5894 1.93506 20.592 1.83896 20.3838C1.70168 20.5704 1.63824 20.771 1.64863 20.9857C1.67484 20.928 1.70105 20.8705 1.72726 20.8128C1.78904 20.9522 1.79424 21.0936 1.74286 21.2372C1.7063 21.1997 1.66282 21.1729 1.61244 21.157C1.54895 21.5307 1.4776 21.9015 1.39838 22.2696C1.30866 22.1986 1.24844 22.1017 1.21773 21.9788C1.31439 21.845 1.30971 21.7177 1.20369 21.5969C1.3046 21.3764 1.32509 21.1632 1.26516 20.9573C1.35913 20.7208 1.3791 20.4935 1.32507 20.2752C1.39368 19.7205 1.45827 19.1657 1.51885 18.6109C1.67865 18.5878 1.80803 18.6396 1.907 18.7666C1.9359 18.6877 1.97573 18.6154 2.0265 18.5498C1.90919 18.4408 1.90502 18.3276 2.01402 18.2103C1.89276 18.1022 1.86031 17.9901 1.91667 17.8739C1.84332 17.6585 1.75066 17.4494 1.63867 17.2468C1.64139 17.1009 1.66448 16.9585 1.70794 16.8193C2.02635 16.8075 2.10602 16.663 1.94695 16.3856C1.84476 16.4608 1.76301 16.5487 1.7017 16.6496C1.65543 16.6462 1.6261 16.619 1.61372 16.5678C1.67733 16.0404 1.75659 15.4993 1.85148 14.9444C2.17744 14.814 2.2126 14.6144 1.95695 14.3457C1.91307 13.959 1.94095 13.5613 2.04058 13.1528C2.1302 13.0821 2.22714 13.0219 2.33138 12.9722C2.47985 13.0965 2.6396 13.2039 2.81063 13.2945C2.9481 13.175 3.0419 13.0299 3.09208 12.8592C3.20523 12.8551 3.31839 12.8509 3.43155 12.8467C3.42739 12.7336 3.42323 12.6204 3.41907 12.5073C3.30592 12.5114 3.19275 12.5156 3.0796 12.5197C2.85779 12.3866 2.86674 12.2446 3.10643 12.0938C3.55116 12.3298 3.86171 12.6867 4.03811 13.1644C4.06968 13.5185 4.02557 13.8601 3.9058 14.189C3.97737 14.4027 3.95688 14.6159 3.84433 14.8287C3.90377 15.0361 3.88328 15.2493 3.78286 15.4683C3.85442 15.682 3.83394 15.8952 3.72139 16.1079C3.8006 16.3355 3.78063 16.5629 3.66148 16.79C3.74069 17.0176 3.72072 17.2449 3.60156 17.4721C3.64761 17.5181 3.67797 17.5736 3.69267 17.6387C3.61211 18.4568 3.5003 19.2683 3.35724 20.073C3.28892 19.947 3.18679 19.8658 3.05084 19.8293C2.82192 19.8556 2.58406 19.9351 2.33726 20.068C2.14978 20.2657 2.12928 20.4789 2.27578 20.7077Z" fill="#A4212F"/>
<path fill-rule="evenodd" clip-rule="evenodd" d="M2.56975 14.833C2.65462 14.8299 2.73949 14.8268 2.82436 14.8237C2.84774 15.0793 2.84296 15.3344 2.81 15.5891C2.52603 15.7363 2.39509 15.642 2.41717 15.3061C2.40145 15.1215 2.45231 14.9638 2.56975 14.833Z" fill="#F3E7E6"/>
<path opacity="0.885" fill-rule="evenodd" clip-rule="evenodd" d="M60.9308 14.2175C61.2676 14.2326 61.5929 14.2206 61.9068 14.1817C62.0504 14.2331 62.1938 14.2844 62.3374 14.3358C62.3686 14.6985 62.3957 15.0516 62.4188 15.3951C62.3194 15.7445 62.2475 16.1013 62.2032 16.4653C62.3205 16.5743 62.3246 16.6875 62.2157 16.8048C62.323 16.94 62.4372 16.9641 62.5583 16.8772C63.282 17.0012 63.9918 17.0459 64.6878 17.0113C64.7536 16.2016 64.823 15.3917 64.8959 14.5817C64.9557 14.532 65.0253 14.5011 65.105 14.489C65.5367 14.5346 65.9642 14.6039 66.3873 14.6968C66.2864 14.9173 66.2659 15.1305 66.3259 15.3365C66.1312 17.2473 65.9609 19.1657 65.8151 21.0916C65.7832 21.1924 65.7297 21.2793 65.6547 21.3524C65.24 21.3076 64.8126 21.2383 64.3723 21.1446C64.4092 20.3845 64.4796 19.6028 64.5835 18.7998C64.5654 18.6219 64.5303 18.4391 64.4784 18.2513C64.2647 18.3229 64.0515 18.3023 63.8388 18.1898C63.7928 18.2359 63.7372 18.2662 63.6722 18.2809C63.1734 18.2107 62.6753 18.144 62.1776 18.0809C62.0814 18.7642 61.9932 19.4473 61.913 20.1302C61.978 20.4225 61.9319 20.7074 61.7744 20.9852C61.4946 21.0105 61.2096 20.9644 60.9195 20.8466C60.6745 20.9579 60.5017 20.8792 60.401 20.6107C60.5019 20.3902 60.5223 20.177 60.4624 19.9711C60.6182 18.9248 60.6939 17.9022 60.6896 16.9034C60.7394 16.563 60.8118 16.2204 60.9068 15.8756C60.8607 15.8296 60.8304 15.774 60.8157 15.709C60.8995 15.2155 60.9379 14.7184 60.9308 14.2175Z" fill="#D11A25"/>
<path opacity="0.682" fill-rule="evenodd" clip-rule="evenodd" d="M1.70798 16.8193C1.7059 16.7627 1.70382 16.7062 1.70174 16.6496C1.76305 16.5487 1.8448 16.4607 1.94699 16.3856C2.10606 16.663 2.02639 16.8075 1.70798 16.8193Z" fill="#E0A9AF"/>
<path opacity="0.896" fill-rule="evenodd" clip-rule="evenodd" d="M69.791 14.8267C70.1627 14.9627 70.533 15.0199 70.9021 14.9983C71.0511 15.1384 71.1705 15.304 71.2603 15.495C71.2331 15.5243 71.2058 15.5537 71.1786 15.583C71.8305 17.5789 72.4554 19.5531 73.0534 21.5054C73.1266 21.6522 73.1177 21.7942 73.0266 21.9313C72.7962 21.8252 72.5689 21.8053 72.3445 21.8714C72.1065 21.7778 71.8786 21.7437 71.6609 21.7691C71.55 21.4844 71.4264 21.2057 71.2902 20.9328C71.3466 20.8166 71.3141 20.7046 71.1929 20.5965C71.2284 20.4848 71.2237 20.3575 71.1788 20.2146C70.927 20.1802 70.6865 20.1891 70.4575 20.2411C70.2303 20.122 70.003 20.1019 69.7754 20.1812C69.4149 20.1038 69.0582 20.032 68.7052 19.9656C68.4138 20.4067 68.1764 20.8829 67.9928 21.394C67.7868 21.3975 67.5893 21.4189 67.4003 21.4583C67.0696 21.4334 66.7553 21.36 66.4574 21.238C67.4619 19.2004 68.4489 17.1529 69.4185 15.0953C69.5341 14.9822 69.6583 14.8927 69.791 14.8267ZM70.1143 16.6844C70.286 17.4257 70.511 18.154 70.7895 18.8692C70.7481 18.899 70.7067 18.9289 70.6653 18.9587C70.378 18.9982 70.093 18.952 69.8104 18.8202C69.597 18.9059 69.3838 18.8855 69.1707 18.7587C69.5252 18.0837 69.8397 17.3923 70.1143 16.6844Z" fill="#D11A25"/>
<path opacity="0.576" fill-rule="evenodd" clip-rule="evenodd" d="M80.3182 14.5247C80.2941 14.6389 80.27 14.7531 80.2459 14.8673C79.9925 14.8911 79.8186 14.7842 79.7242 14.5466C79.9305 14.5197 80.1285 14.5124 80.3182 14.5247Z" fill="#E6ACA9"/>
<path fill-rule="evenodd" clip-rule="evenodd" d="M80.3173 14.5247C80.1276 14.5124 79.9296 14.5197 79.7233 14.5465C79.8177 14.7842 79.9916 14.8911 80.2449 14.8673C80.2912 14.8707 80.3205 14.8979 80.3329 14.949C80.2665 15.302 80.1947 15.6588 80.1173 16.0193C80.2173 16.2084 80.1957 16.3934 80.0527 16.574C80.097 16.6528 80.1284 16.7366 80.147 16.8255C80.1004 17.1364 80.0694 17.4492 80.054 17.7637C79.7988 17.9158 79.791 18.0861 80.0302 18.2745C79.915 19.2283 79.822 20.1666 79.7513 21.0892C79.3411 21.35 79.239 21.2687 79.4449 20.8455C79.3797 20.79 79.3211 20.7354 79.2689 20.682C79.3824 20.4996 79.3227 20.4168 79.0898 20.4336C79.0929 20.5185 79.0961 20.6034 79.0992 20.6883C79.1233 20.7971 79.0982 20.883 79.0237 20.946C78.8525 20.6105 78.7687 20.6418 78.7722 21.0402C78.857 21.0371 78.9419 21.034 79.0268 21.0308C79.0782 21.0489 79.108 21.0903 79.1163 21.155C79.0723 21.2426 79.0184 21.3153 78.9544 21.3734C78.8256 21.4402 78.759 21.5559 78.7547 21.7207C78.6787 21.5616 78.5786 21.5369 78.4545 21.6468C78.5013 21.7039 78.5594 21.7442 78.629 21.7678C78.5208 21.8134 78.4081 21.8318 78.291 21.8227C78.2978 22.1138 78.2082 22.3721 78.0221 22.5975C77.9769 23.0845 77.9097 23.5685 77.8205 24.0496C77.7711 23.8551 77.7498 23.6576 77.7562 23.4571C77.718 23.3935 77.687 23.3238 77.6636 23.248C77.7335 22.3978 77.8443 21.5581 77.9959 20.7288C77.933 20.5612 77.8703 20.3935 77.8074 20.2258C77.8217 19.9752 77.8123 19.7206 77.7794 19.462C78.0694 19.2859 78.0899 19.0727 77.8408 18.8224C77.9538 18.4625 78.0251 18.0916 78.0549 17.7097C78.0322 17.6364 78.0013 17.5666 77.9622 17.5007C78.0489 17.1275 78.1202 16.7566 78.1763 16.388C78.0764 16.1685 78.097 15.9553 78.2377 15.7484C78.2342 15.4197 78.2223 15.0944 78.2019 14.7724C78.4822 14.7767 78.5085 14.7191 78.2805 14.5996C78.3194 14.0154 78.382 13.404 78.468 12.7655C78.3561 12.2851 78.0655 12.0833 77.5959 12.1602C77.3754 12.0593 77.1622 12.0388 76.9563 12.0987C76.5752 12.0284 76.1912 11.9858 75.8044 11.9711C75.8667 11.9036 75.95 11.858 76.0543 11.8345C75.8743 11.8105 75.7024 11.7601 75.5388 11.6834C75.4085 11.59 75.4201 11.5187 75.5735 11.4697C76.1408 11.8643 76.7536 11.9692 77.4122 11.7846C77.3426 11.7609 77.2845 11.7206 77.2378 11.6635C77.3611 11.2528 77.5021 10.8511 77.6609 10.4582C77.9093 10.4946 78.1503 10.4998 78.3838 10.4741C78.0635 10.3445 77.7476 10.2287 77.4362 10.1265C77.641 10.052 77.8542 10.0725 78.0758 10.188C78.7833 10.1479 79.4936 10.2067 80.2069 10.3646C80.3214 10.43 80.4235 10.5112 80.5133 10.6083C80.5914 10.9646 80.6327 11.3172 80.6372 11.666C80.5343 12.0282 80.463 12.3991 80.4231 12.7787C80.4771 12.9969 80.4572 13.2242 80.3632 13.4607C80.3779 13.5258 80.4083 13.5814 80.4543 13.6273C80.3215 13.9296 80.2759 14.2287 80.3173 14.5247Z" fill="#CA4A49"/>
<path fill-rule="evenodd" clip-rule="evenodd" d="M79.4219 15.5774C79.4793 15.4985 79.5631 15.4671 79.6734 15.4832C79.6753 15.6976 79.7664 15.8643 79.9467 15.9831C79.6359 16.0703 79.3505 16.0099 79.0903 15.8021C79.2289 15.8136 79.3703 15.8084 79.5146 15.7865C79.6014 15.6848 79.5706 15.6151 79.4219 15.5774Z" fill="#F3DFDC"/>
<path fill-rule="evenodd" clip-rule="evenodd" d="M78.4004 15.53C78.4608 15.4366 78.5452 15.4193 78.6535 15.4782C78.7415 15.56 78.8295 15.6417 78.9174 15.7235C78.7446 15.6915 78.5723 15.6271 78.4004 15.53Z" fill="#F5E6DB"/>
<path fill-rule="evenodd" clip-rule="evenodd" d="M78.7271 15.178C78.8445 15.0929 78.9849 15.0594 79.1483 15.0776C79.1705 15.1766 79.1454 15.2625 79.0728 15.3353C78.974 15.2429 78.8587 15.1904 78.7271 15.178Z" fill="#F2D8CF"/>
<path fill-rule="evenodd" clip-rule="evenodd" d="M79.6164 16.2501C79.7722 16.2208 79.8875 16.2732 79.9621 16.4074C79.8641 16.49 79.752 16.5224 79.6258 16.5047C79.6226 16.4199 79.6195 16.335 79.6164 16.2501Z" fill="#E9BDB6"/>
<path fill-rule="evenodd" clip-rule="evenodd" d="M2.27611 20.7077C2.41758 20.8733 2.59252 21.0085 2.80092 21.1133C3.10977 21.084 3.40265 20.96 3.67956 20.7411C4.43531 20.7423 5.21691 20.8127 6.02435 20.9523C6.22239 21.197 6.42926 21.4302 6.64495 21.6519C7.1028 21.8297 7.5627 22.0111 8.02468 22.196C8.0923 22.1674 8.14732 22.1229 8.18974 22.0625C7.91087 21.804 7.70141 21.5001 7.56134 21.1508C7.58807 21.1073 7.61481 21.0638 7.64153 21.0204C7.83512 21.0772 7.99487 21.1847 8.12079 21.3427C8.40941 21.2281 8.69022 21.1611 8.96323 21.1417C9.29328 21.1874 9.56775 21.3332 9.78664 21.5789C9.75942 21.6082 9.73211 21.6376 9.70489 21.6669C9.92988 22.0101 10.0288 22.3889 10.0016 22.8032C9.71061 22.8976 9.44707 23.0488 9.21096 23.2572C8.63267 23.2123 8.03547 23.1492 7.41936 23.0681C7.20111 23.1221 6.97376 23.1022 6.7373 23.0082C6.51905 23.0622 6.29169 23.0423 6.05523 22.9483C5.83698 23.0023 5.60962 22.9824 5.37316 22.8884C5.3081 22.9031 5.25255 22.9334 5.20655 22.9795C4.8336 22.912 4.46272 22.8406 4.0939 22.7654C3.58456 22.833 3.16708 22.6501 2.84147 22.2166C2.64865 22.3654 2.45581 22.514 2.26299 22.6628C2.15566 22.5638 2.05664 22.5674 1.96595 22.6737C1.70552 22.6324 1.51644 22.4977 1.39871 22.2696C1.47792 21.9015 1.54927 21.5307 1.61276 21.157C1.66315 21.1729 1.70662 21.1997 1.74318 21.2372C1.79456 21.0936 1.78936 20.9522 1.72758 20.8128C1.70138 20.8705 1.67516 20.928 1.64895 20.9857C1.63856 20.771 1.702 20.5704 1.83929 20.3838C1.93538 20.592 2.00611 20.5894 2.05146 20.376C2.10796 20.507 2.18284 20.6176 2.27611 20.7077Z" fill="#A7202E"/>
<path fill-rule="evenodd" clip-rule="evenodd" d="M78.0939 18.7706C78.319 18.8391 78.3808 18.9784 78.2792 19.1887C78.1519 19.0786 78.0901 18.9393 78.0939 18.7706Z" fill="#EBA9A7"/>
<path fill-rule="evenodd" clip-rule="evenodd" d="M10.542 21.3386C10.6988 21.4276 10.8706 21.4779 11.0574 21.4896C11.2562 21.4112 11.4533 21.3756 11.6484 21.3829C11.8744 21.4111 12.0483 21.518 12.1701 21.7037C12.1465 21.7732 12.1061 21.8314 12.049 21.8781C11.8589 21.7769 11.674 21.7554 11.4943 21.8135C11.3459 22.1456 11.1735 22.4636 10.9769 22.7673C10.7484 22.5676 10.6971 22.3288 10.8231 22.0506C10.7359 21.8108 10.6422 21.5735 10.542 21.3386Z" fill="#B22B37"/>
<path fill-rule="evenodd" clip-rule="evenodd" d="M8.7061 22.2559C8.84755 22.2507 8.98899 22.2455 9.13044 22.2403C9.1646 22.6714 9.01213 22.762 8.67302 22.5121C8.62981 22.4222 8.64083 22.3368 8.7061 22.2559Z" fill="#F3DDDE"/>
<path fill-rule="evenodd" clip-rule="evenodd" d="M78.1221 19.5344C78.3928 19.6072 78.4839 19.7739 78.3954 20.0343C78.2594 19.8911 78.1683 19.7245 78.1221 19.5344Z" fill="#F6D7D2"/>
<path opacity="0.522" fill-rule="evenodd" clip-rule="evenodd" d="M14.1563 22.5655C14.5455 22.5928 14.6083 22.7604 14.3447 23.0685C14.1371 22.9378 14.0743 22.7701 14.1563 22.5655Z" fill="#BB3D46"/>
<path opacity="0.435" fill-rule="evenodd" clip-rule="evenodd" d="M21.8824 22.3665C21.9813 22.4453 22.0698 22.5411 22.148 22.6542C22.1213 22.6976 22.0945 22.7411 22.0678 22.7846C21.9808 22.7311 21.8939 22.6777 21.8069 22.6242C21.7311 22.6803 21.6472 22.7118 21.5554 22.7184C21.6644 22.6012 21.7735 22.4838 21.8824 22.3665Z" fill="#BE3F4F"/>
<path fill-rule="evenodd" clip-rule="evenodd" d="M79.269 20.682C79.2124 20.6841 79.1558 20.6862 79.0992 20.6883C79.0961 20.6034 79.093 20.5185 79.0899 20.4337C79.3228 20.4168 79.3824 20.4996 79.269 20.682Z" fill="#ECCBC5"/>
<path fill-rule="evenodd" clip-rule="evenodd" d="M21.8827 22.3665C21.7737 22.4838 21.6646 22.6011 21.5557 22.7184C21.4496 22.84 21.4542 22.9673 21.5697 23.1003C21.7902 23.1873 22.0029 23.1936 22.2078 23.1194C22.515 23.451 22.7545 23.4139 22.926 23.008C22.9235 22.8533 22.889 22.6846 22.8224 22.5019C23.0951 22.413 23.3628 22.3748 23.6256 22.3874C23.8383 22.4999 24.0516 22.5205 24.2652 22.4489C24.7403 22.4741 25.196 22.5423 25.6325 22.6536C25.3364 22.7677 25.0253 22.7791 24.6989 22.6879C24.4795 22.7727 24.428 22.9162 24.5448 23.1185C24.6003 23.0533 24.6549 22.9947 24.7083 22.9425C24.7041 23.0273 24.735 23.0969 24.8009 23.1515C24.6638 23.1986 24.5228 23.2179 24.3782 23.2096C24.3958 23.0833 24.3634 22.9712 24.2808 22.8732C24.1901 22.9805 24.1801 23.0941 24.2509 23.2143C24.43 23.3333 24.5494 23.4988 24.609 23.711C24.6286 23.4371 24.7518 23.3193 24.9785 23.3575C24.7756 23.5565 24.7824 23.7403 24.9987 23.9091C24.8397 24.1118 24.846 24.2815 25.0175 24.4183C24.9132 24.4419 24.8299 24.4874 24.7675 24.555C24.5482 24.6228 24.3208 24.6029 24.0855 24.4951C24.0299 24.5254 23.9744 24.5558 23.9189 24.5862C23.4675 24.5655 23.0118 24.4972 22.5516 24.3815C22.6201 23.9943 22.4573 23.802 22.063 23.8046C21.7414 23.9014 21.4789 24.081 21.2755 24.3434C21.0706 24.2932 20.87 24.2297 20.6736 24.1531C20.076 23.6157 19.5994 22.9816 19.2439 22.251C19.2566 22.2081 19.2691 22.1651 19.2817 22.1222C19.6548 22.1407 20.0398 22.2116 20.4368 22.3346C20.9205 22.2042 21.4025 22.2149 21.8827 22.3665Z" fill="#BD1C29"/>
<path fill-rule="evenodd" clip-rule="evenodd" d="M24.6992 22.6879C24.7023 22.7728 24.7055 22.8576 24.7086 22.9425C24.6552 22.9947 24.6006 23.0533 24.5451 23.1185C24.4284 22.9162 24.4798 22.7727 24.6992 22.6879Z" fill="#F1C3C5"/>
<path opacity="0.831" fill-rule="evenodd" clip-rule="evenodd" d="M79.024 20.946C79.0251 20.9743 79.0261 21.0026 79.0272 21.0309C78.9423 21.034 78.8574 21.0371 78.7726 21.0402C78.769 20.6419 78.8529 20.6105 79.024 20.946Z" fill="#F4DED6"/>
<path fill-rule="evenodd" clip-rule="evenodd" d="M24.6991 22.6879C25.0255 22.7791 25.3366 22.7677 25.6327 22.6536C27.002 22.7208 28.3803 22.8402 29.7675 23.0115C29.9858 22.9575 30.2131 22.9774 30.4496 23.0714C30.6679 23.0174 30.8952 23.0373 31.1317 23.1313C31.3231 23.0726 31.5222 23.0936 31.7289 23.1943C31.7939 23.1796 31.8495 23.1493 31.8955 23.1032C32.2233 23.2528 32.5508 23.2975 32.8777 23.2371C32.4969 23.3302 32.1014 23.3588 31.6911 23.3232C31.8914 23.4275 32.0664 23.5627 32.2159 23.7288C32.1427 24.0244 32.097 24.3236 32.0789 24.6262C31.9619 24.6171 31.8492 24.6355 31.741 24.6811C31.9512 24.7532 32.1528 24.8449 32.346 24.9563C32.3046 24.9861 32.2632 25.016 32.2218 25.0458C31.8021 24.9447 31.3868 24.8184 30.9756 24.6667C30.7753 24.8934 30.5631 24.9012 30.3391 24.6901C30.3102 24.769 30.2704 24.8414 30.2196 24.907C30.4014 24.9721 30.5738 25.0366 30.7366 25.1004C30.2644 25.0995 29.7955 25.0601 29.3301 24.9822C29.265 24.9969 29.2094 25.0272 29.1635 25.0733C28.7603 24.9887 28.3611 24.9184 27.9659 24.8623C27.7745 24.921 27.5754 24.9001 27.3687 24.7993C27.3037 24.814 27.2481 24.8444 27.2021 24.8904C26.799 24.8059 26.3998 24.7356 26.0046 24.6795C25.9395 24.6942 25.884 24.7245 25.838 24.7706C25.4724 24.696 25.1156 24.6241 24.7678 24.555C24.8301 24.4874 24.9134 24.4419 25.0177 24.4183C24.8462 24.2815 24.8399 24.1118 24.999 23.9091C24.7826 23.7403 24.7759 23.5565 24.9787 23.3575C24.752 23.3193 24.6289 23.4371 24.6093 23.711C24.5496 23.4988 24.4303 23.3333 24.2511 23.2142C24.1803 23.0941 24.1903 22.9805 24.281 22.8732C24.3636 22.9712 24.396 23.0833 24.3784 23.2096C24.5231 23.2178 24.664 23.1986 24.8012 23.1515C24.7353 23.0969 24.7043 23.0273 24.7085 22.9425C24.7054 22.8576 24.7023 22.7727 24.6991 22.6879Z" fill="#C31825"/>
<path opacity="0.031" fill-rule="evenodd" clip-rule="evenodd" d="M13.6787 23.4329C13.8333 23.4503 13.9768 23.5017 14.1093 23.5871C13.907 23.7038 13.7635 23.6524 13.6787 23.4329Z" fill="#B6344B"/>
<path fill-rule="evenodd" clip-rule="evenodd" d="M16.5924 21.7961C17.057 22.1867 17.5111 22.5949 17.9547 23.0208C17.9801 22.562 18.1614 22.4846 18.4985 22.7883C18.8075 23.1027 19.1165 23.4172 19.4255 23.7316C19.4633 23.8641 19.4251 23.9788 19.3107 24.0757C18.9631 24.1401 18.5954 24.1536 18.2074 24.1163C17.8967 24.0509 17.6091 23.934 17.3447 23.7655C17.3179 23.6041 17.3117 23.4344 17.326 23.2563C17.2737 23.1559 17.2135 23.0589 17.1453 22.9655C16.8698 23.3279 16.5558 23.6511 16.2036 23.935C15.9278 23.8372 15.6952 23.6758 15.506 23.4507C15.4263 23.5953 15.3173 23.7126 15.179 23.8027C14.9752 23.8332 14.762 23.8127 14.5393 23.7412C14.5352 23.6281 14.531 23.5148 14.5269 23.4017C14.9295 23.3488 15.2759 23.1378 15.5659 22.7686C15.627 22.8392 15.6998 22.8931 15.7843 22.9306C15.9151 22.857 16.0555 22.8235 16.2055 22.8301C15.9577 22.3573 16.0867 22.0126 16.5924 21.7961Z" fill="#B7222E"/>
<path fill-rule="evenodd" clip-rule="evenodd" d="M15.1215 23.3799C15.2778 23.3859 15.3082 23.4415 15.2126 23.5465C15.1435 23.5102 15.1131 23.4546 15.1215 23.3799Z" fill="#ECD1D6"/>
<path fill-rule="evenodd" clip-rule="evenodd" d="M16.5235 22.2235C16.6225 22.2013 16.7084 22.2264 16.7812 22.299C16.6428 22.3891 16.5339 22.5064 16.4542 22.651C16.4249 22.6238 16.3955 22.5965 16.3662 22.5692C16.4586 22.4705 16.511 22.3552 16.5235 22.2235Z" fill="#F6E7E3"/>
<path fill-rule="evenodd" clip-rule="evenodd" d="M32.8779 23.2371C33.3849 23.3017 33.8972 23.3678 34.4149 23.4355C34.4705 23.4052 34.5259 23.3748 34.5815 23.3444C35.255 23.6241 35.9087 23.685 36.5428 23.5273C36.7732 23.6334 37.0005 23.6533 37.2249 23.5872C37.3967 23.6376 37.5685 23.6879 37.7404 23.7382C38.0003 23.7174 38.2549 23.708 38.5042 23.7101C38.6507 23.737 38.7387 23.8187 38.7681 23.9554C38.6761 23.9555 38.5902 23.9302 38.5104 23.8799C38.4212 23.9567 38.4102 24.0421 38.4773 24.136C38.5834 24.023 38.683 24.0336 38.7759 24.1676C38.6351 24.3052 38.4679 24.3822 38.2745 24.3985C38.2894 24.298 38.2581 24.2142 38.1803 24.147C37.9909 24.1024 37.8049 24.0526 37.6224 23.9975C37.6033 24.4337 37.4471 24.8076 37.1538 25.1195C36.9111 25.0149 36.6696 24.9955 36.4293 25.0612C36.2523 24.8689 36.0522 24.8196 35.8289 24.9133C35.8725 24.9948 35.9316 25.0634 36.0065 25.1192C35.7318 25.1377 35.4616 25.1051 35.1955 25.0215C35.1824 25.0503 35.1694 25.0792 35.1562 25.108C35.3219 25.1705 35.4932 25.2067 35.6701 25.2165C35.6277 25.2769 35.5727 25.3214 35.5051 25.3501C35.148 25.3112 34.7787 25.2823 34.3971 25.2633C34.8521 25.401 35.3226 25.4829 35.8083 25.5089C36.02 25.2898 36.2327 25.2961 36.4464 25.5279C37.3134 25.6109 38.1668 25.707 39.0065 25.8163C37.7798 25.7809 36.544 25.6847 35.2991 25.5276C35.2341 25.5423 35.1785 25.5727 35.1325 25.6187C34.7412 25.527 34.3562 25.4562 33.9774 25.4062C33.9103 25.3434 33.8238 25.3041 33.7181 25.2883C32.9208 25.2352 32.125 25.1653 31.3309 25.0786C31.1998 25.0843 31.0877 25.1168 30.9946 25.1759C30.9003 25.1746 30.8144 25.1494 30.7368 25.1004C30.5739 25.0366 30.4016 24.9721 30.2198 24.907C30.2706 24.8414 30.3104 24.769 30.3393 24.6901C30.5633 24.9012 30.7754 24.8934 30.9758 24.6667C31.3869 24.8184 31.8023 24.9447 32.222 25.0458C32.2634 25.016 32.3048 24.9861 32.3462 24.9563C32.153 24.8449 31.9514 24.7532 31.7412 24.6811C31.8494 24.6355 31.9621 24.6171 32.0791 24.6262C32.0972 24.3236 32.1429 24.0244 32.2161 23.7288C32.0666 23.5627 31.8916 23.4275 31.6913 23.3232C32.1016 23.3588 32.4971 23.3302 32.8779 23.2371Z" fill="#CB1824"/>
<path fill-rule="evenodd" clip-rule="evenodd" d="M78.9549 21.3734C78.8964 21.4782 78.8723 21.5924 78.8826 21.716C79.0773 21.6522 79.2748 21.6307 79.4751 21.6517C79.5792 21.7482 79.6405 21.8734 79.6588 22.0274C79.6366 22.4012 79.5935 22.771 79.5297 23.1369C79.709 23.5466 79.7246 23.9709 79.5765 24.41C79.6426 24.6344 79.6226 24.8617 79.5165 25.092C79.5881 25.3057 79.5676 25.5189 79.4551 25.7317C79.5465 25.934 79.5255 26.133 79.392 26.3289C79.4713 26.5564 79.4513 26.7838 79.3321 27.0109C79.4114 27.2385 79.3913 27.4659 79.2722 27.693C79.3183 27.739 79.3486 27.7945 79.3633 27.8596C79.3152 28.1862 79.2706 28.5136 79.2295 28.8418C79.1074 29.1331 78.8863 29.2828 78.5661 29.2911C78.36 29.3041 78.2012 29.2249 78.09 29.0537C78.0061 29.0851 77.9223 29.1165 77.8385 29.1479C77.6974 29.0412 77.5932 28.9034 77.5259 28.7345C77.3603 28.8539 77.1947 28.9733 77.0291 29.0927C76.5704 29.0782 76.1168 29.0666 75.6681 29.0577C75.6479 28.6487 75.5479 28.6241 75.3679 28.9838C75.3453 28.8522 75.2987 28.7406 75.2282 28.649C75.2261 28.5924 75.224 28.5359 75.2219 28.4792C75.1483 28.3364 75.0582 28.1981 74.9517 28.0643C74.8791 28.137 74.854 28.223 74.8762 28.322C74.8793 28.4069 74.8825 28.4917 74.8856 28.5766C74.7467 28.536 74.6041 28.5129 74.4581 28.5073C74.4633 28.6488 74.4685 28.7902 74.4737 28.9317C74.1935 28.9055 73.9247 28.9154 73.6675 28.9613C73.5534 28.8515 73.5068 28.74 73.5277 28.6265C73.4369 28.7243 73.3257 28.785 73.1944 28.8087C72.8825 28.7724 72.5823 28.6985 72.294 28.5869C72.069 28.6239 71.8568 28.6317 71.6575 28.6103C71.7761 28.3267 71.9448 28.2922 72.1635 28.5067C72.411 28.4344 72.664 28.3826 72.9227 28.3513C72.7811 28.1236 72.5794 28.0318 72.3177 28.0761C72.3326 27.9757 72.3012 27.8919 72.2235 27.8246C72.2653 27.9466 72.2124 28.0476 72.0646 28.1279C71.9084 28.1941 71.7795 28.1563 71.6781 28.0146C71.4899 28.0991 71.3092 28.1907 71.1358 28.2895C71.1275 28.1956 71.0961 28.1117 71.0415 28.038C71.1043 27.9709 71.1437 27.8844 71.1595 27.7787C71.2977 27.9449 71.4544 27.9674 71.6294 27.8465C71.5079 27.6245 71.4571 27.3997 71.4771 27.1722C71.3001 27.2055 71.1303 27.2117 70.9679 27.1909C70.7077 27.073 70.7475 27.0007 71.0874 26.9741C71.1985 26.9133 71.1964 26.8568 71.0812 26.8043C70.7206 26.746 70.3775 26.6595 70.0518 26.5447C70.9392 26.6031 71.8062 26.6846 72.6528 26.789C72.7179 26.7743 72.7734 26.744 72.8194 26.6979C73.1817 26.8008 73.5525 26.8721 73.9321 26.912C74.1504 26.858 74.3777 26.8779 74.6141 26.9719C74.8324 26.9179 75.0597 26.9378 75.2962 27.0318C75.3613 27.0171 75.4168 26.9868 75.4628 26.9407C75.9377 26.9872 76.4076 27.0549 76.8725 27.1438C77.0614 27.0729 77.2129 26.954 77.3268 26.7872C77.4605 26.0754 77.5623 25.3776 77.6323 24.6939C77.6177 24.4226 77.6078 24.1538 77.6026 23.8876C77.6417 23.7302 77.693 23.5866 77.7568 23.4571C77.7503 23.6576 77.7717 23.8551 77.8211 24.0496C77.9103 23.5685 77.9775 23.0845 78.0226 22.5975C78.2087 22.372 78.2983 22.1138 78.2916 21.8227C78.4086 21.8318 78.5213 21.8134 78.6295 21.7678C78.56 21.7442 78.5018 21.7038 78.4551 21.6467C78.5791 21.5369 78.6792 21.5616 78.7552 21.7207C78.7596 21.5559 78.8261 21.4402 78.9549 21.3734Z" fill="#CA4A49"/>
<path fill-rule="evenodd" clip-rule="evenodd" d="M46.0099 24.4541C46.2294 24.6758 46.4861 24.7229 46.78 24.5957C46.8556 24.6798 46.9431 24.7474 47.0424 24.7985C46.8171 24.8351 46.5919 24.8718 46.3665 24.9083C46.4242 24.9345 46.4818 24.9608 46.5394 24.987C46.2759 25.0638 46.0202 25.0449 45.7725 24.9302C46.1995 24.8196 46.1817 24.7211 45.7191 24.6347C45.6593 24.6844 45.5897 24.7153 45.5101 24.7274C45.1131 24.6471 44.7155 24.6192 44.3172 24.6437C44.5156 24.6927 44.7152 24.7279 44.916 24.7492C44.8522 25.2005 44.7552 25.6432 44.6249 26.0771C44.4688 26.1187 44.3147 26.1669 44.1628 26.2216C43.8842 26.0639 43.5992 26.0178 43.3078 26.0831C43.2215 26.1148 43.1811 26.173 43.1868 26.2575C42.9007 26.2673 42.6015 26.2216 42.2894 26.1205C42.0835 26.1804 41.8703 26.16 41.6498 26.059C41.4254 26.1252 41.1981 26.1052 40.9677 25.9991C40.7695 26.0735 40.5704 26.0525 40.3705 25.9361C40.1461 26.0022 39.9188 25.9823 39.6885 25.8762C39.4616 25.9415 39.2342 25.9215 39.0064 25.8163C38.1667 25.707 37.3133 25.6109 36.4463 25.5279C36.2326 25.2961 36.0199 25.2898 35.8082 25.5089C35.3224 25.4829 34.852 25.401 34.397 25.2633C34.7786 25.2823 35.1479 25.3112 35.505 25.3501C35.5726 25.3214 35.6276 25.2769 35.67 25.2165C35.4931 25.2067 35.3218 25.1705 35.1561 25.108C35.1693 25.0792 35.1823 25.0503 35.1954 25.0215C35.4614 25.1051 35.7317 25.1377 36.0064 25.1192C35.9315 25.0634 35.8724 24.9948 35.8288 24.9133C36.0521 24.8196 36.2522 24.8689 36.4291 25.0612C36.6695 24.9955 36.911 25.0149 37.1536 25.1195C37.447 24.8076 37.6032 24.4337 37.6223 23.9975C37.8048 24.0526 37.9908 24.1024 38.1802 24.147C38.258 24.2142 38.2893 24.2981 38.2744 24.3985C38.4678 24.3822 38.635 24.3052 38.7758 24.1676C38.6829 24.0336 38.5833 24.023 38.4772 24.1361C38.4101 24.0421 38.4211 23.9567 38.5103 23.8799C38.5901 23.9302 38.676 23.9555 38.768 23.9554C38.8575 23.8602 38.9686 23.7995 39.1013 23.7732C39.5209 23.8748 39.9342 23.9446 40.3412 23.9826C40.5382 23.947 40.7352 23.9114 40.9322 23.8758C42.4218 24.0839 43.9012 24.256 45.3703 24.3926C45.5787 24.3335 45.7919 24.354 46.0099 24.4541Z" fill="#D11723"/>
<path fill-rule="evenodd" clip-rule="evenodd" d="M37.8561 24.5838C38.0243 24.6157 38.0557 24.6995 37.9503 24.8353C37.8726 24.768 37.8412 24.6842 37.8561 24.5838Z" fill="#ECA19F"/>
<path fill-rule="evenodd" clip-rule="evenodd" d="M40.911 24.4715C41.0547 24.4526 41.1967 24.4615 41.3369 24.4983C41.1235 24.6397 40.9312 24.8025 40.76 24.9869C40.7302 24.9455 40.7003 24.9041 40.6705 24.8627C40.7345 24.7208 40.8147 24.5903 40.911 24.4715Z" fill="#F5CECE"/>
<path opacity="0.259" fill-rule="evenodd" clip-rule="evenodd" d="M30.9943 25.1759C31.0875 25.1168 31.1996 25.0843 31.3307 25.0786C32.1248 25.1653 32.9205 25.2352 33.7179 25.2883C33.8236 25.3041 33.9101 25.3434 33.9772 25.4062C32.9689 25.4198 31.9746 25.343 30.9943 25.1759Z" fill="#CF3B4A"/>
<path fill-rule="evenodd" clip-rule="evenodd" d="M51.8056 24.9209C51.8279 25.0199 51.8028 25.1058 51.7301 25.1786C51.5344 25.0971 51.3359 25.0902 51.1345 25.158C51.446 25.3002 51.7618 25.4161 52.0821 25.5056C52.0663 25.8461 52.0504 26.1866 52.0347 26.5271C52.3031 26.4749 52.5319 26.5373 52.7214 26.7143C52.5579 26.7321 52.4007 26.6954 52.2499 26.6042C52.2368 26.633 52.2238 26.6618 52.2106 26.6906C52.3504 26.7643 52.4944 26.8298 52.6428 26.8872C52.5112 26.9099 52.3996 26.9565 52.308 27.027C52.1143 26.9633 51.9303 26.9701 51.7563 27.0473C51.5292 26.9281 51.3018 26.9081 51.0743 26.9873C50.8728 26.8804 50.6737 26.8595 50.4771 26.9243C50.2499 26.8052 50.0226 26.7852 49.795 26.8644C49.5822 26.7519 49.369 26.7313 49.1554 26.8029C48.925 26.6968 48.6977 26.6769 48.4733 26.743C48.2528 26.6421 48.0396 26.6216 47.8337 26.6815C47.4541 26.6417 47.0833 26.5703 46.721 26.4675C46.2967 26.4831 45.8723 26.4987 45.448 26.5143C45.2209 26.3952 44.9935 26.3751 44.7659 26.4544C44.5388 26.3352 44.3114 26.3152 44.0839 26.3945C43.9479 26.3265 43.8044 26.2751 43.6533 26.2403C43.5119 26.3007 43.3563 26.3064 43.1865 26.2575C43.1808 26.173 43.2212 26.1148 43.3076 26.0831C43.599 26.0178 43.8839 26.0639 44.1625 26.2216C44.3144 26.1669 44.4685 26.1187 44.6246 26.0771C44.7549 25.6432 44.8519 25.2005 44.9157 24.7492C44.7149 24.7279 44.5153 24.6927 44.317 24.6437C44.7152 24.6192 45.1129 24.6471 45.5098 24.7274C45.5894 24.7153 45.6591 24.6844 45.7188 24.6347C46.1814 24.7211 46.1992 24.8196 45.7722 24.9302C46.02 25.0449 46.2756 25.0638 46.5391 24.987C46.4815 24.9608 46.4239 24.9345 46.3663 24.9083C46.5916 24.8718 46.8168 24.8351 47.0421 24.7985C46.9428 24.7474 46.8554 24.6798 46.7797 24.5957C46.4858 24.7229 46.2291 24.6758 46.0096 24.454C46.2413 24.3922 46.4828 24.4116 46.7341 24.5124C46.7992 24.4977 46.8548 24.4673 46.9008 24.4213C47.2769 24.5229 47.6477 24.5942 48.0134 24.6353C48.2317 24.5813 48.459 24.6013 48.6955 24.6953C48.9014 24.6353 49.1146 24.6558 49.3351 24.7567C49.5595 24.6906 49.7868 24.7105 50.0172 24.8166C50.2416 24.7505 50.4689 24.7705 50.6992 24.8766C50.8975 24.8022 51.0966 24.8232 51.2964 24.9396C51.4567 24.8701 51.6264 24.8639 51.8056 24.9209Z" fill="#D01F29"/>
<path opacity="0.325" fill-rule="evenodd" clip-rule="evenodd" d="M69.6151 23.9263C69.7471 24.0258 69.8744 24.0211 69.997 23.9122C70.1356 23.9621 70.2655 24.0281 70.3868 24.1104C70.1023 24.1908 69.8188 24.1871 69.5365 24.0991C69.5652 24.04 69.5914 23.9824 69.6151 23.9263Z" fill="#CD4C4D"/>
<path fill-rule="evenodd" clip-rule="evenodd" d="M79.2272 24.1679C79.3332 24.2194 79.3934 24.3163 79.4078 24.4587C79.3832 24.5587 79.3585 24.6587 79.3339 24.7588C79.2442 24.5715 79.2086 24.3745 79.2272 24.1679Z" fill="#F4E8E8"/>
<path fill-rule="evenodd" clip-rule="evenodd" d="M59.0566 25.6741C59.1923 25.6206 59.3326 25.5871 59.4779 25.5737C59.8309 25.6401 60.1876 25.712 60.5481 25.7893C60.7756 25.7101 61.003 25.7301 61.2301 25.8492C61.5269 25.8312 61.824 25.8203 62.1213 25.8165C62.2678 25.8433 62.3558 25.925 62.3852 26.0617C62.3005 26.0502 62.245 26.0806 62.2186 26.1528C62.1339 26.1413 62.0784 26.1717 62.052 26.2439C62.1766 26.378 62.3091 26.5147 62.4495 26.6542C62.4702 26.5756 62.5106 26.5175 62.5706 26.4798C62.8153 26.9773 63.1421 27.3902 63.5509 27.7185C63.554 27.8034 63.5571 27.8882 63.5603 27.9731C62.65 27.9607 61.7128 27.896 60.7487 27.779C60.5602 27.5486 60.3475 27.5422 60.1106 27.76C59.7137 27.7135 59.3286 27.6426 58.9555 27.5475C59.2545 27.5545 59.5374 27.5441 59.8042 27.5163C59.6219 27.4678 59.4496 27.4033 59.2872 27.3228C59.3769 27.0972 59.4535 26.8679 59.5169 26.6345C59.2787 26.6181 59.1327 26.4959 59.0785 26.2682C59.1981 26.0953 59.3338 25.9345 59.4857 25.7859C59.3434 25.7394 59.2004 25.7022 59.0566 25.6741Z" fill="#CE3438"/>
<path fill-rule="evenodd" clip-rule="evenodd" d="M51.8059 24.9208C53.9087 25.0887 55.9842 25.2957 58.0325 25.5418C58.1927 25.6732 58.3634 25.6952 58.5448 25.608C58.6366 25.6013 58.7204 25.5698 58.7963 25.5137C58.8849 25.5694 58.9718 25.6228 59.0571 25.6741C59.2009 25.7021 59.3439 25.7394 59.4862 25.7858C59.3343 25.9345 59.1986 26.0953 59.079 26.2682C59.1332 26.4959 59.2792 26.618 59.5174 26.6345C59.454 26.8678 59.3774 27.0972 59.2877 27.3228C59.4501 27.4033 59.6224 27.4678 59.8047 27.5163C59.5379 27.5441 59.255 27.5545 58.956 27.5474C58.7751 27.5753 58.5923 27.6104 58.4075 27.6526C58.3488 27.5981 58.2902 27.5436 58.2315 27.4891C58.0645 27.5077 57.8958 27.5423 57.7254 27.5927C55.9108 27.3437 54.1051 27.1551 52.3082 27.027C52.3999 26.9565 52.5115 26.9099 52.643 26.8872C52.4947 26.8298 52.3507 26.7642 52.2109 26.6906C52.224 26.6618 52.2371 26.633 52.2502 26.6042C52.4009 26.6953 52.5581 26.7321 52.7217 26.7143C52.5322 26.5373 52.3033 26.4749 52.0349 26.5271C52.0507 26.1866 52.0666 25.8461 52.0823 25.5056C51.7621 25.416 51.4463 25.3002 51.1348 25.158C51.3361 25.0901 51.5347 25.097 51.7304 25.1786C51.803 25.1058 51.8282 25.0199 51.8059 24.9208Z" fill="#CF2B32"/>
<path opacity="0.953" fill-rule="evenodd" clip-rule="evenodd" d="M58.0326 25.5418C58.2213 25.5098 58.3921 25.5319 58.5449 25.608C58.3635 25.6952 58.1927 25.6732 58.0326 25.5418Z" fill="#E88A8C"/>
<path fill-rule="evenodd" clip-rule="evenodd" d="M62.0521 26.2439C62.0785 26.1717 62.134 26.1413 62.2187 26.1528C62.247 26.1517 62.2753 26.1507 62.3036 26.1496C62.2849 26.3454 62.2011 26.3768 62.0521 26.2439Z" fill="#F3D1CB"/>
<path opacity="0.08" fill-rule="evenodd" clip-rule="evenodd" d="M65.2774 26.1254C65.5359 26.1043 65.7916 26.1233 66.0444 26.1822C66.2276 26.2279 66.3025 26.3385 66.269 26.5138C66.0334 26.4324 65.7904 26.3705 65.5398 26.3282C65.4017 26.3132 65.3142 26.2456 65.2774 26.1254Z" fill="#D66467"/>
<path fill-rule="evenodd" clip-rule="evenodd" d="M65.5123 27.9013C65.5652 28.0076 65.6218 28.0055 65.682 27.8951C65.6408 27.8288 65.5831 27.8026 65.5092 27.8165C65.5765 27.5381 65.7389 27.3338 65.9966 27.2037C66.0569 27.2461 66.1014 27.3011 66.1301 27.3687C66.2124 27.1134 66.3911 26.9652 66.6662 26.9241C66.8205 26.6302 67.0537 26.4233 67.3657 26.3035C68.2468 26.3863 69.1421 26.4667 70.0515 26.5447C70.3772 26.6596 70.7203 26.746 71.0809 26.8043C71.1961 26.8568 71.1982 26.9133 71.0871 26.9741C70.7472 27.0007 70.7074 27.073 70.9676 27.1909C71.13 27.2117 71.2997 27.2055 71.4768 27.1722C71.4568 27.3998 71.5075 27.6245 71.6291 27.8465C71.4541 27.9675 71.2974 27.9449 71.1592 27.7788C71.1433 27.8845 71.104 27.9709 71.0412 28.038C70.9564 28.0412 70.8715 28.0443 70.7866 28.0474C70.7897 28.1323 70.7929 28.2171 70.796 28.302C70.9091 28.2979 71.0223 28.2937 71.1355 28.2895C71.3088 28.1907 71.4896 28.0991 71.6777 28.0146C71.7792 28.1563 71.9081 28.1941 72.0643 28.1279C72.2121 28.0476 72.265 27.9466 72.2232 27.8246C72.3009 27.8919 72.3323 27.9757 72.3174 28.0761C72.5791 28.0318 72.7808 28.1236 72.9224 28.3513C72.6637 28.3826 72.4107 28.4344 72.1632 28.5067C71.9445 28.2923 71.7758 28.3268 71.6571 28.6103C71.238 28.7369 70.8136 28.7525 70.3841 28.6571C69.7571 28.5249 69.1547 28.3204 68.5769 28.0436C67.9806 28.4382 67.331 28.4904 66.6281 28.2003C66.4445 28.2263 66.2617 28.2613 66.0796 28.3054C65.4879 28.2133 64.8755 28.1224 64.2424 28.033C64.1868 28.0633 64.1314 28.0938 64.0758 28.1241C63.9677 28.0303 63.9641 27.9313 64.0649 27.8271C63.8668 27.7185 63.8479 27.5917 64.0084 27.4467C64.0598 27.3032 64.0546 27.1618 63.9928 27.0224C63.8274 26.7593 63.6074 26.555 63.3329 26.4093C63.0682 26.3564 62.8141 26.38 62.5706 26.4798C62.5107 26.5175 62.4703 26.5756 62.4496 26.6542C62.3091 26.5147 62.1766 26.378 62.0521 26.2439C62.2011 26.3768 62.2849 26.3455 62.3035 26.1497C62.3602 26.1476 62.3874 26.1183 62.3853 26.0617C62.5374 25.8797 62.7203 25.8446 62.9338 25.9565C62.9312 26.0618 62.9484 26.1462 62.9856 26.2096C63.0606 26.1099 63.1313 26.1073 63.1978 26.2018C63.2214 26.1322 63.2618 26.0741 63.3189 26.0274C63.4105 26.099 63.5117 26.152 63.6221 26.1862C63.7978 26.1128 63.9807 26.0778 64.1707 26.081C64.175 26.6409 64.2937 27.1747 64.527 27.6826C64.847 27.8756 65.1754 27.9485 65.5123 27.9013Z" fill="#CD4143"/>
<path fill-rule="evenodd" clip-rule="evenodd" d="M67.251 26.6477C67.5087 26.7499 67.7675 26.8537 68.0273 26.9591C67.6903 27.0561 67.4315 26.9523 67.251 26.6477Z" fill="#EDCAC6"/>
<path fill-rule="evenodd" clip-rule="evenodd" d="M68.1972 26.9528C68.3103 26.9487 68.4235 26.9445 68.5366 26.9403C68.5465 27.3393 68.4066 27.3869 68.117 27.0832C68.163 27.049 68.1897 27.0055 68.1972 26.9528Z" fill="#E08E8E"/>
<path fill-rule="evenodd" clip-rule="evenodd" d="M68.7973 27.1007C68.9104 27.0966 69.0236 27.0924 69.1367 27.0883C69.1768 27.3971 69.0406 27.5436 68.728 27.5282C68.711 27.3765 68.7341 27.2341 68.7973 27.1007Z" fill="#F8EFEE"/>
<path fill-rule="evenodd" clip-rule="evenodd" d="M70.1584 27.1357C70.2744 27.1181 70.3882 27.1281 70.4994 27.1657C70.4362 27.313 70.3256 27.3878 70.1677 27.3903C70.1646 27.3054 70.1615 27.2206 70.1584 27.1357Z" fill="#F1C2C0"/>
<path fill-rule="evenodd" clip-rule="evenodd" d="M69.401 27.3335C69.6949 27.3369 69.7263 27.4207 69.4953 27.585C69.4175 27.5177 69.3861 27.4339 69.401 27.3335Z" fill="#F1BCB9"/>
<path fill-rule="evenodd" clip-rule="evenodd" d="M64.2269 27.6086C64.4185 27.6714 64.4793 27.7825 64.4091 27.9419C64.2698 27.8773 64.2091 27.7662 64.2269 27.6086Z" fill="#EFC6BB"/>
<path fill-rule="evenodd" clip-rule="evenodd" d="M70.7619 27.3685C71.012 27.4156 71.0738 27.555 70.9472 27.7866C70.8199 27.6765 70.7581 27.5372 70.7619 27.3685Z" fill="#F1D0CB"/>
<path fill-rule="evenodd" clip-rule="evenodd" d="M71.6166 27.507C71.7729 27.5131 71.8033 27.5686 71.7077 27.6736C71.6386 27.6373 71.6082 27.5817 71.6166 27.507Z" fill="#E1D2C1"/>
<path fill-rule="evenodd" clip-rule="evenodd" d="M65.5099 27.8165C65.5838 27.8027 65.6414 27.8288 65.6827 27.8951C65.6224 28.0055 65.5659 28.0076 65.513 27.9014C65.5119 27.8731 65.5109 27.8448 65.5099 27.8165Z" fill="#EDB9C3"/>
<path fill-rule="evenodd" clip-rule="evenodd" d="M69.9221 27.6543C70.1723 27.6125 70.2603 27.6943 70.1861 27.8995C70.0395 27.8727 69.9515 27.7909 69.9221 27.6543Z" fill="#F5D2D0"/>
<path opacity="0.082" fill-rule="evenodd" clip-rule="evenodd" d="M63.5508 27.7185C63.9904 27.926 63.9935 28.0109 63.5601 27.9731C63.557 27.8882 63.5539 27.8034 63.5508 27.7185Z" fill="#D97D85"/>
<path fill-rule="evenodd" clip-rule="evenodd" d="M74.4269 27.6587C74.677 27.7058 74.7388 27.8452 74.6122 28.0768C74.4629 27.983 74.4011 27.8436 74.4269 27.6587Z" fill="#F3D5D2"/>
<path fill-rule="evenodd" clip-rule="evenodd" d="M71.0417 28.0381C71.0963 28.1118 71.1276 28.1956 71.1359 28.2896C71.0228 28.2937 70.9096 28.2979 70.7965 28.302C70.7933 28.2172 70.7902 28.1323 70.7871 28.0474C70.872 28.0443 70.9568 28.0412 71.0417 28.0381Z" fill="#EEB4B4"/>
<path fill-rule="evenodd" clip-rule="evenodd" d="M72.9961 28.0511C73.081 28.048 73.1658 28.0449 73.2507 28.0418C73.2538 28.1267 73.2569 28.2115 73.2601 28.2964C73.1752 28.2995 73.0903 28.3026 73.0055 28.3058C73.0023 28.2209 72.9992 28.136 72.9961 28.0511Z" fill="#F1BEBB"/>
<path fill-rule="evenodd" clip-rule="evenodd" d="M74.1127 28.3501C74.269 28.3561 74.2994 28.4117 74.2038 28.5167C74.1347 28.4804 74.1043 28.4248 74.1127 28.3501Z" fill="#E2CFBA"/>
<path fill-rule="evenodd" clip-rule="evenodd" d="M75.2219 28.4793C75.0777 28.4823 74.9624 28.4299 74.8762 28.322C74.854 28.223 74.8791 28.1371 74.9517 28.0643C75.0582 28.1981 75.1483 28.3364 75.2219 28.4793Z" fill="#F7ECE6"/>
<path opacity="0.969" fill-rule="evenodd" clip-rule="evenodd" d="M74.876 28.322C74.9621 28.4298 75.0774 28.4823 75.2217 28.4793C75.2238 28.5359 75.2258 28.5924 75.2279 28.649C75.1043 28.6593 74.9901 28.6352 74.8853 28.5766C74.8822 28.4918 74.8791 28.4069 74.876 28.322Z" fill="#E49A9F"/>
<path fill-rule="evenodd" clip-rule="evenodd" d="M75.8218 28.6272C75.9143 28.634 75.973 28.6885 75.9978 28.7907C75.9716 28.8483 75.9453 28.9059 75.9191 28.9635C75.8366 28.8655 75.8042 28.7534 75.8218 28.6272Z" fill="#E9C4B8"/>
</g>
<defs>
<clipPath id="clip0_1652_5">
<rect width="80" height="28.9597" fill="white" transform="translate(0.495117 3.47906) rotate(-2.1051)"/>
</clipPath>
</defs>
</svg>
