<svg width="64" height="33" viewBox="0 0 64 33" fill="none" xmlns="http://www.w3.org/2000/svg">
<g clip-path="url(#clip0_1653_687)">
<path fill-rule="evenodd" clip-rule="evenodd" d="M3.85823 6.22307C3.86509 6.30406 3.97009 6.36192 4.09158 6.35164C4.21307 6.34137 4.30686 6.26669 4.30001 6.1857C4.29316 6.10471 4.18815 6.04685 4.06666 6.05713C3.94518 6.06741 3.85138 6.14208 3.85823 6.22307ZM3.66952 6.69391C3.62336 6.78472 3.62409 6.89144 3.67089 6.93109C3.7854 7.02759 4.05683 6.81746 4.04213 6.6437C4.02621 6.4555 3.7731 6.48952 3.66952 6.69391ZM4.73403 6.95787C4.7053 7.08637 4.66056 7.28859 4.63456 7.40722C4.6087 7.52583 4.68966 7.69399 4.81448 7.78087C4.93945 7.86789 5.04448 7.88051 5.04807 7.80901C5.05168 7.73767 5.12206 7.87365 5.20446 8.11139L5.35419 8.54366L5.33372 8.09304C5.3224 7.84528 5.3859 7.55619 5.47486 7.45078C5.58729 7.31758 5.58641 7.26337 5.47214 7.27303C5.38172 7.28068 5.2852 7.3722 5.25755 7.47658C5.23004 7.58094 5.15312 7.62364 5.08657 7.57157C5.02017 7.5195 4.99511 7.37583 5.03093 7.25222C5.08362 7.07038 5.20075 7.04713 5.6459 7.13034C5.9482 7.18693 6.4591 7.16552 6.78119 7.08265C7.13667 6.99118 7.33778 6.98944 7.29278 7.07809C7.19441 7.27224 9.41528 7.41154 9.87672 7.24021C10.1364 7.14394 9.69665 7.05938 8.29372 6.93601C5.33875 6.67624 4.79636 6.67956 4.73403 6.95787ZM6.04282 7.03092C6.18927 7.0562 6.38786 7.03688 6.48413 6.9881C6.58041 6.93931 6.46062 6.91875 6.21789 6.94225C5.97517 6.96575 5.89638 7.00563 6.04282 7.03092ZM13.3761 6.53025C13.3864 6.65174 13.4611 6.74553 13.5421 6.73868C13.6231 6.73183 13.6809 6.62682 13.6706 6.50533C13.6604 6.38385 13.5857 6.29005 13.5047 6.29691C13.4237 6.30376 13.3659 6.40876 13.3761 6.53025ZM13.9167 7.06857C13.9805 7.20036 13.9027 7.30542 13.698 7.36352C13.4154 7.44349 13.4222 7.45225 13.7586 7.44174C13.9667 7.43526 14.2739 7.51636 14.4412 7.62189C14.6084 7.72758 14.8813 7.80461 15.0476 7.79306C15.214 7.78166 15.4176 7.82256 15.5003 7.88424C15.5831 7.94576 15.9086 7.89004 16.2239 7.76029C16.6135 7.59994 16.6907 7.52963 16.4649 7.54102C16.2823 7.55024 16.1284 7.50749 16.1232 7.44623C16.118 7.38483 15.8204 7.38316 15.4617 7.44242C14.9109 7.53351 14.7499 7.49552 14.423 7.19763C13.9973 6.80977 13.7625 6.74984 13.9167 7.06857ZM18.4505 7.16437C18.1539 7.2706 18.0306 7.84208 18.3095 7.81849C18.418 7.80931 18.7 7.86258 18.9359 7.93695C19.1718 8.01132 19.4885 8.04548 19.6399 8.01296C19.7911 7.98044 19.9608 8.01487 20.0171 8.08961C20.0754 8.16713 20.3684 8.16193 20.7001 8.07751C21.2447 7.93889 21.2019 7.92427 20.0146 7.84244C19.3182 7.79441 18.6907 7.72603 18.6202 7.69032C18.5497 7.65446 18.5954 7.48968 18.7217 7.32401C18.9494 7.02503 18.9077 7.00052 18.4505 7.16437ZM4.41725 9.32487C4.50885 10.4077 4.18615 14.9401 3.99804 15.2146C3.92635 15.3192 3.91407 15.4669 3.9705 15.5431C4.02693 15.6193 3.97695 17.0307 3.85943 18.6798C3.74191 20.3288 3.67252 21.7001 3.70536 21.7271C3.76035 21.7723 7.49187 22.0792 9.58588 22.2109C10.0779 22.2418 10.9023 22.3074 11.418 22.3567L12.3555 22.4464L12.0135 22.8217C11.6005 23.2748 11.5912 23.3631 11.9708 23.2288C12.1292 23.1727 12.2512 23.0365 12.2418 22.9259C12.2189 22.6554 12.8248 22.4649 13.4929 22.5326C13.793 22.563 14.2794 22.5969 14.5737 22.6079C14.8679 22.6189 15.4784 22.6597 15.9304 22.6985C16.3823 22.7373 17.4899 22.813 18.3917 22.8666C19.2935 22.9202 20.2033 23.0239 20.4134 23.0968C20.6235 23.1697 20.9431 23.2011 21.1235 23.1668C21.3039 23.1324 21.8226 23.149 22.276 23.2039C22.8657 23.2752 23.1062 23.3714 23.1206 23.5421C23.1383 23.7512 23.1617 23.7466 23.3087 23.505C23.4341 23.2992 23.5836 23.2468 23.8985 23.298C24.1306 23.3359 24.2639 23.4128 24.1948 23.469C24.0543 23.5833 24.0802 24.2378 24.2247 24.2256C24.2753 24.2213 24.3782 24.0457 24.4533 23.8355C24.6246 23.3557 24.7236 23.349 27.8717 23.6028L30.3357 23.8015L30.3739 24.2709C30.395 24.5291 30.4626 24.7361 30.524 24.7309C30.5856 24.7256 30.6272 24.6054 30.6164 24.4635C30.5801 23.9837 30.7749 23.811 31.2875 23.8693C31.6306 23.9082 31.7314 23.9742 31.6303 24.0942C31.407 24.3586 31.4936 24.8028 31.7449 24.6813C31.8624 24.6243 31.9489 24.4633 31.9371 24.3236C31.9046 23.9393 32.0047 23.8916 32.6909 23.9656C33.0377 24.003 33.8083 24.0686 34.4034 24.1116C35.1168 24.163 35.4909 24.2561 35.5018 24.385C35.5109 24.4923 35.438 24.6168 35.3398 24.6616C35.2417 24.7063 35.2162 24.7925 35.2833 24.8533C35.3506 24.914 35.4839 24.835 35.5798 24.6775C35.7644 24.3743 36.0992 24.4344 36.1281 24.7759C36.1375 24.8878 36.2225 25.0185 36.3168 25.0663C36.4365 25.1269 36.4451 25.0138 36.3456 24.6925L36.2028 24.2318L36.7764 24.2754C37.092 24.2992 37.8215 24.3686 38.3976 24.4295C39.3265 24.5277 40.0399 24.5838 42.097 24.72C42.4249 24.7417 42.6271 24.8233 42.5806 24.9151C42.5366 25.0017 42.4178 25.0487 42.3165 25.0194C42.2152 24.99 41.9893 25.0944 41.8143 25.2512L41.4962 25.5363L41.9872 25.4326C42.2572 25.3757 42.5742 25.2815 42.6916 25.2235C42.8091 25.1655 43.0151 25.103 43.1496 25.0845C43.2839 25.0662 43.4309 25.0073 43.4761 24.9538C43.5919 24.8165 44.1951 24.8438 48.2201 25.168C50.1754 25.3255 51.8378 25.4491 51.9141 25.4427C51.9903 25.4362 52.0679 25.5464 52.0862 25.6877C52.1062 25.841 52.1433 25.8678 52.1783 25.754C52.2107 25.6492 52.3689 25.5525 52.53 25.5389C52.8487 25.5119 56.8721 25.7878 56.9566 25.8425C56.985 25.8609 56.9106 26.0568 56.791 26.2779C56.5367 26.7482 56.7492 26.7966 57.0921 26.3467C57.2866 26.0915 57.4909 26.0307 58.2627 25.9988C59.3475 25.9542 59.2327 26.1922 59.3999 23.6407C59.492 22.237 59.5575 21.9272 59.7792 21.8486C60.0994 21.7354 60.1179 21.4858 59.8042 21.5124C59.5314 21.5355 59.5372 21.6601 59.7127 19.5452C59.7933 18.5745 59.8569 17.7515 59.8539 17.7164C59.8509 17.6813 59.9644 17.6407 60.1058 17.6263C60.3333 17.6031 60.3349 17.5865 60.1187 17.4834C59.8983 17.3784 59.8931 17.1138 60.0666 14.8097C60.1936 13.122 60.3337 12.1548 60.4781 11.9652C60.6224 11.7758 60.6409 11.6492 60.5321 11.594C60.4413 11.548 60.3568 11.3889 60.3443 11.2405C60.3201 10.9554 60.1208 10.8968 58.9374 10.8269C58.4306 10.7971 58.2204 10.717 58.1974 10.5451C58.1771 10.3931 58.1438 10.375 58.1067 10.4956C58.0378 10.7187 57.3986 10.8055 57.2547 10.6112C57.2003 10.5378 57.0709 10.5187 56.9675 10.5688C56.6731 10.7113 52.2218 10.3223 52.0885 10.1425C52.0165 10.0454 51.841 10.0349 51.6446 10.1162C51.4606 10.1921 50.1924 10.1638 48.7195 10.0507C46.4067 9.87317 46.1244 9.82141 46.1658 9.58269C46.2237 9.24825 46.0027 9.24499 45.9059 9.57872C45.8504 9.77059 45.7169 9.81139 45.2883 9.768C44.9875 9.73754 44.1335 9.67364 43.3904 9.62615C42.6472 9.57853 42.0084 9.46809 41.9708 9.38051C41.9292 9.28391 41.84 9.27811 41.7437 9.36591C41.5383 9.55265 37.591 9.25105 37.5009 9.0417C37.4644 8.95654 37.3257 8.93209 37.1929 8.98722C37.0383 9.05132 37.0091 9.03733 37.1116 8.94827C37.3355 8.75358 37.0993 7.96927 36.8527 8.08861C36.7477 8.13946 36.6173 8.12098 36.5629 8.04757C36.4251 7.86183 35.7419 7.9386 35.7588 8.13799C35.7665 8.2287 35.8764 8.25069 36.007 8.18759C36.2684 8.06092 36.8201 8.41127 36.8462 8.72051C36.8619 8.90547 36.4979 9.0294 35.9813 9.01467C35.1688 8.99174 34.5646 8.95506 33.447 8.8611C32.7487 8.80241 30.7578 8.65403 29.0229 8.53161L25.8686 8.30887L25.9956 7.9186C26.0655 7.70401 26.2153 7.43699 26.3285 7.32552C26.6795 6.97963 26.2444 7.1293 25.8624 7.48582C25.4644 7.85735 25.2015 7.81685 25.1644 7.37817C25.1511 7.2209 25.0442 7.10046 24.9269 7.11039C24.7422 7.12601 24.7493 7.1972 24.9805 7.64096C25.1273 7.92294 25.2285 8.17437 25.2056 8.19974C25.0716 8.34782 22.4477 8.00057 22.2719 7.81151C22.1511 7.68158 22.074 7.66362 22.0828 7.76758C22.091 7.86404 21.916 7.96605 21.6942 7.99431C21.4047 8.03111 21.3753 8.05628 21.5904 8.08302C22.5877 8.20734 22.6212 8.2177 22.4455 8.3481C22.3068 8.4509 22.3207 8.49629 22.5074 8.55035C22.6398 8.58883 22.7436 8.56552 22.7379 8.49881C22.7323 8.43195 23.2493 8.42812 23.8866 8.49018C24.8757 8.58656 26.2023 8.69161 28.1793 8.83018C28.4255 8.84748 29.4638 8.89238 30.4866 8.92999C31.5094 8.96775 32.6837 9.04253 33.0961 9.09604C34.119 9.22916 36.6866 9.47128 38.4035 9.5967C39.1832 9.65369 40.0901 9.72277 40.4187 9.75044C40.7473 9.77796 41.199 9.79121 41.4223 9.77989C41.6456 9.76842 41.834 9.82544 41.8408 9.90644C41.8477 9.98743 42.1351 10.031 42.4794 10.0034C43.383 9.93067 48.4668 10.3242 48.5382 10.4724C48.5715 10.5411 48.6609 10.5511 48.7369 10.4947C48.9351 10.3477 51.2386 10.5464 51.2525 10.7116C51.259 10.7874 51.4012 10.801 51.5683 10.7418C51.7357 10.6826 52.7211 10.6938 53.758 10.7667C56.2025 10.9386 56.345 10.9599 56.2544 11.1386C56.2125 11.2213 56.2428 11.2836 56.3219 11.2769C56.4008 11.2702 56.482 11.197 56.5023 11.1142C56.5256 11.018 57.0249 11.0035 57.8831 11.0741C59.9202 11.2414 59.9011 11.2363 59.9131 11.6062C59.9212 11.8566 59.9023 11.8754 59.8347 11.6842C59.7856 11.5457 59.6345 11.4426 59.4988 11.4553C59.3003 11.474 59.2941 11.5003 59.4669 11.5904C59.6092 11.6645 59.6603 11.8349 59.618 12.0945C59.5805 12.3249 59.616 12.4813 59.7042 12.4739C59.7867 12.4669 59.8599 12.5274 59.8667 12.6084C59.8736 12.6894 59.8005 12.7456 59.7044 12.7334C59.5059 12.7081 59.271 14.2282 59.3504 15.0251C59.3851 15.3744 59.4313 15.2174 59.4942 14.537C59.5766 13.6441 59.7532 13.0191 59.7923 13.4814C59.8413 14.0611 59.5632 16.5752 59.44 16.6666C59.3584 16.727 59.3474 16.8521 59.4159 16.9443C59.5592 17.1378 59.2711 21.4092 59.1138 21.4225C59.0564 21.4273 59.0529 21.5541 59.1061 21.7043C59.1593 21.8545 59.1512 22.6395 59.0881 23.4485C58.9062 25.7814 58.955 25.6376 58.3607 25.592C58.0767 25.5702 57.732 25.4577 57.5948 25.3419C57.4577 25.2263 57.2349 25.1486 57.0998 25.1695C56.8809 25.2033 56.8829 25.2125 57.1174 25.253C57.2622 25.2781 57.3864 25.3645 57.3932 25.445C57.4 25.5254 57.2868 25.5694 57.1419 25.5427C56.9968 25.5158 56.4415 25.4597 55.9077 25.4176C54.8192 25.3322 49.3886 24.9232 46.4296 24.7038C44.0794 24.5296 43.9763 24.5115 44.2366 24.3185C44.352 24.2329 44.0828 24.2222 43.5627 24.2917C42.8783 24.3831 40.7688 24.3189 40.38 24.1949C40.338 24.1816 40.4649 24.1035 40.6619 24.0216L41.0201 23.8725L40.6139 23.8921C40.3906 23.9029 40.2133 23.9779 40.2201 24.0589C40.2358 24.2434 39.6944 24.2996 39.5663 24.1268C39.5143 24.0567 39.5525 23.9631 39.6512 23.919C39.75 23.8749 39.5523 23.8347 39.2121 23.8295C38.8719 23.8245 38.6293 23.8686 38.673 23.9276C38.7808 24.0729 38.5625 24.0824 37.2055 23.9918C36.3527 23.9348 36.0593 23.8608 36.102 23.7134C36.1385 23.5876 36.0486 23.522 35.8617 23.5378C35.6732 23.5537 35.6072 23.6225 35.6826 23.7244C35.77 23.8421 35.6443 23.8697 35.218 23.8264C34.8966 23.7938 34.3674 23.7566 34.0418 23.7436C33.7162 23.7307 33.1447 23.6811 32.7719 23.6335C32.399 23.5858 32.0104 23.5456 31.9083 23.5443C31.8063 23.543 31.719 23.5032 31.7145 23.456C31.7101 23.4089 31.3255 23.398 30.8597 23.432C29.909 23.5015 29.1908 23.4166 29.1752 23.2328C29.1657 23.1202 30.2114 23.1435 31.1069 23.276C31.4657 23.329 31.4685 23.3236 31.1706 23.152C30.8848 22.9873 26.7918 22.7414 26.6733 22.8816C26.645 22.9152 27.1274 22.981 27.7452 23.0277C28.363 23.0745 28.8743 23.1813 28.8813 23.2651C28.8886 23.3508 28.7778 23.3823 28.6279 23.3373C28.4814 23.2931 28.127 23.2451 27.8402 23.2305C26.3504 23.1545 25.2166 23.0606 25.0985 23.0034C25.0257 22.9682 25.0511 22.8747 25.1551 22.7957C25.2839 22.6981 25.1953 22.6642 24.8776 22.6894C24.6212 22.71 24.3926 22.8039 24.3697 22.8982C24.3427 23.01 24.1987 23.0388 23.9565 22.9811L23.5848 22.8925L23.9441 22.7573C24.15 22.6798 23.8008 22.673 23.1271 22.7413C22.48 22.807 21.6805 22.8224 21.3502 22.7756L20.7498 22.6904L21.1838 22.5616C21.5423 22.455 21.414 22.4146 20.4457 22.3287C19.5318 22.2477 19.2527 22.2661 19.1784 22.4127C19.033 22.6995 17.5877 22.5877 17.2281 22.2617C17.0633 22.1124 16.8208 22.0377 16.671 22.0901C16.4554 22.1656 16.468 22.181 16.7386 22.172C16.9216 22.1661 17.0774 22.2327 17.0848 22.32C17.0931 22.4175 16.9244 22.4605 16.6493 22.431C16.4023 22.4047 15.9976 22.3614 15.75 22.335C15.5023 22.3085 15.3303 22.2265 15.3676 22.1529C15.405 22.0791 15.1793 21.9686 14.8662 21.907C14.1145 21.7594 11.9733 21.6667 11.8797 21.7777C11.8391 21.8257 11.9828 21.85 12.1986 21.8317C12.4147 21.8135 12.597 21.8648 12.6038 21.9458C12.6193 22.1285 12.5099 22.1332 11.1599 22.0077C9.76401 21.8778 9.55789 21.7011 10.8035 21.7019L11.7675 21.7024L10.5716 21.5906C9.91382 21.5291 9.27836 21.5122 9.15948 21.5533C9.04058 21.5942 9.09696 21.6225 9.28478 21.6161C9.47259 21.6097 9.59637 21.6633 9.5599 21.7354C9.46165 21.9292 5.28771 21.5836 5.10591 21.3666C4.99655 21.2361 4.9372 21.234 4.89751 21.3593C4.86206 21.4714 4.69562 21.5078 4.43531 21.4602C4.06821 21.3933 4.02885 21.3294 4.03163 20.8047C4.03336 20.4851 4.07 20.1538 4.11307 20.0686C4.15629 19.9834 4.16098 19.7724 4.1237 19.5999C4.08641 19.4273 4.12347 19.236 4.20594 19.1747C4.28856 19.1136 4.31242 19.0047 4.25903 18.9328C4.17413 18.8181 4.51168 13.1218 4.6381 12.5386C4.68056 12.3428 4.70486 12.3408 4.84161 12.5214C4.95963 12.6771 4.98938 12.629 4.96514 12.3214C4.94747 12.0985 4.87448 11.9212 4.80291 11.9273C4.73135 11.9333 4.7181 11.4839 4.77331 10.9287C4.93667 9.2885 4.948 8.24951 4.79958 8.51642C4.71244 8.67329 4.66398 8.68955 4.6519 8.56599C4.64216 8.46492 4.56785 8.38771 4.48686 8.39456C4.4044 8.40154 4.37379 8.81109 4.41725 9.32487ZM27.3378 7.648C27.2049 7.82238 27.1624 7.95945 27.2434 7.9526C27.3244 7.94575 27.4995 7.79746 27.6323 7.62308C27.7651 7.44871 27.8076 7.31163 27.7266 7.31848C27.6457 7.32533 27.4706 7.47362 27.3378 7.648ZM29.3512 7.78082C29.3561 7.8384 29.4664 7.95958 29.5965 8.05017C29.7928 8.18691 29.8287 8.16608 29.8085 7.92679C29.7951 7.76834 29.6847 7.64716 29.5632 7.65744C29.4417 7.66771 29.3463 7.72324 29.3512 7.78082ZM35.1964 8.10651C35.3487 8.24105 35.5102 8.30733 35.5553 8.25368C35.6005 8.20018 35.4759 8.09014 35.2786 8.00909C34.9355 7.86829 34.9319 7.87261 35.1964 8.10651ZM3.42078 11.5711C3.42747 11.6502 3.54133 11.7461 3.67377 11.7846C3.82169 11.8274 3.88636 11.7889 3.84132 11.6843C3.74937 11.4703 3.4044 11.3775 3.42078 11.5711ZM49.1293 9.20549C49.0425 9.37671 49.2896 9.53289 49.4142 9.38532C49.5422 9.23344 49.4993 9.03611 49.341 9.0495C49.2647 9.05596 49.1695 9.12615 49.1293 9.20549ZM51.5857 9.43877C51.7992 9.57881 52.0231 9.65686 52.0834 9.61216C52.1437 9.56761 52.235 9.61773 52.2862 9.72374C52.384 9.92563 53.2682 9.99202 53.2513 9.79634C53.2461 9.73434 53.0709 9.68806 52.8622 9.6937C52.6534 9.6992 52.3949 9.60286 52.2876 9.4795C52.1805 9.35627 51.8914 9.23939 51.6451 9.21973L51.1975 9.18418L51.5857 9.43877ZM53.701 9.8507C54.0528 10.0262 54.5872 10.0335 54.6223 9.86337C54.6394 9.78036 54.3868 9.71749 54.061 9.72369C53.6529 9.73137 53.5409 9.77095 53.701 9.8507ZM57.7126 9.80618C57.5208 9.87772 57.3437 10.0195 57.3191 10.1214C57.2547 10.3873 57.4585 10.3319 57.9366 9.95379C58.3661 9.61386 58.3163 9.58114 57.7126 9.80618ZM59.5771 10.0608C59.305 10.3177 59.3054 10.3193 59.6163 10.2178C59.8563 10.1395 59.9142 10.1709 59.8619 10.3511C59.8206 10.4937 59.8515 10.544 59.94 10.4784C60.1566 10.3177 60.2221 9.75956 60.0216 9.78216C59.9281 9.79258 59.7281 9.91806 59.5771 10.0608ZM3.10982 21.9209C3.11953 22.0356 3.04753 22.1698 2.94968 22.2193C2.84343 22.273 2.8761 22.3051 3.03057 22.299C3.19465 22.2925 3.28014 22.181 3.26434 21.9943C3.25064 21.8323 3.20629 21.7026 3.1658 21.706C3.1253 21.7094 3.10012 21.8062 3.10982 21.9209ZM7.41088 21.4497C7.55732 21.475 7.75591 21.4556 7.85219 21.4069C7.94847 21.3581 7.82867 21.3375 7.58595 21.361C7.34322 21.3845 7.26443 21.4244 7.41088 21.4497ZM8.30688 21.5222C8.45332 21.5475 8.65191 21.5281 8.74819 21.4794C8.84447 21.4306 8.72467 21.41 8.48195 21.4335C8.23922 21.457 8.16043 21.4969 8.30688 21.5222ZM6.60977 22.4095C6.66737 22.4873 7.0014 22.5683 7.35219 22.5898C7.70283 22.6112 8.14341 22.658 8.33124 22.6939C8.58314 22.742 8.64789 22.7079 8.57816 22.5638C8.52621 22.4564 8.33464 22.3746 8.15269 22.3819C7.97074 22.3893 7.52553 22.3668 7.16337 22.3319C6.72778 22.2898 6.54046 22.316 6.60977 22.4095ZM12.8126 22.0308C12.8734 22.0821 13.0722 22.1317 13.2545 22.1408C13.4367 22.15 13.7379 22.1797 13.9236 22.2068C14.1094 22.234 14.2565 22.1963 14.2503 22.1233C14.2441 22.0501 14.0865 21.963 13.9002 21.9295C13.4344 21.846 12.6772 21.9166 12.8126 22.0308ZM14.6292 22.2194C15.046 22.3582 15.1592 22.3487 15.1446 22.1758C15.1377 22.0948 14.9504 22.0486 14.728 22.0731C14.37 22.1127 14.3587 22.1292 14.6292 22.2194ZM9.193 22.8279C9.11393 22.9837 9.43274 23.0584 10.2523 23.0759C10.5792 23.0829 10.7282 23.0705 10.5837 23.0484C10.4391 23.0262 10.3146 22.9354 10.3071 22.8466C10.2995 22.7577 10.2585 22.7264 10.2159 22.7769C10.1731 22.8274 9.94064 22.8297 9.69916 22.7821C9.45769 22.7344 9.22984 22.755 9.193 22.8279ZM17.7465 22.2523C17.9947 22.2936 18.3966 22.3108 18.6396 22.2905C19.011 22.2594 18.986 22.2421 18.4821 22.1816C17.723 22.0904 17.1209 22.1483 17.7465 22.2523ZM19.4773 22.5508C19.4842 22.6318 19.738 22.6723 20.0411 22.641C20.4834 22.5952 20.532 22.5638 20.2872 22.4823C19.8631 22.3411 19.4625 22.375 19.4773 22.5508ZM14.7936 23.3214C14.7015 23.4534 14.6667 23.5956 14.7159 23.6373C14.7653 23.679 14.8679 23.5685 14.944 23.392C15.1064 23.0152 15.0314 22.98 14.7936 23.3214ZM25.7727 22.8626C25.9191 22.8879 26.1177 22.8686 26.214 22.8198C26.3103 22.771 26.1905 22.7504 25.9477 22.7739C25.705 22.7974 25.6262 22.8373 25.7727 22.8626ZM22.5685 23.765C22.6091 23.8595 22.6899 23.9277 22.7482 23.9167C22.9228 23.8835 22.8715 23.6845 22.6763 23.6372C22.5764 23.6131 22.5279 23.6706 22.5685 23.765ZM24.6585 24.1889C24.6653 24.2699 24.7743 24.3274 24.9005 24.3167C25.0267 24.306 25.0835 24.2345 25.0266 24.1577C24.9697 24.081 24.8609 24.0234 24.7846 24.0299C24.7083 24.0363 24.6516 24.1079 24.6585 24.1889ZM33.2352 23.4178C33.3816 23.4431 33.5802 23.4238 33.6765 23.375C33.7728 23.3262 33.653 23.3056 33.4103 23.3291C33.1675 23.3526 33.0887 23.3925 33.2352 23.4178ZM33.8845 24.5172C33.7801 24.6669 33.7761 24.7524 33.8739 24.7441C34.0518 24.7291 34.2356 24.4322 34.1249 24.3386C34.0847 24.3048 33.9766 24.3851 33.8845 24.5172ZM47.7156 24.5652C47.8604 24.5904 48.0925 24.5707 48.231 24.5216C48.3695 24.4727 48.2511 24.4522 47.9676 24.4761C47.6841 24.5001 47.5708 24.5402 47.7156 24.5652ZM52.493 24.9032C52.6394 24.9285 52.838 24.9092 52.9343 24.8604C53.0306 24.8116 52.9108 24.7911 52.668 24.8146C52.4253 24.8381 52.3465 24.878 52.493 24.9032ZM53.3861 24.9754C53.5309 25.0005 53.763 24.9809 53.9015 24.9318C54.0401 24.8829 53.9216 24.8623 53.6381 24.8863C53.3547 24.9103 53.2413 24.9504 53.3861 24.9754ZM47.6894 25.6647C47.6425 25.7573 47.684 25.9006 47.7817 25.9831C47.9122 26.0933 47.9522 26.047 47.9321 25.8092C47.902 25.4536 47.8209 25.4053 47.6894 25.6647ZM54.6173 25.0657C54.8655 25.107 55.2674 25.1239 55.5104 25.1033L55.9521 25.0659L55.5009 24.9909C55.2527 24.9496 54.8508 24.9328 54.6078 24.9533L54.1661 24.9907L54.6173 25.0657ZM56.2242 25.1808C56.3707 25.2061 56.5693 25.1868 56.6655 25.138C56.7618 25.0892 56.642 25.0687 56.3993 25.0922C56.1566 25.1157 56.0778 25.1556 56.2242 25.1808ZM55.3309 26.4884C55.2877 26.5737 55.3927 26.6315 55.5643 26.617C55.7358 26.6025 55.8296 26.5278 55.7727 26.4511C55.7158 26.3743 55.6108 26.3164 55.5394 26.3225C55.4679 26.3285 55.3741 26.4032 55.3309 26.4884Z" fill="#C4EABA"/>
<path fill-rule="evenodd" clip-rule="evenodd" d="M3.73572 5.71013C3.58607 6.44996 3.60622 6.67755 3.81224 6.57781C4.07868 6.44893 4.12406 6.73474 3.86649 6.91937C3.63061 7.08868 3.48979 7.99772 3.40908 9.87327C3.35128 11.2133 3.36838 11.3505 3.60589 11.4582C3.98514 11.6302 3.96267 11.8976 3.58279 11.7338C3.32389 11.6222 3.2788 11.6468 3.29925 11.8885C3.31262 12.0466 3.4093 12.2023 3.51392 12.2347C3.63575 12.2723 3.61893 12.3049 3.46714 12.3251C3.28134 12.35 3.20897 12.6727 3.13353 13.8111C3.04628 15.1307 3.06052 15.2816 3.28895 15.4415C3.51738 15.6014 3.51683 15.6124 3.28376 15.5608C3.11599 15.5235 3.05768 15.5671 3.11556 15.6868C3.16427 15.7874 3.12619 16.1841 3.03099 16.5683C2.93581 16.9526 2.84208 17.789 2.8228 18.4272C2.80353 19.0654 2.72525 20.0265 2.64889 20.5632C2.57267 21.0998 2.50998 21.8034 2.50987 22.1264L2.50945 22.7141L3.18215 22.7767C5.47623 22.9906 9.3837 23.2211 9.44112 23.146C9.4785 23.097 9.42334 23.034 9.31852 23.0064C8.92894 22.9034 9.27647 22.6987 9.69909 22.782C9.94057 22.8297 10.1731 22.8273 10.2158 22.7769C10.2584 22.7264 10.2999 22.7623 10.3078 22.8567C10.3158 22.9513 10.4417 23.0185 10.5874 23.0062C10.7332 22.9938 10.9388 23.0565 11.0442 23.1455C11.1496 23.2345 11.2318 23.26 11.2269 23.2023C11.222 23.1444 11.4553 23.1735 11.7454 23.2668C12.0354 23.3602 12.4995 23.4532 12.7768 23.4735C13.054 23.494 13.3946 23.5435 13.5337 23.5839C13.6928 23.6299 13.7813 23.5828 13.772 23.4571C13.7619 23.3183 13.7948 23.3054 13.8797 23.4149C14.0993 23.6985 14.5931 23.6484 14.8415 23.3174L15.0824 22.9967L14.9598 23.3182C14.8213 23.6811 14.559 23.64 19.1528 23.9748C23.4774 24.2901 23.7617 24.3028 23.9932 24.1907C24.149 24.1152 24.1858 23.9848 24.106 23.7914C24.029 23.6051 24.055 23.4941 24.1803 23.476C24.2864 23.4606 24.1743 23.3942 23.9311 23.3283C23.5611 23.2282 23.4606 23.2554 23.3149 23.4948C23.1655 23.74 23.1379 23.7467 23.1206 23.5421C23.1061 23.3714 22.8656 23.2752 22.276 23.2039C21.8225 23.1489 21.3038 23.1323 21.1234 23.1667C20.943 23.2011 20.6234 23.1697 20.4133 23.0967C20.2032 23.0239 19.2935 22.9202 18.3916 22.8665C17.4898 22.8129 16.3822 22.7372 15.9303 22.6985C15.4784 22.6596 14.8679 22.6188 14.5736 22.6078C14.2793 22.5969 13.7929 22.563 13.4928 22.5326C12.8092 22.4633 12.219 22.6571 12.2432 22.9431C12.2533 23.0631 12.1622 23.1696 12.0408 23.1798C11.7119 23.2077 11.7518 22.9431 12.112 22.7077C12.4232 22.5041 12.4204 22.4995 11.9364 22.4157C11.6659 22.3688 10.825 22.2906 10.0678 22.2418C7.40202 22.0699 3.76425 21.7754 3.70528 21.727C3.67244 21.7 3.74184 20.3288 3.85936 18.6797C3.97688 17.0306 4.02685 15.6192 3.97043 15.543C3.914 15.4668 3.92627 15.3191 3.99796 15.2146C4.18502 14.9416 4.50903 10.4107 4.41822 9.33719C4.37608 8.83901 4.40773 8.40312 4.48857 8.36825C4.56928 8.33354 4.64602 8.00818 4.65893 7.64536C4.67183 7.28239 4.71206 6.92689 4.74828 6.85546C4.83294 6.68857 5.68242 6.7091 8.36842 6.94328C9.55998 7.047 10.7695 7.14445 11.0563 7.15964C11.3431 7.17484 11.9812 7.22275 12.4743 7.26602C13.7391 7.37689 14.0466 7.33679 13.921 7.07734C13.7628 6.75064 13.9928 6.80579 14.4229 7.19757C14.7498 7.49547 14.9108 7.53346 15.4616 7.44237C15.8203 7.38311 16.1173 7.37741 16.1218 7.42983C16.1299 7.5257 16.7413 7.6125 17.6991 7.65368C18.0906 7.67039 18.2143 7.62166 18.2003 7.456C18.1901 7.33495 18.2425 7.23085 18.3169 7.22456C18.3913 7.21827 18.5698 7.15852 18.7135 7.09164C18.9662 6.9743 18.9668 6.98123 18.7335 7.29774C18.6007 7.47789 18.5488 7.65314 18.6181 7.68747C18.6875 7.72165 19.4792 7.80654 20.3776 7.87633C21.6423 7.97431 22.0211 7.96095 22.0561 7.81665C22.0895 7.67842 22.1495 7.68209 22.2885 7.83051C22.4546 8.00822 25.0857 8.33307 25.2124 8.19154C25.2391 8.16169 25.1165 7.89532 24.9399 7.59969C24.6348 7.08951 24.5831 7.06526 23.9188 7.12145C23.534 7.154 23.2155 7.13675 23.2111 7.08314C23.2067 7.02952 22.9176 6.96262 22.5685 6.93461C22.2194 6.9066 21.833 6.87447 21.7097 6.8634C20.925 6.79258 20.1662 6.74065 19.7413 6.72854C19.2727 6.71538 17.6955 6.59386 15.5904 6.40872C13.9659 6.26598 13.6518 6.28351 13.6715 6.51632C13.6966 6.81334 13.4469 6.79828 13.3392 6.49623C13.2644 6.28662 12.6128 6.19106 9.45736 5.92689C6.85043 5.70871 5.65259 5.66218 5.62458 5.77815C5.59844 5.88641 5.4781 5.86633 5.28912 5.72229C5.12696 5.59882 4.8978 5.54435 4.77984 5.60149C4.66187 5.65863 4.52389 5.64924 4.473 5.58073C4.34928 5.41381 3.77524 5.51458 3.73572 5.71013ZM3.85816 6.22302C3.86501 6.30401 3.97002 6.36187 4.0915 6.35159C4.21299 6.34131 4.30678 6.26664 4.29993 6.18565C4.29308 6.10465 4.18808 6.0468 4.06659 6.05707C3.9451 6.06735 3.85131 6.14203 3.85816 6.22302ZM5.02846 7.26067C4.94959 7.53282 5.15157 7.72011 5.27069 7.48549C5.33463 7.3595 5.93803 7.35681 7.44943 7.47559C10.1886 7.69089 11.2897 7.71995 10.8238 7.56448C10.6307 7.49999 9.55343 7.38867 8.42984 7.31687C7.30609 7.24508 6.09517 7.15442 5.7389 7.11544C5.23067 7.05981 5.07759 7.091 5.02846 7.26067ZM4.98718 7.87016C4.95624 7.93403 4.91928 8.42095 4.90491 8.95238C4.89068 9.48379 4.83258 10.3731 4.77589 10.9284C4.71905 11.4838 4.72435 11.9339 4.78752 11.9285C4.90371 11.9187 5.14292 9.87076 5.18912 8.49008C5.21205 7.80739 5.13391 7.56751 4.98718 7.87016ZM14.868 7.91572C15.0144 7.941 15.213 7.92168 15.3093 7.8729C15.4055 7.82412 15.2858 7.80355 15.043 7.82705C14.8003 7.85055 14.7215 7.89044 14.868 7.91572ZM15.8754 8.02434C16.0036 8.09255 16.3067 8.12593 16.5491 8.0986C16.981 8.04976 16.9823 8.04713 16.6117 7.96205C16.4038 7.91439 16.1006 7.88086 15.938 7.88779C15.6945 7.89801 15.6835 7.92208 15.8754 8.02434ZM25.1635 7.36824C25.1983 7.77939 25.4866 7.88552 25.7431 7.58143C25.9853 7.29443 25.9586 7.25056 25.4784 7.14628C25.2041 7.08673 25.1433 7.12954 25.1635 7.36824ZM17.6674 8.16937C17.8754 8.21703 18.2112 8.24216 18.4137 8.22504L18.7818 8.19389L18.4037 8.10708C18.1958 8.05942 17.8599 8.03429 17.6575 8.05141L17.2893 8.08256L17.6674 8.16937ZM26.0408 7.79473L25.885 8.28992L28.8076 8.5109C30.4152 8.63238 32.4357 8.78552 33.2978 8.85126C34.7047 8.95827 35.2703 8.99259 35.9812 9.01417C36.4961 9.02979 36.8618 8.90556 36.8462 8.72046C36.82 8.41122 36.2683 8.06086 36.0069 8.18753C35.8764 8.25063 35.7664 8.22864 35.7587 8.13793C35.7511 8.04825 35.6747 7.98086 35.589 7.98811C35.5033 7.99536 35.4796 8.06411 35.5365 8.14086C35.6966 8.35676 35.3883 8.3284 35.1707 8.10714C34.9812 7.91435 34.6183 7.83189 33.7261 7.77863C33.4802 7.76384 32.8447 7.71512 32.3139 7.67028C31.7832 7.62545 31.2058 7.63781 31.0309 7.69785C30.8559 7.75774 30.6859 7.75283 30.6532 7.68678C30.6205 7.62074 30.4076 7.53745 30.1803 7.5018C29.8082 7.44326 29.7702 7.47553 29.7999 7.82571C29.8277 8.15483 29.7964 8.18937 29.5964 8.05012C29.4664 7.95952 29.3527 7.79873 29.3437 7.69256C29.3271 7.49656 29.161 7.43912 28.3413 7.34607C27.9928 7.30643 27.824 7.37128 27.6367 7.61701C27.5014 7.79472 27.3243 7.9457 27.2433 7.95255C27.1623 7.9594 27.1981 7.8312 27.3227 7.6676C27.5303 7.39509 27.5286 7.36409 27.3024 7.29855C27.1666 7.25916 26.8622 7.24323 26.626 7.26321C26.2801 7.29247 26.1665 7.39567 26.0408 7.79473ZM18.9316 8.21074C18.9885 8.2875 19.1798 8.3333 19.3568 8.3127C19.667 8.27637 19.6676 8.27143 19.3733 8.17337C18.9534 8.03345 18.8092 8.04564 18.9316 8.21074ZM19.8211 8.29597C19.7654 8.40597 21.3853 8.51677 21.476 8.40928C21.5038 8.37638 21.1551 8.31333 20.701 8.26929C20.2468 8.2251 19.851 8.23723 19.8211 8.29597ZM22.7373 8.49168C22.748 8.61892 23.1723 8.67824 24.3882 8.72206C24.8382 8.73828 25.1623 8.71264 25.1084 8.66499C24.9532 8.52743 22.7265 8.36475 22.7373 8.49168ZM26.9577 8.82104C27.1042 8.84632 27.3028 8.827 27.3991 8.77822C27.4953 8.72944 27.3755 8.70887 27.1328 8.73237C26.8901 8.75587 26.8113 8.79576 26.9577 8.82104ZM37.1616 8.41302C37.233 8.65956 37.2466 8.89229 37.1918 8.93015C37.137 8.96786 37.1691 8.9736 37.2632 8.9428C37.3573 8.912 37.4643 8.95649 37.5009 9.04164C37.5909 9.251 41.5382 9.55259 41.7436 9.36585C41.84 9.27805 41.9291 9.28386 41.9707 9.38045C42.0084 9.46803 42.6471 9.57847 43.3903 9.62609C44.1334 9.67358 44.9874 9.73748 45.2883 9.76795C45.7168 9.81134 45.8503 9.77053 45.9058 9.57867C46.0026 9.24493 46.2236 9.24819 46.1657 9.58264C46.1244 9.82136 46.4067 9.87311 48.7195 10.0506C50.1923 10.1638 51.4605 10.192 51.6445 10.1161C51.841 10.0348 52.0164 10.0453 52.0884 10.1425C52.2217 10.3222 56.6731 10.7113 56.9674 10.5687C57.0709 10.5186 57.2002 10.5378 57.2546 10.6112C57.3986 10.8055 58.0377 10.7186 58.1066 10.4955C58.1438 10.3749 58.177 10.393 58.1973 10.5451C58.2203 10.717 58.4306 10.7971 58.9373 10.8269C60.1207 10.8967 60.3201 10.9553 60.3442 11.2404C60.3567 11.3889 60.4413 11.548 60.5321 11.594C60.6408 11.6492 60.6223 11.7757 60.478 11.9652C60.3336 12.1548 60.1935 13.1219 60.0665 14.8096C59.893 17.1138 59.8982 17.3783 60.1186 17.4834C60.3348 17.5864 60.3332 17.603 60.1058 17.6263C59.9643 17.6406 59.8509 17.6812 59.8538 17.7164C59.8568 17.7514 59.7932 18.5745 59.7127 19.5451C59.5371 21.6601 59.5313 21.5354 59.8042 21.5123C60.1178 21.4858 60.0993 21.7353 59.7791 21.8486C59.5575 21.9271 59.4919 22.237 59.3999 23.6407C59.2326 26.1921 59.3475 25.9542 58.2626 25.9988C57.4909 26.0307 57.2866 26.0914 57.0921 26.3467C56.7491 26.7966 56.5366 26.7481 56.791 26.2778C56.9105 26.0568 56.985 25.8608 56.9566 25.8424C56.872 25.7877 52.8486 25.5119 52.5299 25.5388C52.3688 25.5525 52.2106 25.6493 52.1782 25.754C52.1432 25.8677 52.1061 25.8409 52.0861 25.6876C52.0678 25.5463 51.9903 25.4362 51.914 25.4426C51.8377 25.4491 50.1754 25.3254 48.2201 25.1679C44.0669 24.8333 43.5647 24.8135 43.4799 24.9806C43.4452 25.0491 43.285 25.0909 43.1238 25.0739C42.9627 25.0568 42.7976 25.1082 42.7571 25.1881C42.7166 25.2682 42.5217 25.3473 42.3239 25.364C41.6959 25.4171 41.9566 25.6383 42.7728 25.7449C43.5601 25.8476 47.3577 26.1247 47.6455 26.1003C47.7293 26.0932 47.7546 25.9978 47.7014 25.8881C47.6484 25.7786 47.672 25.6391 47.7541 25.5783C47.8406 25.5142 47.9134 25.5899 47.9277 25.7588C47.9473 25.9904 48.1128 26.0704 48.7396 26.1513C50.7628 26.4124 54.0219 26.6028 54.4095 26.4827C54.6909 26.3954 54.8829 26.4118 54.9709 26.5305C55.0797 26.6772 55.1459 26.6703 55.3262 26.4929C55.4941 26.3279 55.5928 26.3129 55.7327 26.4309C55.8727 26.5492 55.866 26.5936 55.7049 26.6144C55.2998 26.6666 56.0953 26.8304 56.9199 26.8644C57.3702 26.8832 58.2723 26.9497 58.9247 27.0124C60.1245 27.1276 60.3384 27.0608 60.3049 26.5811C60.2817 26.2496 60.4343 22.9089 60.5098 22.0909C60.621 20.8876 60.6639 19.8343 60.6284 19.1808C60.6118 18.8764 60.6394 18.6238 60.6897 18.6195C60.7697 18.6127 60.8758 17.3093 60.8661 16.4515C60.8644 16.2872 60.9355 15.6163 61.0242 14.9608C61.1379 14.1204 61.1358 13.7568 61.0166 13.728C60.9238 13.7056 60.8423 13.6224 60.8356 13.5435C60.829 13.4644 60.8912 13.4341 60.9739 13.476C61.1328 13.5565 61.1417 13.5117 61.3236 11.7436C61.493 10.0969 61.4344 9.90017 60.7586 9.84819C60.267 9.81042 60.1867 9.84851 60.0966 10.1631C60.0403 10.3601 59.9522 10.5248 59.9011 10.5291C59.8498 10.5334 59.8354 10.4421 59.8691 10.3261C59.9132 10.1739 59.8428 10.1438 59.6162 10.2177C59.3059 10.319 59.3055 10.3173 59.5775 10.0679C59.8483 9.81959 59.8469 9.81496 59.477 9.75756C59.2704 9.72551 58.8339 9.69198 58.5069 9.68316C58.1798 9.6742 57.3741 9.61659 56.7163 9.55507C54.5598 9.35307 52.296 9.21103 52.2428 9.27411C52.1095 9.43207 52.5032 9.7031 52.8525 9.69386C53.0665 9.68807 53.2463 9.73797 53.252 9.80453C53.269 10.0043 52.4595 9.91502 52.2464 9.69353C52.1374 9.58039 52.0507 9.54219 52.0538 9.60867C52.0567 9.67516 51.8474 9.60418 51.5886 9.45107C51.3297 9.29781 51.0385 9.2078 50.9413 9.25102C50.8443 9.29424 50.4956 9.26055 50.1666 9.17611C49.6414 9.04152 49.5551 9.05194 49.4601 9.26124C49.3274 9.55396 49.0496 9.44546 49.1394 9.1359C49.1875 8.96988 49.0766 8.91608 48.7072 8.92582C47.6437 8.95394 47.4609 8.94627 47.2029 8.86265C47.0562 8.81514 46.8289 8.82799 46.6981 8.89141C46.5672 8.95469 46.4166 8.94889 46.3633 8.8782C46.2891 8.78006 39.2046 8.12719 38.6878 8.1709C38.6286 8.17591 38.5857 8.29641 38.5927 8.43849C38.6022 8.63657 38.5675 8.62216 38.4439 8.37692C38.3382 8.1671 38.1585 8.06737 37.9219 8.08739C37.7234 8.10418 37.4419 8.08335 37.2964 8.04123C37.0694 7.97545 37.0503 8.02838 37.1616 8.41302ZM28.7497 8.96607C28.8962 8.99135 29.0948 8.97203 29.1911 8.92325C29.2873 8.87447 29.1675 8.8539 28.9248 8.8774C28.6821 8.9009 28.6033 8.94079 28.7497 8.96607ZM11.4345 10.648C11.3126 11.1502 10.8153 18.7043 10.8995 18.7751C11.033 18.8878 12.3901 19.0127 12.4686 18.9194C12.5045 18.877 12.5973 18.0865 12.6751 17.1627C12.7527 16.239 12.841 15.4541 12.871 15.4185C12.9299 15.3487 15.9182 15.5358 16.0123 15.6152C16.0436 15.6416 16.0015 16.4573 15.9188 17.4279C15.836 18.3985 15.7895 19.2097 15.8155 19.2305C15.8414 19.2514 16.237 19.2829 16.6944 19.3007L17.5263 19.333L17.8202 15.4749C17.9818 13.3529 18.1332 11.4717 18.1568 11.2941C18.1949 11.0051 18.11 10.9636 17.341 10.8961C16.869 10.8545 16.4701 10.8344 16.4545 10.8513C16.439 10.8681 16.3758 11.6009 16.3142 12.4797C16.2525 13.3585 16.1357 14.0831 16.0545 14.0899C15.8226 14.1096 13.0387 13.8694 12.9788 13.8245C12.9492 13.8024 12.9809 13.0725 13.0491 12.2026C13.1173 11.3326 13.1446 10.5985 13.1097 10.5714C13.0749 10.5441 12.6947 10.5044 12.265 10.4832C11.6712 10.4538 11.472 10.4934 11.4345 10.648ZM34.8308 9.44177C34.8334 9.47181 35.6257 9.56911 36.5918 9.65824C39.7461 9.94906 41.8542 10.0653 41.8443 9.94791C41.8389 9.88459 41.7674 9.83843 41.6854 9.84537C41.5259 9.85886 37.5253 9.54976 36.1761 9.41978C35.338 9.3391 34.8229 9.34753 34.8308 9.44177ZM4.62827 12.5723C4.50649 13.1699 4.17826 18.8239 4.25896 18.9327C4.31235 19.0046 4.29211 19.1107 4.2141 19.1686C4.031 19.3044 4.07502 19.8493 4.26792 19.833C4.34892 19.8261 4.41096 19.6706 4.406 19.4876C4.39096 18.9452 4.56019 16.5135 4.73047 14.8254C4.84963 13.6444 4.86598 12.3668 4.76187 12.3756C4.70945 12.3801 4.64931 12.4687 4.62827 12.5723ZM21.9203 11.4205C20.4951 11.9521 19.5945 13.3162 19.4403 15.1764C19.1927 18.1627 21.0194 20.0697 23.9113 19.8438C26.2965 19.6574 27.5766 18.0491 27.565 15.2529C27.5591 13.8276 27.1488 12.875 26.2092 12.1045C25.1255 11.216 23.2643 10.9191 21.9203 11.4205ZM41.9979 10.011C42.0745 10.0787 45.4112 10.4201 45.731 10.393C45.8159 10.3858 45.8806 10.3256 45.875 10.2592C45.8694 10.1928 45.2443 10.1023 44.4861 10.0578C42.5049 9.942 41.9069 9.93074 41.9979 10.011ZM46.0756 10.3201C46.1331 10.3976 46.5 10.4734 46.8912 10.4885C47.2823 10.5037 47.8214 10.5427 48.0893 10.5753C48.3788 10.6104 48.5713 10.5753 48.564 10.4887C48.5572 10.4086 48.2667 10.3281 47.9186 10.3101C47.5705 10.292 46.9898 10.2551 46.6283 10.2281C46.1988 10.1962 46.0073 10.228 46.0756 10.3201ZM29.1906 11.9776C29.0626 12.5132 28.5805 20.0239 28.6695 20.0989C28.8099 20.2173 32.8809 20.5209 33.5805 20.4652C34.7392 20.3726 35.5407 19.6408 35.7494 18.4852C35.8916 17.6977 35.5785 16.8663 34.9805 16.4438L34.5155 16.1153L34.8651 15.8415C35.7377 15.1581 35.9127 13.88 35.2471 13.0525C34.6708 12.3361 34.1096 12.1576 31.7785 11.949C29.2864 11.726 29.2508 11.7263 29.1906 11.9776ZM53.7009 9.85064C54.0527 10.0261 54.5871 10.0334 54.6223 9.86332C54.6393 9.78031 54.3867 9.71743 54.061 9.72363C53.6529 9.73131 53.5408 9.7709 53.7009 9.85064ZM48.7819 10.5623C48.8321 10.63 49.3204 10.6954 49.8669 10.7076C50.4136 10.7198 50.9515 10.756 51.0623 10.7881C51.1731 10.8203 51.2588 10.7866 51.2526 10.7136C51.2465 10.6404 50.7696 10.5401 50.1928 10.4907C48.9434 10.3836 48.66 10.3981 48.7819 10.5623ZM22.046 13.2934C21.1086 14.2681 20.9195 16.4643 21.6844 17.4911C22.4878 18.5695 24.1843 18.6423 25.0608 17.6361C25.5543 17.0697 25.8786 15.8193 25.7931 14.8136C25.6803 13.4861 24.6442 12.6218 23.302 12.7353C22.6393 12.7914 22.4462 12.8771 22.046 13.2934ZM57.3679 9.95244C57.2435 10.0997 57.2737 10.3064 57.4179 10.2942C57.4834 10.2887 57.6574 10.1759 57.8046 10.0438C58.0674 9.80755 58.0668 9.80374 57.765 9.82468C57.596 9.8363 57.4173 9.89384 57.3679 9.95244ZM51.7005 10.7479C51.7106 10.8672 55.4347 11.2065 56.0972 11.1484C56.7852 11.0881 56.041 10.946 54.4208 10.8285C53.4526 10.7582 52.4421 10.6819 52.175 10.6588C51.9078 10.6359 51.6944 10.6759 51.7005 10.7479ZM56.4753 11.0885C56.4865 11.2212 57.2873 11.3252 59.0541 11.4237C59.5204 11.4497 59.7824 11.5417 59.8389 11.6995C59.8967 11.8607 59.9203 11.8311 59.913 11.6062C59.9013 11.2457 59.8657 11.2351 58.2569 11.1116C57.7233 11.0706 57.1012 11.0163 56.8749 10.991C56.6485 10.9655 56.4686 11.0095 56.4753 11.0885ZM30.8195 13.553C30.791 13.6939 30.7506 14.1198 30.7294 14.4994L30.6911 15.1893L31.6515 15.2742C33.4635 15.4341 33.9851 15.223 33.912 14.359C33.8594 13.7373 33.5258 13.549 32.3192 13.4601C31.7222 13.4159 31.1522 13.3612 31.0524 13.3382C30.9527 13.3154 30.8479 13.412 30.8195 13.553ZM38.2612 15.2392C37.5607 16.6921 36.6841 18.5053 36.3131 19.2688C35.564 20.8101 35.573 20.8412 36.7573 20.8186L37.4886 20.8046L37.8129 20.069C37.991 19.6645 38.1933 19.2693 38.2621 19.191C38.3353 19.1075 38.9136 19.0917 39.6567 19.1529C41.7078 19.3217 41.5499 19.2473 41.832 20.1778C41.9705 20.6351 42.163 21.0794 42.2597 21.1653C42.4807 21.3613 44.0033 21.4442 43.9876 21.2592C43.9787 21.1532 41.8807 14.3753 41.4429 13.0384C41.3621 12.7916 41.1718 12.721 40.4389 12.6656L39.5347 12.5975L38.2612 15.2392ZM46.5258 13.5695C45.4135 14.1959 45.0843 15.9208 45.8866 16.9184C46.0943 17.1767 46.5267 17.5074 46.8473 17.6532L47.4301 17.9183L46.9902 18.1456C46.4293 18.4356 44.2392 21.228 44.4778 21.349C44.573 21.3972 45.0306 21.4485 45.4947 21.4629L46.3385 21.4893L47.6127 19.9365C48.8787 18.3939 48.8916 18.3834 49.586 18.3352C49.9704 18.3085 50.3081 18.3074 50.3365 18.3327C50.3649 18.3579 50.3232 19.1432 50.2439 20.0777C50.1645 21.0123 50.1206 21.7937 50.1462 21.8144C50.1717 21.8349 50.5675 21.8664 51.0257 21.8841L51.8585 21.9163L52.1828 17.759C52.3612 15.4725 52.492 13.5883 52.4734 13.5718C52.4024 13.5085 47.8187 13.1828 47.4651 13.2158C47.26 13.2349 46.8373 13.3941 46.5258 13.5695ZM39.5998 16.1516C38.8684 17.7499 38.8419 17.6904 40.3135 17.7491L41.14 17.7821L40.7657 16.5011C40.5599 15.7963 40.3591 15.1112 40.3194 14.9784C40.2761 14.8335 39.9881 15.3032 39.5998 16.1516ZM59.59 13.6895C59.5594 13.8852 59.4922 14.6163 59.4408 15.314C59.3543 16.4854 59.3765 16.8076 59.5307 16.6249C59.633 16.5035 59.8212 13.4816 59.7311 13.4056C59.6843 13.3659 59.6208 13.4938 59.59 13.6895ZM47.5544 14.9972C47.0781 15.4416 47.1174 16.25 47.6284 16.5221C47.9972 16.7185 50.3199 17.0057 50.4373 16.8694C50.4751 16.8254 50.5416 16.3617 50.5848 15.8388L50.6638 14.8879L49.6082 14.8133C49.0278 14.7723 48.4092 14.7211 48.2337 14.6997C48.0521 14.6777 47.7592 14.8059 47.5544 14.9972ZM30.4961 17.6967C30.4304 18.4402 30.4526 18.7295 30.5805 18.7943C30.6761 18.8426 31.3211 18.9182 32.0142 18.9621C33.4504 19.0531 33.8754 18.872 33.9986 18.116C34.1388 17.2551 33.2801 16.7947 31.3934 16.7193L30.5851 16.6872L30.4961 17.6967ZM4.09255 20.1074C4.06072 20.1711 4.03329 20.4851 4.03155 20.8047C4.02883 21.3317 4.06723 21.393 4.44278 21.4616C4.67054 21.5032 4.85255 21.4843 4.8471 21.4198C4.84164 21.3554 4.69991 21.2788 4.53224 21.2498C4.26687 21.2038 4.23321 21.1179 4.27269 20.587C4.31434 20.0275 4.23623 19.8195 4.09255 20.1074ZM5.141 21.3877C5.14798 21.4702 5.17049 21.5381 5.19083 21.5385C5.21118 21.5388 6.18768 21.6127 7.36073 21.7027C8.53362 21.7927 9.5232 21.8074 9.55982 21.7353C9.59629 21.6632 9.57992 21.6083 9.52338 21.6131C9.3801 21.6252 5.87881 21.3416 5.46597 21.2844C5.28017 21.2586 5.13401 21.3051 5.141 21.3877ZM3.10975 21.9208C3.11945 22.0356 3.04745 22.1698 2.9496 22.2193C2.84335 22.2729 2.87603 22.305 3.0305 22.2989C3.19457 22.2924 3.28006 22.181 3.26427 21.9942C3.25056 21.8322 3.20622 21.7025 3.16572 21.7059C3.12523 21.7094 3.10004 21.8061 3.10975 21.9208ZM59.2978 17.1217C59.2702 17.2376 59.2054 18.1036 59.1537 19.046C59.102 19.9885 59.035 20.9118 59.0047 21.0979C58.9746 21.2841 59.0102 21.4312 59.084 21.4249C59.2402 21.4117 59.5905 17.1158 59.4453 16.9932C59.3917 16.9479 59.3252 17.0058 59.2978 17.1217ZM9.9699 21.8194C10.0638 21.8988 11.9936 22.1194 12.4315 22.1007C12.5332 22.0964 12.6113 22.0348 12.6053 21.9637C12.5993 21.8924 12.0884 21.8021 11.4699 21.7631C10.1858 21.6818 9.82281 21.6954 9.9699 21.8194ZM6.6097 22.4095C6.66729 22.4872 7.00132 22.5683 7.35212 22.5898C7.70275 22.6111 8.14334 22.6579 8.33117 22.6938C8.58307 22.7419 8.64781 22.7078 8.57808 22.5638C8.52613 22.4563 8.33456 22.3745 8.15262 22.3819C7.97067 22.3893 7.52546 22.3667 7.1633 22.3318C6.72771 22.2897 6.54039 22.316 6.6097 22.4095ZM12.8125 22.0307C12.8734 22.0821 13.0721 22.1317 13.2544 22.1407C13.4366 22.1499 13.7378 22.1796 13.9236 22.2068C14.1093 22.2339 14.2564 22.1963 14.2502 22.1232C14.244 22.05 14.0864 21.963 13.9001 21.9295C13.4343 21.8459 12.6771 21.9165 12.8125 22.0307ZM14.6291 22.2193C15.0459 22.3582 15.1591 22.3486 15.1445 22.1757C15.1377 22.0947 14.9503 22.0486 14.728 22.073C14.3699 22.1127 14.3587 22.1292 14.6291 22.2193ZM15.3749 22.1381C15.3335 22.22 15.5022 22.3085 15.7499 22.335C15.9976 22.3613 16.4023 22.4047 16.6492 22.4309C16.8987 22.4576 17.0928 22.4156 17.0861 22.3364C17.0795 22.2579 16.8219 22.1709 16.5136 22.1427C16.2054 22.1145 15.8399 22.0685 15.7017 22.0405C15.5635 22.0124 15.4165 22.0563 15.3749 22.1381ZM17.233 22.3193C17.2442 22.4512 17.5845 22.5195 18.4777 22.5696C18.8758 22.5918 19.1806 22.5506 19.1743 22.4754C19.168 22.4019 18.7267 22.3132 18.1936 22.2785C17.6604 22.2436 17.2282 22.262 17.233 22.3193ZM9.81944 23.2194C10.2362 23.3583 10.3495 23.3487 10.3348 23.1758C10.328 23.0948 10.1406 23.0487 9.9183 23.0731C9.56022 23.1128 9.54901 23.1293 9.81944 23.2194ZM19.4773 22.5508C19.4841 22.6317 19.7379 22.6723 20.0411 22.641C20.4833 22.5951 20.532 22.5637 20.2872 22.4822C19.8631 22.341 19.4624 22.3749 19.4773 22.5508ZM21.0741 22.7C21.2575 22.7635 21.8294 22.8182 22.3451 22.8216C23.0759 22.8265 23.2008 22.8004 22.9118 22.7029C22.7079 22.6343 22.1359 22.5796 21.6409 22.5813C20.9858 22.5838 20.8315 22.6161 21.0741 22.7ZM23.81 22.9258C24.1139 23.0875 24.4148 23.0621 24.399 22.876C24.3922 22.795 24.2044 22.7452 23.9818 22.7652C23.6664 22.7936 23.6285 22.8292 23.81 22.9258ZM25.0469 22.9303C25.1046 23.0082 25.7062 23.1029 26.3839 23.141C28.2147 23.2437 28.3385 23.2546 28.628 23.3394C28.7745 23.3822 28.8886 23.3518 28.8818 23.2717C28.8713 23.1469 28.0889 23.0464 25.4489 22.8304C25.1252 22.804 24.9799 22.84 25.0469 22.9303ZM22.5684 23.765C22.6091 23.8594 22.6899 23.9276 22.7481 23.9166C22.9227 23.8834 22.8714 23.6844 22.6763 23.6372C22.5763 23.613 22.5278 23.6705 22.5684 23.765ZM24.453 23.836C24.3007 24.2622 24.4747 24.5424 24.6688 24.1836C24.7755 23.9865 24.8231 23.9886 25.014 24.1983C25.1358 24.3322 25.4949 24.4507 25.812 24.4614C26.1292 24.4723 27.2243 24.5476 28.2458 24.629C29.2671 24.7103 30.1911 24.734 30.2994 24.6817C30.4173 24.6247 30.4638 24.4283 30.4156 24.1915C30.3357 23.7986 30.3225 23.7955 27.8715 23.6004C24.7204 23.3493 24.6244 23.356 24.453 23.836ZM29.1742 23.2216C29.1892 23.3984 29.5863 23.4629 30.6423 23.4596C31.318 23.4576 31.5384 23.4208 31.3232 23.3459C30.8766 23.1903 29.1632 23.0912 29.1742 23.2216ZM32.1675 23.5416C32.2949 23.6008 32.737 23.6657 33.15 23.6861C34.1836 23.7368 34.5391 23.7601 35.2316 23.8221C35.6374 23.8585 35.778 23.8315 35.6694 23.7379C35.5059 23.597 32.9165 23.3384 32.2854 23.3998C32.0167 23.426 31.9895 23.4587 32.1675 23.5416ZM30.6738 24.0509C30.5246 24.566 30.6408 24.8338 31.0314 24.8747C31.3021 24.9032 31.4329 24.8418 31.4698 24.6695C31.4987 24.5344 31.5744 24.3027 31.6381 24.1545C31.72 23.9646 31.6995 23.8892 31.5686 23.8988C31.4666 23.9064 31.2401 23.8868 31.0651 23.8554C30.8516 23.8169 30.7229 23.8812 30.6738 24.0509ZM31.9879 23.9835C31.9481 24.0306 31.931 24.2526 31.95 24.4765C31.9901 24.9504 32.0749 24.9797 33.7677 25.1042C34.9519 25.1914 34.9723 25.1874 35.2382 24.824C35.3864 24.6211 35.5026 24.3955 35.4964 24.3225C35.4902 24.2494 34.9984 24.1544 34.4033 24.1115C33.8082 24.0686 33.0377 24.0029 32.6909 23.9655C32.3442 23.9281 32.0278 23.9362 31.9879 23.9835ZM58.9684 21.8992C58.948 22.094 58.8961 22.6903 58.8533 23.2242C58.6644 25.5783 58.7392 25.3449 58.1797 25.3271C57.508 25.3058 57.5549 25.5188 58.2372 25.588C58.5822 25.6229 58.8094 25.5791 58.8665 25.4664C58.9997 25.2036 59.2131 21.7198 59.1016 21.6259C59.0489 21.5813 58.9888 21.7044 58.9684 21.8992ZM36.0449 23.7932C36.0539 23.9002 38.0201 24.1002 38.5757 24.0507C39.0717 24.0064 38.464 23.8229 37.5485 23.7406C36.3087 23.6292 36.0318 23.6388 36.0449 23.7932ZM33.8844 24.5171C33.7801 24.6668 33.776 24.7523 33.8738 24.744C34.0517 24.729 34.2356 24.4321 34.1249 24.3385C34.0846 24.3047 33.9765 24.385 33.8844 24.5171ZM36.332 24.6364C36.4084 24.8593 36.5471 25.1192 36.6401 25.2136C36.8411 25.4182 37.7528 25.3692 37.8651 25.148C37.9895 24.9024 38.1879 24.9482 38.1886 25.2226C38.1891 25.4322 38.4508 25.4839 39.7924 25.5398C41.3122 25.603 41.4154 25.5899 41.7736 25.2912C41.9814 25.1179 42.2306 24.9967 42.3272 25.0219C42.4238 25.0472 42.5383 24.9981 42.5816 24.9126C42.6266 24.8239 42.4188 24.7412 42.097 24.72C40.0398 24.5837 39.3264 24.5277 38.3975 24.4294C36.0916 24.1857 36.1745 24.1773 36.332 24.6364ZM39.5574 24.1149C39.6143 24.1917 39.7894 24.2436 39.9467 24.2303C40.104 24.217 40.2269 24.1399 40.2201 24.0589C40.2132 23.9779 40.038 23.926 39.8308 23.9435C39.6171 23.9616 39.4987 24.0358 39.5574 24.1149ZM35.5243 24.7716C35.3686 25.1327 35.5748 25.3352 36.061 25.2984C36.3616 25.2756 36.3631 25.2654 36.1325 24.7851C35.9188 24.3401 35.7123 24.3355 35.5243 24.7716ZM40.4387 24.1675C40.4874 24.2334 40.8809 24.3017 41.3131 24.3194C44.0992 24.4334 44.7161 24.3028 42.2632 24.118C40.6011 23.9928 40.315 24.0006 40.4387 24.1675ZM44.181 24.4216C44.2684 24.4907 45.2466 24.6146 46.3548 24.6966C50.8926 25.0325 55.0072 25.3485 56.1327 25.4476C57.2532 25.5462 57.56 25.521 57.3541 25.3471C57.3067 25.3071 55.2273 25.1187 52.7334 24.9285C50.2395 24.7385 47.7623 24.5486 47.2286 24.5068C44.6073 24.3016 44.0081 24.2848 44.181 24.4216Z" fill="#489B32"/>
</g>
<defs>
<clipPath id="clip0_1653_687">
<rect width="60" height="26.601" fill="white" transform="translate(0.985352 5.57617) rotate(-4.83537)"/>
</clipPath>
</defs>
</svg>
